<svg height="512pt" viewBox="0 0 512 512" width="512pt" xmlns="http://www.w3.org/2000/svg"><g fill="#c7cce1"><path d="m48 352h416v32h-416zm0 0"/><path d="m48 64h416v32h-416zm0 0"/><path d="m48 208h416v32h-416zm0 0"/></g><path d="m64 496h-32v-480c0-8.832031 7.167969-16 16-16s16 7.167969 16 16zm0 0" fill="#d89879"/><path d="m480 496h-32v-480c0-8.832031 7.167969-16 16-16s16 7.167969 16 16zm0 0" fill="#d89879"/><path d="m496 512h-480c-8.832031 0-16-7.167969-16-16s7.167969-16 16-16h480c8.832031 0 16 7.167969 16 16s-7.167969 16-16 16zm0 0" fill="#515570"/><path d="m368 304c-26.464844 0-48-21.535156-48-48v-64c0-26.464844 21.535156-48 48-48s48 21.535156 48 48v64c0 26.464844-21.535156 48-48 48zm0 0" fill="#515570"/><path d="m368 272c-26.464844 0-48-21.535156-48-48v32c0 26.464844 21.535156 48 48 48s48-21.535156 48-48v-32c0 26.464844-21.535156 48-48 48zm0 0" fill="#444863"/><path d="m352 176h32v32h-32zm0 0" fill="#fff"/><path d="m208 448c-26.464844 0-48-21.535156-48-48v-64c0-26.464844 21.535156-48 48-48s48 21.535156 48 48v64c0 26.464844-21.535156 48-48 48zm0 0" fill="#515570"/><path d="m256 160c-26.464844 0-48-21.535156-48-48v-64c0-26.464844 21.535156-48 48-48s48 21.535156 48 48v64c0 26.464844-21.535156 48-48 48zm0 0" fill="#515570"/><path d="m240 32h32v32h-32zm0 0" fill="#fff"/><path d="m160 160c-26.464844 0-48-21.535156-48-48v-64c0-26.464844 21.535156-48 48-48s48 21.535156 48 48v64c0 26.464844-21.535156 48-48 48zm0 0" fill="#515570"/><path d="m144 32h32v32h-32zm0 0" fill="#fff"/><path d="m192 320h32v32h-32zm0 0" fill="#fff"/><path d="m256 128c-26.464844 0-48-21.535156-48-48v32c0 26.464844 21.535156 48 48 48s48-21.535156 48-48v-32c0 26.464844-21.535156 48-48 48zm0 0" fill="#444863"/><path d="m208 416c-26.464844 0-48-21.535156-48-48v32c0 26.464844 21.535156 48 48 48s48-21.535156 48-48v-32c0 26.464844-21.535156 48-48 48zm0 0" fill="#444863"/><path d="m160 128c-26.464844 0-48-21.535156-48-48v32c0 26.464844 21.535156 48 48 48s48-21.535156 48-48v-32c0 26.464844-21.535156 48-48 48zm0 0" fill="#444863"/></svg>