<svg height="514.44361pt" viewBox="0 0 514.44361 514.44361" width="514.44361pt" xmlns="http://www.w3.org/2000/svg"><path d="m48.230469 321.527344h417.984375v32.152344h-417.984375zm0 0" fill="#d18161"/><path d="m48.230469 32.152344h417.984375v32.152344h-417.984375zm0 0" fill="#d18161"/><path d="m48.230469 176.839844h417.984375v32.152344h-417.984375zm0 0" fill="#d18161"/><path d="m32.152344 0h32.152344v434.0625h-32.152344zm0 0" fill="#d89879"/><path d="m450.136719 0h32.152343v434.0625h-32.152343zm0 0" fill="#d89879"/><path d="m482.289062 387.457031c-5.191406-1.0625-10.578124-1.625-16.074218-1.625h-16.078125v48.230469h32.152343zm0 0" fill="#d18161"/><path d="m64.304688 385.832031h-16.074219c-5.5 0-10.886719.5625-16.078125 1.625v46.605469h32.152344zm0 0" fill="#d18161"/><path d="m514.445312 514.445312h-514.445312v-48.230468c0-26.589844 21.640625-48.230469 48.230469-48.230469h417.984375c26.589844 0 48.230468 21.640625 48.230468 48.230469zm0 0" fill="#515570"/><path d="m0 482.289062h514.445312v32.15625h-514.445312zm0 0" fill="#444863"/><path d="m32.152344 450.136719h32.152344v32.152343h-32.152344zm0 0" fill="#fff"/><path d="m96.457031 450.136719h32.152344v32.152343h-32.152344zm0 0" fill="#fff"/><g fill="#515570"><path d="m112.535156 385.832031c-8.875 0-16.078125-7.203125-16.078125-16.074219v-64.308593c0-8.871094 7.203125-16.074219 16.078125-16.074219s16.074219 7.203125 16.074219 16.074219v64.308593c0 8.871094-7.199219 16.074219-16.074219 16.074219zm0 0"/><path d="m176.839844 385.832031c-8.875 0-16.078125-7.203125-16.078125-16.074219v-64.308593c0-8.871094 7.203125-16.074219 16.078125-16.074219s16.078125 7.203125 16.078125 16.074219v64.308593c0 8.871094-7.203125 16.074219-16.078125 16.074219zm0 0"/><path d="m241.144531 385.832031c-8.875 0-16.074219-7.203125-16.074219-16.074219v-64.308593c0-8.871094 7.199219-16.074219 16.074219-16.074219s16.078125 7.203125 16.078125 16.074219v64.308593c0 8.871094-7.203125 16.074219-16.078125 16.074219zm0 0"/><path d="m401.910156 385.832031c-8.875 0-16.078125-7.203125-16.078125-16.074219v-64.308593c0-8.871094 7.203125-16.074219 16.078125-16.074219s16.074219 7.203125 16.074219 16.074219v64.308593c0 8.871094-7.199219 16.074219-16.074219 16.074219zm0 0"/><path d="m273.296875 96.457031c-8.871094 0-16.074219-7.199219-16.074219-16.074219v-64.304687c0-8.875 7.203125-16.078125 16.074219-16.078125 8.875 0 16.078125 7.203125 16.078125 16.078125v64.304687c0 8.875-7.203125 16.074219-16.078125 16.074219zm0 0"/><path d="m337.605469 96.457031c-8.875 0-16.078125-7.199219-16.078125-16.074219v-64.304687c0-8.875 7.203125-16.078125 16.078125-16.078125 8.871093 0 16.074219 7.203125 16.074219 16.078125v64.304687c0 8.875-7.203126 16.074219-16.074219 16.074219zm0 0"/><path d="m401.910156 96.457031c-8.875 0-16.078125-7.199219-16.078125-16.074219v-64.304687c0-8.875 7.203125-16.078125 16.078125-16.078125s16.074219 7.203125 16.074219 16.078125v64.304687c0 8.875-7.199219 16.074219-16.074219 16.074219zm0 0"/><path d="m208.992188 241.144531c-8.875 0-16.074219-7.203125-16.074219-16.074219v-64.308593c0-8.871094 7.199219-16.074219 16.074219-16.074219s16.078124 7.203125 16.078124 16.074219v64.308593c0 8.871094-7.203124 16.074219-16.078124 16.074219zm0 0"/><path d="m273.296875 241.144531c-8.871094 0-16.074219-7.203125-16.074219-16.074219v-64.308593c0-8.871094 7.203125-16.074219 16.074219-16.074219 8.875 0 16.078125 7.203125 16.078125 16.074219v64.308593c0 8.871094-7.203125 16.074219-16.078125 16.074219zm0 0"/><path d="m337.605469 241.144531c-8.875 0-16.078125-7.203125-16.078125-16.074219v-64.308593c0-8.871094 7.203125-16.074219 16.078125-16.074219 8.871093 0 16.074219 7.203125 16.074219 16.074219v64.308593c0 8.871094-7.203126 16.074219-16.074219 16.074219zm0 0"/><path d="m401.910156 241.144531c-8.875 0-16.078125-7.203125-16.078125-16.074219v-64.308593c0-8.871094 7.203125-16.074219 16.078125-16.074219s16.074219 7.203125 16.074219 16.074219v64.308593c0 8.871094-7.199219 16.074219-16.074219 16.074219zm0 0"/><path d="m112.535156 241.144531c-8.875 0-16.078125-7.203125-16.078125-16.074219v-64.308593c0-8.871094 7.203125-16.074219 16.078125-16.074219s16.074219 7.203125 16.074219 16.074219v64.308593c0 8.871094-7.199219 16.074219-16.074219 16.074219zm0 0"/></g></svg>