<svg height="514.44361pt" viewBox="0 0 514.44361 514.44361" width="514.44361pt" xmlns="http://www.w3.org/2000/svg"><path d="m112.535156 0h289.375v273.296875h-289.375zm0 0" fill="#f85566"/><path d="m112.535156 208.992188h289.375v64.304687h-289.375zm0 0" fill="#c84f61"/><path d="m241.144531 241.144531h273.300781v273.300781h-273.300781zm0 0" fill="#35c9fc"/><path d="m401.910156 466.214844c-26.589844 0-48.230468-21.640625-48.230468-48.230469v-64.304687c0-26.589844 21.640624-48.230469 48.230468-48.230469s48.226563 21.640625 48.226563 48.230469v16.078124h-32.152344v-16.078124c0-8.875-7.199219-16.074219-16.074219-16.074219s-16.078125 7.199219-16.078125 16.074219v64.304687c0 8.875 7.203125 16.078125 16.078125 16.078125s16.074219-7.203125 16.074219-16.078125v-16.074219h32.152344v16.074219c0 26.589844-21.636719 48.230469-48.226563 48.230469zm0 0" fill="#fff"/><path d="m241.144531 241.144531h64.304688v273.300781h-64.304688zm0 0" fill="#00adfe"/><path d="m0 241.144531h273.296875v273.300781h-273.296875zm0 0" fill="#f9dc26"/><g fill="#fff"><path d="m257.222656 32.152344c-26.589844 0-48.230468 21.640625-48.230468 48.230468v96.457032h32.152343v-32.152344h32.152344v32.152344h32.152344v-96.457032c0-26.589843-21.636719-48.230468-48.226563-48.230468zm-16.078125 80.382812v-32.152344c0-8.875 7.203125-16.078124 16.078125-16.078124s16.074219 7.203124 16.074219 16.078124v32.152344zm0 0"/><path d="m128.609375 466.214844h-48.226563v-160.765625h48.226563c26.59375 0 48.230469 21.640625 48.230469 48.230469 0 12.347656-4.660156 23.617187-12.3125 32.152343 7.652344 8.539063 12.3125 19.808594 12.3125 32.152344 0 26.589844-21.636719 48.230469-48.230469 48.230469zm-16.074219-32.152344h16.074219c8.875 0 16.078125-7.203125 16.078125-16.078125s-7.203125-16.074219-16.078125-16.074219h-16.074219zm0-64.304688h16.074219c8.875 0 16.078125-7.203124 16.078125-16.078124s-7.203125-16.074219-16.078125-16.074219h-16.074219zm0 0"/></g></svg>