<svg height="514.44361pt" viewBox="0 0 514.44361 514.44361" width="514.44361pt" xmlns="http://www.w3.org/2000/svg"><path d="m409.945312 514.445312h-88.417968v-192.917968h128.609375v152.726562c0 22.199219-17.988281 40.191406-40.191407 40.191406zm0 0" fill="#44a79b"/><path d="m514.445312 450.136719h-321.527343v-450.136719h215.648437l105.878906 105.878906zm0 0" fill="#fdee93"/><path d="m192.917969 225.070312v225.066407h225.066406v-176.839844c0-26.636719-21.589844-48.226563-48.226563-48.226563zm0 0" fill="#f9dc26"/><path d="m369.757812 474.253906v-184.878906c0-17.765625-14.390624-32.152344-32.152343-32.152344h-120.011719l-64.304688-64.304687h-153.289062v273.296875c0 26.636718 21.589844 48.230468 48.230469 48.230468h353.679687v-.804687c-18.34375-3.730469-32.152344-19.953125-32.152344-39.386719zm0 0" fill="#4bc18f"/><path d="m514.445312 112.535156v-6.65625l-105.878906-105.878906h-6.65625v112.535156zm0 0" fill="#f2bc0e"/><g fill="#fff"><path d="m32.152344 241.144531h32.152344v32.152344h-32.152344zm0 0"/><path d="m32.152344 305.449219h32.152344v32.15625h-32.152344zm0 0"/></g></svg>