<svg height="514pt" viewBox="-1 0 514 514.34715" width="514pt" xmlns="http://www.w3.org/2000/svg"><path d="m321.699219 514.347656c-49.402344 0-98.804688-18.792968-136.40625-56.414062l-4.132813-4.128906c-115.878906-115.878907-180.988281-273.042969-180.988281-436.941407v-16.863281h16.867187c163.898438 0 321.058594 65.109375 436.953126 180.988281 75.03125 75.027344 79.175781 201.820313 4.195312 276.882813-37.632812 37.667968-87.050781 56.476562-136.488281 56.476562zm0 0" fill="#fdee93"/><path d="m482.464844 321.527344c0 88.789062-71.976563 160.761718-160.765625 160.761718-88.785157 0-160.761719-71.972656-160.761719-160.761718 0-88.789063 71.976562-160.765625 160.761719-160.765625 88.789062 0 160.765625 71.976562 160.765625 160.765625zm0 0" fill="#f9dc26"/><path d="m450.3125 321.527344c0 71.03125-57.582031 128.609375-128.613281 128.609375-71.027344 0-128.609375-57.578125-128.609375-128.609375s57.582031-128.609375 128.609375-128.609375c71.03125 0 128.613281 57.578125 128.613281 128.609375zm0 0" fill="#ff8475"/><path d="m257.394531 289.375h32.152344v32.152344h-32.152344zm0 0" fill="#fff"/><path d="m289.546875 353.679688h32.152344v32.152343h-32.152344zm0 0" fill="#fff"/><path d="m448.816406 302.941406c-4.035156-27.683594-16.800781-52.550781-35.5625-71.585937-8.308594-3.921875-17.472656-6.285157-27.246094-6.285157-35.464843 0-64.308593 28.839844-64.308593 64.304688s28.84375 64.304688 64.308593 64.304688c30.800782 0 56.554688-21.78125 62.808594-50.738282zm0 0" fill="#f85566"/><g fill="#f2bc0e"><path d="m262.058594 109.320312c0 4.179688-1.449219 8.359376-4.664063 11.414063-6.269531 6.269531-16.398437 6.269531-22.667969 0l-111.570312-111.570313c19.777344 3.535157 39.226562 7.875 58.519531 13.183594l75.71875 75.71875c3.214844 3.214844 4.664063 7.234375 4.664063 11.253906zm0 0"/><path d="m125.570312 245.96875c0 4.019531-1.609374 8.039062-4.664062 11.253906-6.269531 6.269532-16.398438 6.269532-22.667969 0l-75.71875-75.71875c-5.304687-19.292968-9.644531-38.746094-13.183593-58.519531l111.570312 111.570313c3.054688 3.054687 4.664062 7.234374 4.664062 11.414062zm0 0"/><path d="m160.9375 160.761719c6.269531-6.269531 6.269531-16.460938 0-22.730469l-138.03125-138.03125h-22.734375v22.730469l138.035156 138.03125c6.269531 6.273437 16.460938 6.273437 22.730469 0zm0 0"/></g></svg>