<svg height="505pt" viewBox="0 -4 505.03361 505" width="505pt" xmlns="http://www.w3.org/2000/svg"><path d="m80.304688 83.929688 30.90625-8.28125 16.566406 61.816406-30.910156 8.28125zm0 0" fill="#c7cce1"/><path d="m33.929688 96.355469c-2.289063-8.53125 2.785156-17.3125 11.3125-19.601563l92.734374-24.847656c8.527344-2.289062 17.3125 2.785156 19.601563 11.3125s-2.785156 17.3125-11.3125 19.597656l-92.734375 24.847656c-8.546875 2.289063-17.3125-2.78125-19.601562-11.308593zm0 0" fill="#515570"/><path d="m0 155.132812 231.816406-62.109374 33.125 123.632812-231.816406 62.113281zm0 0" fill="#f9dc26"/><g fill="#515570"><path d="m189.816406 485.078125 48.023438-112 29.410156 12.613281-48.023438 111.996094zm0 0"/><path d="m301.792969 385.683594 29.410156-12.605469 48 111.996094-29.410156 12.605469zm0 0"/><path d="m268.523438 235.394531h32v64h-32zm0 0"/></g><path d="m331.226562 373.089844-29.410156 12.609375 21.234375 49.550781c10.0625-4.433594 19.183594-10.558594 27.101563-18zm0 0" fill="#444863"/><path d="m218.890625 417.265625c7.902344 7.441406 17.039063 13.566406 27.101563 18l21.234374-49.550781-29.410156-12.609375zm0 0" fill="#444863"/><path d="m348.523438 347.394531c0 35.34375-28.65625 64-64 64-35.347657 0-64-28.65625-64-64 0-35.347656 28.652343-64 64-64 35.34375 0 64 28.652344 64 64zm0 0" fill="#f9dc26"/><path d="m284.523438 379.394531c-29.730469 0-54.578126-20.480469-61.730469-48-1.34375 5.152344-2.269531 10.449219-2.269531 16 0 35.296875 28.703124 64 64 64 35.292968 0 64-28.703125 64-64 0-5.550781-.929688-10.847656-2.273438-16-7.167969 27.519531-32 48-61.726562 48zm0 0" fill="#f2bc0e"/><path d="m264.9375 216.675781-33.121094-123.632812-61.824218 16.558593c13.890624 51.792969-16.863282 105.039063-68.65625 118.914063l-76.222657 20.414063 8 29.855468zm0 0" fill="#f2bc0e"/><path d="m192.609375 70.417969 262.722656-70.3906252 49.691407 185.4492182-262.726563 70.394532zm0 0" fill="#f85566"/><path d="m234.265625 225.824219 8.046875 30.035156 262.722656-70.402344-7.953125-29.695312zm0 0" fill="#c84f61"/><path d="m378.070312 20.722656 77.269532-20.707031 49.691406 185.453125-77.273438 20.703125zm0 0" fill="#f9dc26"/><path d="m409.203125 31.601562 31.101563-7.53125 7.535156 31.097657-31.101563 7.535156zm0 0" fill="#fff"/><path d="m419.757812 176.308594 77.273438-20.707032 8 29.859376-77.273438 20.703124zm0 0" fill="#f2bc0e"/></svg>