<svg height="514.44361pt" viewBox="0 0 514.44361 514.44361" width="514.44361pt" xmlns="http://www.w3.org/2000/svg"><path d="m498.367188 241.144531h-225.070313v-225.066406c0-8.875-7.199219-16.078125-16.074219-16.078125s-16.078125 7.203125-16.078125 16.078125v225.066406h-225.066406c-8.875 0-16.078125 7.203125-16.078125 16.078125s7.203125 16.074219 16.078125 16.074219h225.066406v225.070313c0 8.875 7.203125 16.078124 16.078125 16.078124s16.074219-7.203124 16.074219-16.078124v-225.070313h225.070313c8.875 0 16.078124-7.199219 16.078124-16.074219s-7.203124-16.078125-16.078124-16.078125zm0 0" fill="#366cb6"/><g fill="#35c9fc"><path d="m144.6875 208.992188h32.152344v96.457031h-32.152344zm0 0"/><path d="m48.230469 208.992188h32.152343v96.457031h-32.152343zm0 0"/><path d="m434.0625 208.992188h32.152344v96.457031h-32.152344zm0 0"/><path d="m208.992188 434.0625h96.457031v32.152344h-96.457031zm0 0"/><path d="m208.992188 48.230469h96.457031v32.152343h-96.457031zm0 0"/><path d="m337.605469 208.992188h32.152343v96.457031h-32.152343zm0 0"/><path d="m208.992188 337.605469h96.457031v32.152343h-96.457031zm0 0"/><path d="m208.992188 144.6875h96.457031v32.152344h-96.457031zm0 0"/></g><path d="m514.445312 192.917969c-19.339843 0-38.441406-2.863281-56.75-8.472657l9.453126-30.738281c15.238281 4.695313 31.15625 7.054688 47.296874 7.054688zm-89.144531-21.769531c-10.371093-5.417969-20.273437-11.800782-29.46875-18.984376l19.804688-25.335937c7.652343 5.980469 15.902343 11.300781 24.535156 15.800781zm-54.996093-42.90625c-31.464844-35.351563-48.777344-80.898438-48.777344-128.242188h32.152344c0 39.453125 14.421874 77.390625 40.640624 106.84375zm0 0" fill="#f9dc26"/><path d="m192.917969 514.445312h-32.15625c0-39.453124-14.417969-77.394531-40.640625-106.84375l24.019531-21.382812c31.460937 35.335938 48.777344 80.878906 48.777344 128.226562zm-94.113281-126.828124c-7.652344-5.980469-15.898438-11.300782-24.53125-15.804688l14.886718-28.5c10.367188 5.414062 20.273438 11.796875 29.46875 18.984375zm-51.507813-26.878907c-15.242187-4.695312-31.15625-7.058593-47.296875-7.058593v-32.152344c19.339844 0 38.4375 2.863281 56.75 8.472656zm0 0" fill="#f9dc26"/></svg>