<svg height="505.296pt" viewBox="0 0 505.296 505.296" width="505.296pt" xmlns="http://www.w3.org/2000/svg"><path d="m441.28125 505.28125c-17.089844 0-33.167969-6.65625-45.25-18.753906l-395.984375-395.96875 90.511719-90.511719 395.984375 395.984375c12.097656 12.082031 18.753906 28.160156 18.753906 45.25 0 17.085938-6.65625 33.167969-18.753906 45.246094-12.09375 12.097656-28.175781 18.753906-45.261719 18.753906zm0 0" fill="#35c9fc"/><path d="m486.527344 454.527344c-12.078125 12.097656-28.160156 18.753906-45.246094 18.753906-17.089844 0-33.167969-6.65625-45.25-18.753906l-379.984375-379.96875-16 16 395.984375 395.984375c12.082031 12.097656 28.160156 18.753906 45.25 18.753906 17.085938 0 33.167969-6.65625 45.246094-18.753906 12.097656-12.078125 18.753906-28.160157 18.753906-45.246094 0-5.503906-.929688-10.816406-2.257812-16-2.832032 10.925781-8.289063 21.039063-16.496094 29.230469zm0 0" fill="#00adfe"/><path d="m181.121094 90.558594-90.5625 90.5625-90.558594-90.5625 90.558594-90.558594 67.839844 67.839844zm0 0" fill="#515570"/><path d="m.046875 90.558594 15.996094-15.996094 90.542969 90.542969-15.996094 15.996093zm0 0" fill="#444863"/><path d="m339.519531 158.398438-22.71875 22.722656-101.761719-101.921875c-5.917968-5.757813-15.199218-6.238281-21.4375-1.121094l-1.121093 1.28125-11.359375 11.199219-90.5625 90.5625-22.71875-22.722656 90.558594-90.558594 11.363281-11.199219c18.71875-18.71875 49.117187-18.71875 67.839843 0zm0 0" fill="#c7cce1"/><path d="m67.867188 158.367188 15.996093-15.996094 22.71875 22.71875-16 15.996094zm0 0" fill="#9ca3c2"/><path d="m418.648438 441.28125 22.625-22.628906 22.628906 22.628906-22.628906 22.625zm0 0" fill="#fff"/></svg>