<svg height="514.44361pt" viewBox="0 0 514.44361 514.44361" width="514.44361pt" xmlns="http://www.w3.org/2000/svg"><path d="m434.0625 176.839844c0 97.667968-79.175781 176.839844-176.839844 176.839844-97.667968 0-176.839844-79.171876-176.839844-176.839844 0-97.664063 79.171876-176.839844 176.839844-176.839844 97.664063 0 176.839844 79.175781 176.839844 176.839844zm0 0" fill="#d89879"/><path d="m80.382812 176.839844c0 35.59375 10.65625 68.695312 28.808594 96.457031h296.046875c18.164063-27.761719 28.824219-60.863281 28.824219-96.457031 0-16.734375-2.492188-32.875-6.847656-48.230469h-339.984375c-4.355469 15.355469-6.847657 31.496094-6.847657 48.230469zm0 0" fill="#d18161"/><g fill="#e9f0f8"><path d="m337.605469 175.988281-32.15625-.226562c.339843-47.425781 19.179687-91.875 53.039062-125.167969l22.539063 22.921875c-27.71875 27.28125-43.132813 63.664063-43.421875 102.472656zm0 0"/><path d="m241.144531 16.078125h32.152344v176.839844h-32.152344zm0 0"/><path d="m176.839844 175.988281c-.289063-38.808593-15.707032-75.207031-43.421875-102.472656l22.539062-22.921875c33.855469 33.292969 52.683594 77.742188 53.035157 125.167969zm0 0"/></g><path d="m96.457031 514.445312c0-72.632812-13.679687-143.628906-40.640625-211.050781l-23.664062-59.164062v-51.3125h450.136718v51.3125l-23.664062 59.164062c-26.957031 67.421875-40.640625 138.417969-40.640625 211.050781zm0 0" fill="#c7cce1"/><path d="m176.839844 175.988281 32.152344-.226562c-.113282-16.1875-2.554688-31.976563-6.847657-47.152344h-33.730469c5.324219 15.050781 8.3125 30.964844 8.425782 47.378906zm0 0" fill="#c3d9ed"/><path d="m312.300781 128.609375c-4.292969 15.175781-6.738281 30.964844-6.851562 47.167969l32.15625.226562c.109375-16.429687 3.101562-32.34375 8.421875-47.394531zm0 0" fill="#c3d9ed"/><path d="m241.144531 128.609375h32.152344v64.308594h-32.152344zm0 0" fill="#c3d9ed"/><path d="m438.515625 363.519531-101.621094-152.421875-79.671875 132.777344-80.914062-134.867188-95.667969 172.179688c1.1875 4.902344 2.152344 9.855469 3.214844 14.773438l112.261719 112.246093 61.105468-101.84375 60.316406 100.523438 109.65625-93.996094c3.023438-16.609375 6.816407-33.070313 11.320313-49.371094zm-248.796875 92.855469-73.324219-73.339844 60.960938-109.753906 61.105469 101.828125zm86.25-81.265625 62.34375-103.917969 74.464844 111.699219-87.261719 74.789063zm0 0" fill="#9ca3c2"/><path d="m0 160.761719h514.445312v80.382812h-514.445312zm0 0" fill="#515570"/></svg>