<svg height="514pt" viewBox="0 -64 514.44361 514" width="514pt" xmlns="http://www.w3.org/2000/svg"><path d="m482.289062 386.054688h-450.136718c-17.765625 0-32.152344-14.386719-32.152344-32.152344v-321.527344c0-17.765625 14.386719-32.152344 32.152344-32.152344h450.136718c17.765626 0 32.15625 14.386719 32.15625 32.152344v321.527344c0 17.765625-14.390624 32.152344-32.15625 32.152344zm0 0" fill="#4bc18f"/><path d="m401.910156 386.054688h-96.460937c-26.636719 0-48.226563-21.589844-48.226563-48.230469 0-26.636719 21.589844-48.226563 48.226563-48.226563h96.460937c26.636719 0 48.226563 21.589844 48.226563 48.226563 0 26.640625-21.589844 48.230469-48.226563 48.230469zm0 0" fill="#d89879"/><path d="m401.910156 353.902344h-96.460937c-20.960938 0-38.628907-13.457032-45.269531-32.152344-1.800782 5.046875-2.957032 10.402344-2.957032 16.074219 0 26.640625 21.589844 48.230469 48.226563 48.230469h96.460937c26.636719 0 48.226563-21.589844 48.226563-48.230469 0-5.671875-1.15625-11.027344-2.957031-16.074219-6.640626 18.695312-24.308594 32.152344-45.269532 32.152344zm0 0" fill="#d18161"/><g fill="#fff"><path d="m144.6875 241.367188h-80.382812v-32.152344h48.230468v-96.457032h-48.230468v-32.152343h80.382812zm0 0"/><path d="m64.304688 144.910156h64.304687v32.152344h-64.304687zm0 0"/><path d="m385.832031 241.367188h-80.382812v-32.152344h48.230469v-96.457032h-48.230469v-32.152343h80.382812zm0 0"/><path d="m305.449219 144.910156h64.308593v32.152344h-64.308593zm0 0"/><path d="m176.839844 144.910156h96.457031v32.152344h-96.457031zm0 0"/><path d="m208.992188 112.757812h32.152343v96.457032h-32.152343zm0 0"/><path d="m417.984375 112.757812h32.152344v32.152344h-32.152344zm0 0"/><path d="m417.984375 177.0625h32.152344v32.152344h-32.152344zm0 0"/></g></svg>