<svg height="514pt" viewBox="-48 0 514 514.44361" width="514pt" xmlns="http://www.w3.org/2000/svg"><path d="m418.207031 514.445312h-369.757812c-26.636719 0-48.226563-21.59375-48.226563-48.230468v-385.832032h417.984375zm0 0" fill="#ff8475"/><path d="m418.207031 160.761719h-337.601562c-44.324219 0-80.382813-36.058594-80.382813-80.378907 0-44.324218 36.058594-80.382812 80.382813-80.382812h337.601562zm0 0" fill="#f9dc26"/><path d="m418.207031 96.457031h-321.527343c-8.875 0-16.074219-7.199219-16.074219-16.074219s7.199219-16.078124 16.074219-16.078124h321.527343zm0 0" fill="#f2bc0e"/><g fill="#fff"><path d="m80.605469 225.070312c-26.59375 0-48.230469 21.636719-48.230469 48.226563v112.535156h32.152344v-32.152343h32.152344v32.152343h32.152343v-112.535156c0-26.589844-21.636719-48.226563-48.226562-48.226563zm-16.078125 96.457032v-48.230469c0-8.855469 7.21875-16.074219 16.078125-16.074219 8.855469 0 16.074219 7.21875 16.074219 16.074219v48.230469zm0 0"/><path d="m337.824219 385.832031c-26.589844 0-48.226563-21.636719-48.226563-48.226562v-64.308594c0-26.589844 21.636719-48.226563 48.226563-48.226563 26.589843 0 48.230469 21.636719 48.230469 48.226563v16.078125h-32.152344v-16.078125c0-8.855469-7.21875-16.074219-16.078125-16.074219-8.855469 0-16.074219 7.21875-16.074219 16.074219v64.308594c0 8.855469 7.21875 16.074219 16.074219 16.074219 8.859375 0 16.078125-7.21875 16.078125-16.074219v-16.078125h32.152344v16.078125c0 26.589843-21.640626 48.226562-48.230469 48.226562zm0 0"/><path d="m209.214844 385.832031h-48.230469v-160.761719h48.230469c26.589844 0 48.230468 21.636719 48.230468 48.226563 0 12.347656-4.664062 23.617187-12.316406 32.152344 7.652344 8.539062 12.316406 19.808593 12.316406 32.15625 0 26.589843-21.640624 48.226562-48.230468 48.226562zm-16.078125-32.152343h16.078125c8.859375 0 16.074218-7.21875 16.074218-16.074219 0-8.859375-7.214843-16.078125-16.074218-16.078125h-16.078125zm0-64.304688h16.078125c8.859375 0 16.074218-7.21875 16.074218-16.078125 0-8.855469-7.214843-16.074219-16.074218-16.074219h-16.078125zm0 0"/><path d="m144.910156 434.0625h32.152344v32.152344h-32.152344zm0 0"/><path d="m209.214844 434.0625h32.152344v32.152344h-32.152344zm0 0"/><path d="m273.519531 434.0625h32.152344v32.152344h-32.152344zm0 0"/></g></svg>