<svg height="514pt" viewBox="0 0 514 514.44362" width="514pt" xmlns="http://www.w3.org/2000/svg"><path d="m418.207031 514.445312h-337.601562c-44.390625 0-80.382813-35.996093-80.382813-80.382812v-353.679688h417.984375zm0 0" fill="#4bc18f"/><path d="m418.207031 160.761719h-337.601562c-44.324219 0-80.382813-36.058594-80.382813-80.378907 0-44.324218 36.058594-80.382812 80.382813-80.382812h337.601562zm0 0" fill="#fdee93"/><path d="m402.132812 192.917969c-79.773437 0-144.6875 64.914062-144.6875 144.6875 0 41.28125 17.761719 80.414062 48.226563 107.726562v69.113281h112.535156v-320.582031c-5.289062-.59375-10.640625-.945312-16.074219-.945312zm0 0" fill="#44a79b"/><path d="m466.4375 450.136719h-128.613281v-20.285157c-29.964844-20.933593-48.226563-55.480468-48.226563-92.246093 0-62.054688 50.476563-112.535157 112.535156-112.535157 62.054688 0 112.53125 50.480469 112.53125 112.535157 0 36.78125-18.261718 71.3125-48.226562 92.246093zm0 0" fill="#f9dc26"/><path d="m450.359375 353.679688h-96.457031c-8.875 0-16.078125 7.203124-16.078125 16.078124 0 8.871094 7.203125 16.074219 16.078125 16.074219h32.152344v64.304688h32.152343v-64.304688h32.152344c8.875 0 16.078125-7.203125 16.078125-16.074219 0-8.875-7.203125-16.078124-16.078125-16.078124zm0 0" fill="#f2bc0e"/><path d="m418.207031 96.457031h-321.527343c-8.875 0-16.074219-7.199219-16.074219-16.074219s7.199219-16.078124 16.074219-16.078124h321.527343zm0 0" fill="#f9dc26"/><path d="m337.824219 429.851562h128.613281v84.59375h-128.613281zm0 0" fill="#366cb6"/><g fill="#fff"><path d="m32.375 192.917969h32.152344v32.152343h-32.152344zm0 0"/><path d="m32.375 257.222656h32.152344v32.152344h-32.152344zm0 0"/></g></svg>