<svg height="514.44361pt" viewBox="0 0 514.44361 514.44361" width="514.44361pt" xmlns="http://www.w3.org/2000/svg"><path d="m450.136719 144.6875v176.839844h-32.152344v-176.839844c0-26.527344-21.703125-48.230469-48.226563-48.230469h-32.152343v-32.152343h32.152343c44.371094 0 80.378907 36.011718 80.378907 80.382812zm0 0" fill="#c7cce1"/><path d="m192.917969 321.527344h-32.15625c0-17.730469-14.417969-32.152344-32.152344-32.152344h-128.609375v-289.375h128.609375c19.179687 0 36.445313 8.441406 48.230469 21.816406 11.785156-13.375 29.050781-21.816406 48.230468-21.816406h128.609376v289.375h-128.609376c-17.734374 0-32.152343 14.421875-32.152343 32.152344zm0 0" fill="#fdee93"/><path d="m434.0625 514.445312c-44.324219 0-80.382812-36.0625-80.382812-80.382812v-64.304688c0-44.324218 36.058593-80.382812 80.382812-80.382812 44.320312 0 80.382812 36.058594 80.382812 80.382812v64.304688c0 44.320312-36.0625 80.382812-80.382812 80.382812zm0 0" fill="#35c9fc"/><path d="m434.0625 482.289062c-44.324219 0-80.382812-36.058593-80.382812-80.378906v32.152344c0 44.320312 36.058593 80.382812 80.382812 80.382812 44.320312 0 80.382812-36.0625 80.382812-80.382812v-32.152344c0 44.320313-36.0625 80.378906-80.382812 80.378906zm0 0" fill="#00adfe"/><g fill="#f2bc0e"><path d="m96.457031 96.457031h-32.152343c-8.875 0-16.074219-7.199219-16.074219-16.074219s7.199219-16.078124 16.074219-16.078124h32.152343c8.875 0 16.078125 7.203124 16.078125 16.078124s-7.203125 16.074219-16.078125 16.074219zm0 0"/><path d="m96.457031 160.761719h-32.152343c-8.875 0-16.074219-7.199219-16.074219-16.074219s7.199219-16.078125 16.074219-16.078125h32.152343c8.875 0 16.078125 7.203125 16.078125 16.078125s-7.203125 16.074219-16.078125 16.074219zm0 0"/><path d="m289.375 96.457031h-32.152344c-8.875 0-16.078125-7.199219-16.078125-16.074219s7.203125-16.078124 16.078125-16.078124h32.152344c8.875 0 16.074219 7.203124 16.074219 16.078124s-7.199219 16.074219-16.074219 16.074219zm0 0"/><path d="m289.375 160.761719h-32.152344c-8.875 0-16.078125-7.199219-16.078125-16.074219s7.203125-16.078125 16.078125-16.078125h32.152344c8.875 0 16.074219 7.203125 16.074219 16.078125s-7.199219 16.074219-16.074219 16.074219zm0 0"/></g><path d="m225.070312 225.070312c-11.785156 0-22.652343 3.472657-32.152343 9.035157v-225.070313c-5.980469 3.488282-11.527344 7.621094-16.078125 12.78125-4.550782-5.160156-10.097656-9.292968-16.078125-12.78125v225.070313c-9.5-5.5625-20.367188-9.035157-32.152344-9.035157h-128.609375v64.304688h128.609375c17.734375 0 32.152344 14.421875 32.152344 32.152344h32.15625c0-17.730469 14.417969-32.152344 32.152343-32.152344h128.609376v-64.304688zm0 0" fill="#f9dc26"/><path d="m450.136719 291v78.757812c0 17.761719 14.390625 32.152344 32.152343 32.152344h32.15625v-32.152344c0-38.808593-27.667968-71.285156-64.308593-78.757812zm0 0" fill="#00adfe"/><path d="m417.984375 291c-36.636719 7.472656-64.304687 39.933594-64.304687 78.757812v32.152344h32.152343c17.765625 0 32.152344-14.390625 32.152344-32.152344zm0 0" fill="#00adfe"/></svg>