<svg height="514.44361pt" viewBox="0 0 514.44361 514.44361" width="514.44361pt" xmlns="http://www.w3.org/2000/svg"><path d="m337.605469 514.445312h-160.765625v-16.078124c0-8.875-7.203125-16.078126-16.078125-16.078126h-128.609375c-17.765625 0-32.152344-14.386718-32.152344-32.152343v-321.527344c0-17.761719 14.386719-32.152344 32.152344-32.152344h450.136718c17.765626 0 32.15625 14.390625 32.15625 32.152344v321.527344c0 17.765625-14.390624 32.152343-32.15625 32.152343h-128.609374c-8.875 0-16.074219 7.203126-16.074219 16.078126zm0 0" fill="#35c9fc"/><path d="m273.296875 450.136719h-32.152344c0-17.730469-14.417969-32.152344-32.152343-32.152344h-144.6875v-353.679687h144.6875c19.179687 0 36.445312 8.441406 48.230468 21.816406 11.78125-13.375 29.050782-21.816406 48.226563-21.816406h144.6875v353.679687h-144.6875c-17.730469 0-32.152344 14.421875-32.152344 32.152344zm0 0" fill="#fdee93"/><path d="m208.992188 64.304688h-112.535157v257.222656h48.230469c35.464844 0 64.304688 28.839844 64.304688 64.304687v16.078125h48.230468v-315.789062c-11.785156-13.375-29.050781-21.816406-48.230468-21.816406zm0 0" fill="#f9dc26"/><path d="m385.832031 96.457031h32.152344v32.152344h-32.152344zm0 0" fill="#fff"/><path d="m385.832031 160.761719h32.152344v32.15625h-32.152344zm0 0" fill="#fff"/><path d="m257.222656 385.832031c0-14.226562 6.269532-26.878906 16.074219-35.703125v-276.789062c-5.980469 3.488281-16.074219 12.78125-16.074219 12.78125-11.785156-13.375-29.050781-21.816406-48.230468-21.816406h-144.6875v273.300781h144.6875c26.640624 0 48.230468 21.589843 48.230468 48.226562zm0 0" fill="#f9dc26"/><path d="m257.222656 385.832031c0-53.195312-75.414062-96.457031-128.613281-96.457031h-16.074219v-289.375h48.226563c53.277343 0 96.460937 43.179688 96.460937 96.457031zm0 0" fill="#fdee93"/><path d="m305.449219 337.605469c-26.636719 0-48.226563 21.589843-48.226563 48.226562 0-26.636719-21.589844-48.226562-48.230468-48.226562h-144.6875v80.378906h144.6875c17.734374 0 32.152343 14.421875 32.152343 32.152344h32.152344c0-17.730469 14.421875-32.152344 32.152344-32.152344h144.6875v-80.378906zm0 0" fill="#f2bc0e"/></svg>