<svg height="514pt" viewBox="0 -1 514.44361 514" width="514pt" xmlns="http://www.w3.org/2000/svg"><path d="m482.289062.222656v139.058594l-179.25 27.492188-45.816406 7.074218-45.820312-7.074218 45.820312-28.132813zm0 0" fill="#c7cce1"/><path d="m303.039062 166.773438-45.816406 7.074218-45.820312-7.074218-179.25-27.492188v-139.058594l225.070312 138.417969zm0 0" fill="#c7cce1"/><path d="m287.542969 511.289062-60.625-.402343-201.824219-45.464844c-14.675781-3.308594-25.09375-16.332031-25.09375-31.363281v-304.46875c0-20.675782 19.226562-35.980469 39.386719-31.335938l187.515625 43.277344h60.625l187.527344-43.277344c20.160156-4.644531 39.390624 10.660156 39.390624 31.335938v304.5c0 15.015625-10.386718 28.039062-25.03125 31.351562zm0 0" fill="#ff8475"/><path d="m287.542969 141.53125h-60.640625v369.355469l60.640625.402343zm0 0" fill="#f85566"/><g fill="#fff"><path d="m109.335938 362.597656-49.050782-11.285156c-8.648437-1.992188-14.050781-10.625-12.054687-19.273438 1.992187-8.648437 10.625-14.050781 19.273437-12.058593l49.050782 11.285156c8.648437 1.976563 14.050781 10.609375 12.054687 19.261719-1.992187 8.664062-10.625 14.050781-19.273437 12.070312zm0 0"/><path d="m109.335938 436.148438-49.050782-11.285157c-8.648437-1.992187-14.050781-10.625-12.054687-19.292969 1.992187-8.648437 10.625-14.050781 19.273437-12.054687l49.050782 11.285156c8.648437 1.992188 14.050781 10.625 12.054687 19.289063-1.992187 8.652344-10.625 14.035156-19.273437 12.058594zm0 0"/><path d="m450.136719 157.609375h32.152343v32.152344h-32.152343zm0 0"/><path d="m450.136719 221.914062h32.152343v32.152344h-32.152343zm0 0"/></g></svg>