<svg height="514pt" viewBox="0 -68 514.44361 514" width="514pt" xmlns="http://www.w3.org/2000/svg"><g fill="#f9dc26"><path d="m332.476562 325.042969-18.648437-26.1875 45.171875-32.152344c63.96875-50.511719 84.753906-138.257813 49.902344-212.898437l29.144531-13.601563c41.191406 88.226563 16.609375 191.9375-59.769531 252.207031zm0 0"/><path d="m304.003906 319.628906-29.257812-13.328125 16.074218-35.304687c24.339844-42.28125 30.59375-89.929688 18.390626-135.554688-12.230469-45.625-41.492188-83.757812-82.40625-107.375l16.078124-27.84375c48.355469 27.90625 82.921876 72.984375 97.390626 126.90625 14.433593 53.917969 7.039062 110.234375-20.882813 158.59375zm0 0"/><path d="m273.296875 312.972656h-32.152344v-48.230468c0-97.503907-79.335937-176.839844-176.839843-176.839844v-32.152344c115.234374 0 208.992187 93.757812 208.992187 208.992188zm0 0"/><path d="m210.441406 319.628906-16.078125-35.304687c-35.320312-61.027344-104.867187-95.125-176.132812-85.496094l-4.308594-31.863281c84.351563-11.285156 166.421875 28.921875 208.992187 102.664062l16.785157 36.6875zm0 0"/><path d="m514.445312 377.277344h-225.070312v-16.078125c0-17.730469-14.421875-32.152344-32.152344-32.152344-17.734375 0-32.152344 14.421875-32.152344 32.152344v16.078125h-225.070312v-96.457032h514.445312zm0 0"/></g><path d="m340.769531 312.972656c-7.554687-13.105468-18.148437-23.972656-30.574219-32.152344h-105.960937c-12.425781 8.179688-23.023437 19.046876-30.578125 32.152344h-173.65625v64.304688h225.070312v-16.078125c0-17.730469 14.417969-32.152344 32.152344-32.152344 17.730469 0 32.152344 14.421875 32.152344 32.152344v16.078125h225.070312v-64.304688zm0 0" fill="#f2bc0e"/><path d="m514.445312 377.277344h-225.070312v-16.078125c0-17.730469-14.421875-32.152344-32.152344-32.152344-17.734375 0-32.152344 14.421875-32.152344 32.152344v16.078125h-225.070312v-32.152344h194.957031c7.140625-27.699219 32.363281-48.230469 62.265625-48.230469s55.125 20.53125 62.261719 48.230469h194.960937zm0 0" fill="#366cb6"/></svg>