<svg height="514.44361pt" viewBox="0 0 514.44361 514.44361" width="514.44361pt" xmlns="http://www.w3.org/2000/svg"><path d="m417.984375 80.382812v434.0625h-337.601563c-44.371093 0-80.382812-36.011718-80.382812-80.382812v-353.679688zm0 0" fill="#366cb6"/><path d="m417.984375 80.382812v434.0625h-95.976563c-10.289062-13.503906-16.558593-30.066406-16.558593-48.230468v-134.238282c-47.90625-27.972656-80.378907-79.738281-80.378907-139.058593 0-43.890625 17.523438-83.597657 45.976563-112.535157zm0 0" fill="#215faa"/><path d="m417.984375 160.761719h-337.601563c-44.324218 0-80.382812-36.058594-80.382812-80.378907 0-44.324218 36.058594-80.382812 80.382812-80.382812h337.601563zm0 0" fill="#e9f0f8"/><path d="m228.316406 160.761719h189.667969v-125.363281c-10.382813-2.121094-21.140625-3.246094-32.152344-3.246094-77.632812 0-142.582031 55.320312-157.515625 128.609375zm0 0" fill="#c3d9ed"/><path d="m417.984375 96.457031h-321.527344c-8.871093 0-16.074219-7.199219-16.074219-16.074219s7.203126-16.078124 16.074219-16.078124h321.527344zm0 0" fill="#c3d9ed"/><path d="m385.832031 514.445312c-26.589843 0-48.226562-21.640624-48.226562-48.230468v-176.839844h96.457031v176.839844c0 26.589844-21.640625 48.230468-48.230469 48.230468zm0 0" fill="#c7cce1"/><path d="m337.605469 346.269531c15.238281 4.804688 31.425781 7.410157 48.226562 7.410157s32.988281-2.605469 48.230469-7.410157v-56.894531h-96.457031zm0 0" fill="#9ca3c2"/><path d="m514.445312 192.917969c0 71.027343-57.582031 128.609375-128.613281 128.609375-71.027343 0-128.609375-57.582032-128.609375-128.609375 0-71.03125 57.582032-128.613281 128.609375-128.613281 71.03125 0 128.613281 57.582031 128.613281 128.613281zm0 0" fill="#35c9fc"/><g fill="#fff"><path d="m401.910156 257.222656h-32.152344v-32.152344h32.152344zm0-64.304687h-32.152344v-64.308594h32.152344zm0 0"/><path d="m80.382812 450.136719h32.152344v32.152343h-32.152344zm0 0"/><path d="m144.6875 450.136719h32.152344v32.152343h-32.152344zm0 0"/></g></svg>