<svg height="514pt" viewBox="-48 0 514 514.44361" width="514pt" xmlns="http://www.w3.org/2000/svg"><path d="m418.207031 514.445312h-337.601562c-44.390625 0-80.382813-35.996093-80.382813-80.382812v-353.679688h417.984375zm0 0" fill="#35c9fc"/><path d="m418.207031 160.761719h-337.601562c-44.324219 0-80.382813-36.058594-80.382813-80.378907 0-44.324218 36.058594-80.382812 80.382813-80.382812h337.601562zm0 0" fill="#e9f0f8"/><path d="m373.789062 289.375-46.414062-80.382812h-92.808594l-37.121094 64.304687h-74.253906l-46.414062 80.382813 46.414062 80.382812h92.808594l37.117188-64.304688h74.242187zm-176.34375 112.535156h-55.6875l-27.84375-48.230468 27.84375-48.230469h55.6875l27.84375 48.230469zm55.691407-64.304687-27.847657-48.230469 27.847657-48.230469h55.6875l27.84375 48.230469-27.84375 48.230469zm0 0" fill="#fff"/><path d="m418.207031 96.457031h-321.527343c-8.875 0-16.074219-7.199219-16.074219-16.074219s7.199219-16.078124 16.074219-16.078124h321.527343zm0 0" fill="#c3d9ed"/><g fill="#fff"><path d="m289.597656 450.136719h32.152344v32.152343h-32.152344zm0 0"/><path d="m353.902344 450.136719h32.152344v32.152343h-32.152344zm0 0"/></g></svg>