<svg height="514pt" viewBox="0 -5 514.44361 514" width="514pt" xmlns="http://www.w3.org/2000/svg"><path d="m482.289062.222656v139.058594l-179.25 27.492188-45.816406 7.074218-45.820312-7.074218 45.820312-28.132813zm0 0" fill="#f9dc26"/><path d="m303.039062 166.773438-45.816406 7.074218-45.820312-7.074218-179.25-27.492188v-139.058594l225.070312 138.417969zm0 0" fill="#f9dc26"/><path d="m257.222656 503.574219-231.371094-46.285157c-15.03125-3.007812-25.851562-16.1875-25.851562-31.527343v-296.769531c0-20.285157 18.566406-35.511719 38.453125-31.523438l218.769531 43.742188 218.765625-43.742188c19.886719-3.988281 38.457031 11.238281 38.457031 31.523438v296.769531c0 15.320312-10.820312 28.519531-25.851562 31.527343zm0 0" fill="#ff8475"/><path d="m257.222656 141.210938v362.363281l231.371094-46.285157c15.03125-3.007812 25.851562-16.1875 25.851562-31.527343v-296.769531c0-20.285157-18.570312-35.511719-38.457031-31.523438zm0 0" fill="#f85566"/><path d="m189.765625 424.507812-112.535156-22.503906c-7.523438-1.511718-12.925781-8.121094-12.925781-15.773437v-75.894531c0-10.144532 9.277343-17.75 19.226562-15.773438l112.535156 22.507812c7.523438 1.511719 12.925782 8.101563 12.925782 15.769532v75.898437c0 10.144531-9.277344 17.75-19.226563 15.769531zm0 0" fill="#fdee93"/><g fill="#fff"><path d="m461.761719 404.574219h20.527343v20.53125h-20.527343zm0 0"/><path d="m462.019531 356.34375h20.527344v20.53125h-20.527344zm0 0"/></g></svg>