<svg height="514pt" viewBox="0 -32 514.44361 514" width="514pt" xmlns="http://www.w3.org/2000/svg"><path d="m434.0625 289.597656h-434.0625v-160.765625h434.0625c44.320312 0 80.382812 36.058594 80.382812 80.382813 0 44.320312-36.0625 80.382812-80.382812 80.382812zm0 0" fill="#366cb6"/><path d="m434.0625 225.289062h-434.0625v-32.152343h434.0625c8.875 0 16.074219 7.203125 16.074219 16.078125s-7.199219 16.074218-16.074219 16.074218zm0 0" fill="#215faa"/><path d="m514.445312 450.359375h-369.757812c-44.324219 0-80.382812-36.058594-80.382812-80.382813 0-44.320312 36.058593-80.378906 80.382812-80.378906h369.757812zm0 0" fill="#4bc18f"/><path d="m514.445312 386.054688h-369.757812c-8.875 0-16.078125-7.203126-16.078125-16.078126 0-8.871093 7.203125-16.074218 16.078125-16.074218h369.757812zm0 0" fill="#44a79b"/><path d="m289.375 351.796875-64.304688-42.875-64.308593 42.875v-158.660156h128.613281zm0 0" fill="#f9dc26"/><path d="m401.910156 128.832031h-337.605468c-35.464844 0-64.304688-28.839843-64.304688-64.304687s28.839844-64.304688 64.304688-64.304688h337.605468zm0 0" fill="#35c9fc"/><path d="m64.304688.222656c-35.464844 0-64.304688 28.839844-64.304688 64.304688 0 5.578125.933594 10.898437 2.28125 16.078125 7.1875-27.652344 32.136719-48.230469 62.023438-48.230469h337.605468v-32.152344zm0 0" fill="#00adfe"/><g fill="#fff"><path d="m321.527344 48.449219h32.152344v32.15625h-32.152344zm0 0"/><path d="m257.222656 48.449219h32.152344v32.15625h-32.152344zm0 0"/></g></svg>