<svg height="514.44361pt" viewBox="0 0 514.44361 514.44361" width="514.44361pt" xmlns="http://www.w3.org/2000/svg"><path d="m337.605469 64.304688h144.683593v321.527343h-144.683593zm0 0" fill="#35c9fc"/><path d="m337.605469 64.304688h64.304687v321.527343h-64.304687zm0 0" fill="#00adfe"/><path d="m337.605469 128.609375h144.683593v192.917969h-144.683593zm0 0" fill="#fdee93"/><path d="m337.605469 128.609375h64.304687v192.917969h-64.304687zm0 0" fill="#f9dc26"/><path d="m208.992188 0h160.765624v385.832031h-160.765624zm0 0" fill="#fdee93"/><path d="m208.992188 64.304688h160.765624v257.222656h-160.765624zm0 0" fill="#f85566"/><path d="m208.992188 64.304688h64.304687v321.527343h-64.304687zm0 0" fill="#f9dc26"/><path d="m208.992188 64.304688h64.304687v257.222656h-64.304687zm0 0" fill="#c84f61"/><path d="m128.609375 96.457031h112.535156v289.375h-112.535156zm0 0" fill="#366cb6"/><path d="m128.609375 96.457031h112.535156v80.382813h-112.535156zm0 0" fill="#fdee93"/><path d="m128.609375 96.457031h64.308594v289.375h-64.308594zm0 0" fill="#215faa"/><path d="m273.296875 144.6875h32.152344v32.152344h-32.152344zm0 0" fill="#fff"/><path d="m273.296875 208.992188h32.152344v32.152343h-32.152344zm0 0" fill="#fff"/><path d="m128.609375 96.457031h64.308594v80.382813h-64.308594zm0 0" fill="#f9dc26"/><path d="m32.152344 32.152344h128.609375v353.679687h-128.609375zm0 0" fill="#4bc18f"/><path d="m32.152344 257.222656h128.609375v64.304688h-128.609375zm0 0" fill="#fdee93"/><path d="m80.382812 434.0625h32.152344v80.382812h-32.152344zm0 0" fill="#c7cce1"/><path d="m401.910156 434.0625h32.152344v80.382812h-32.152344zm0 0" fill="#c7cce1"/><path d="m0 353.679688h514.445312v96.457031h-514.445312zm0 0" fill="#d89879"/><path d="m0 417.984375h514.445312v32.152344h-514.445312zm0 0" fill="#d18161"/></svg>