<svg height="512pt" viewBox="0 -3 512 512" width="512pt" xmlns="http://www.w3.org/2000/svg"><path d="m480 368h-448c-17.679688 0-32-14.320312-32-32v-304c0-17.679688 14.320312-32 32-32h448c17.679688 0 32 14.320312 32 32v304c0 17.679688-14.320312 32-32 32zm0 0" fill="#fdee93"/><path d="m464 505.886719-80-40-80 40v-185.886719h160zm0 0" fill="#44a79b"/><path d="m384 384c-14.191406 0-27.871094-5.953125-37.566406-16.304688-3.839844-4.109374-9.34375-6.351562-14.867188-6.160156-13.742187.289063-28.0625-5.007812-38.09375-15.039062s-15.519531-23.921875-15.007812-38.097656c.191406-5.597657-2.066406-11.007813-6.160156-14.847657-10.367188-9.679687-16.304688-23.359375-16.304688-37.550781s5.9375-27.871094 16.320312-37.566406c4.09375-3.839844 6.335938-9.25 6.160157-14.847656-.496094-14.160157 4.992187-28.050782 15.007812-38.082032 10.03125-10.046875 23.984375-15.425781 38.113281-15.039062 6.0625.238281 11.007813-2.066406 14.847657-6.160156 9.679687-10.351563 23.359375-16.304688 37.550781-16.304688s27.871094 5.953125 37.566406 16.304688c3.824219 4.09375 9.234375 6.269531 14.867188 6.160156 13.773437-.402344 28.0625 4.992187 38.09375 15.039062 10.03125 10.03125 15.519531 23.921875 15.007812 38.097656-.191406 5.597657 2.066406 11.007813 6.160156 14.847657 10.367188 9.679687 16.304688 23.359375 16.304688 37.550781s-5.9375 27.871094-16.320312 37.566406c-4.09375 3.839844-6.335938 9.25-6.160157 14.847656.496094 14.160157-4.992187 28.050782-15.007812 38.082032s-23.886719 15.34375-38.113281 15.039062c-6.0625-.144531-11.007813 2.066406-14.847657 6.160156-9.679687 10.351563-23.359375 16.304688-37.550781 16.304688zm0 0" fill="#4bc18f"/><path d="m448 256c0 35.347656-28.652344 64-64 64s-64-28.652344-64-64 28.652344-64 64-64 64 28.652344 64 64zm0 0" fill="#f9dc26"/><g fill="#f2bc0e"><path d="m128 64h192v32h-192zm0 0"/><path d="m32 144h192v32h-192zm0 0"/><path d="m32 208h160v32h-160zm0 0"/><path d="m192 304h-32v-32h32zm-64 0h-96v-32h96zm0 0"/></g><path d="m368 240h32v32h-32zm0 0" fill="#fff"/></svg>