<svg height="512pt" viewBox="0 -51 512 512" width="512pt" xmlns="http://www.w3.org/2000/svg"><path d="m0 222.128906v-156.257812c0-19.070313 16.574219-33.902344 35.535156-31.808594l140.464844 15.617188v188.640624l-140.464844 15.601563c-18.960937 2.109375-35.535156-12.722656-35.535156-31.792969zm0 0" fill="#4bc18f"/><path d="m476.464844 253.921875-140.464844-15.601563v-188.640624l140.464844-15.601563c18.960937-2.109375 35.535156 12.722656 35.535156 31.792969v156.242187c0 19.085938-16.574219 33.917969-35.535156 31.808594zm0 0" fill="#4bc18f"/><path d="m336 409.886719-80-40-80 40v-185.886719h160zm0 0" fill="#366cb6"/><path d="m176 292.351562c5.808594 1.234376 11.726562 1.9375 17.710938 2 16.480468 16.335938 39.007812 25.648438 62.289062 25.648438 23.296875 0 45.808594-9.3125 62.289062-25.632812 5.96875-.015626 11.902344-.703126 17.710938-1.933594v-68.433594h-160zm0 0" fill="#215faa"/><path d="m336 238.320312 60.769531 6.75c5.964844-12.03125 9.535157-25.214843 9.582031-38.78125 16.351563-16.496093 25.648438-39.007812 25.648438-62.289062 0-23.296875-9.3125-45.808594-25.648438-62.289062-.0625-13.582032-3.632812-26.765626-9.597656-38.78125l-60.753906 6.75zm0 0" fill="#44a79b"/><path d="m105.648438 81.710938c-16.351563 16.496093-25.648438 39.007812-25.648438 62.289062 0 23.296875 9.3125 45.808594 25.648438 62.289062.0625 13.582032 3.632812 26.765626 9.597656 38.78125l60.753906-6.75v-188.640624l-60.769531-6.75c-5.964844 12.03125-9.535157 25.214843-9.582031 38.78125zm0 0" fill="#44a79b"/><path d="m256 288c-15.601562 0-30.625-6.527344-41.265625-17.921875-4.832031-5.148437-11.582031-7.980469-18.703125-7.742187-15.183594.433593-30.832031-5.503907-41.855469-16.527344-11.007812-11.007813-17.023437-26.273438-16.496093-41.839844.242187-7.058594-2.589844-13.871094-7.742188-18.703125-11.410156-10.640625-17.9375-25.679687-17.9375-41.265625s6.527344-30.625 17.921875-41.265625c5.148437-4.832031 7.980469-11.644531 7.742187-18.71875-.527343-15.566406 5.488282-30.816406 16.511719-41.824219 11.023438-11.023437 26.351563-17.121094 41.839844-16.527344 7.054687.273438 13.886719-2.574218 18.71875-7.742187 10.640625-11.378906 25.664063-17.921875 41.265625-17.921875 15.585938 0 30.625 6.527344 41.265625 17.921875 4.832031 5.167969 11.742187 8.046875 18.703125 7.742187 15.183594-.703124 30.816406 5.488282 41.855469 16.527344 11.007812 11.007813 17.023437 26.273438 16.496093 41.839844-.242187 7.058594 2.589844 13.871094 7.742188 18.703125 11.394531 10.640625 17.921875 25.679687 17.921875 41.265625s-6.527344 30.625-17.921875 41.265625c-5.152344 4.832031-7.984375 11.644531-7.742188 18.71875.527344 15.566406-5.488281 30.816406-16.496093 41.824219-11.007813 11.023437-26.304688 17.121094-41.839844 16.527344-7.007813-.144532-13.871094 2.59375-18.71875 7.742187-10.640625 11.394531-25.664063 17.921875-41.265625 17.921875zm0 0" fill="#f9dc26"/><path d="m320 144c0 35.347656-28.652344 64-64 64s-64-28.652344-64-64 28.652344-64 64-64 64 28.652344 64 64zm0 0" fill="#366cb6"/><path d="m240 128h32v32h-32zm0 0" fill="#fff"/></svg>