<svg height="512pt" viewBox="-48 0 512 512" width="512pt" xmlns="http://www.w3.org/2000/svg"><path d="m384 512h-288c-17.679688 0-32-14.320312-32-32v-416h320c17.679688 0 32 14.320312 32 32v384c0 17.679688-14.320312 32-32 32zm0 0" fill="#f2bc0e"/><path d="m320 448h-288c-17.679688 0-32-14.320312-32-32v-310.625l105.375-105.375h214.625c17.679688 0 32 14.320312 32 32v384c0 17.679688-14.320312 32-32 32zm0 0" fill="#fdee93"/><path d="m112 0h-6.625l-105.375 105.375v6.625h112zm0 0" fill="#f9dc26"/><path d="m288 493.902344-64-42.671875-64 42.671875v-173.902344h128zm0 0" fill="#515570"/><path d="m160 382.6875c18.847656 10.945312 40.671875 17.3125 64 17.3125s45.152344-6.367188 64-17.3125v-62.6875h-128zm0 0" fill="#444863"/><path d="m320 272c0 53.019531-42.980469 96-96 96s-96-42.980469-96-96 42.980469-96 96-96 96 42.980469 96 96zm0 0" fill="#4bc18f"/><path d="m240 224h32v32h-32zm0 0" fill="#fff"/></svg>