<svg height="504pt" viewBox="0 0 504 504.17081" width="504pt" xmlns="http://www.w3.org/2000/svg"><path d="m401.269531 401.1875-102.46875-20.484375h-93.277343l-102.46875 20.484375 20.496093-102.457031v-93.289063l-20.496093-102.457031 102.46875 20.5h93.277343l102.46875-20.5-20.496093 102.457031v93.289063zm0 0" fill="#f9dc26"/><path d="m252.164062 500.667969-76.492187-172.097657-172.097656-76.476562 172.097656-76.492188 76.492187-172.082031 76.488282 172.082031 172.082031 76.492188-172.082031 76.476562zm0 0" fill="#35c9fc"/><path d="m236.085938 236.015625h32.152343v32.152344h-32.152343zm0 0" fill="#fff"/><g fill="#366cb6"><path d="m31.59375 207.0625-31.5078125-6.414062c20.5625005-101.296876 99.3203125-180.070313 200.6328125-200.648438l6.398438 31.527344c-88.628907 17.988281-157.53125 86.890625-175.523438 175.535156zm0 0"/><path d="m200.71875 504.171875c-101.3125-20.578125-180.070312-99.335937-200.6328125-200.648437l31.5078125-6.398438c17.992188 88.644531 86.894531 157.546875 175.539062 175.535156zm0 0"/><path d="m303.589844 504.171875-6.414063-31.527344c88.644531-17.988281 157.550781-86.890625 175.539063-175.539062l31.507812 6.398437c-20.558594 101.332032-99.320312 180.089844-200.632812 200.667969zm0 0"/><path d="m472.714844 207.0625c-17.988282-88.644531-86.878906-157.546875-175.539063-175.535156l6.414063-31.527344c101.3125 20.578125 180.074218 99.351562 200.632812 200.648438zm0 0"/></g></svg>