<svg height="514pt" viewBox="-64 0 514 514.44361" width="514pt" xmlns="http://www.w3.org/2000/svg"><path d="m144.910156 514.445312h-112.535156c-17.765625 0-32.152344-14.390624-32.152344-32.15625v-340.527343l53.164063-141.761719h70.527343l53.148438 141.761719v340.527343c0 17.765626-14.390625 32.15625-32.152344 32.15625zm0 0" fill="#4bc18f"/><path d="m.222656 144.6875h176.839844v257.222656h-176.839844zm0 0" fill="#f9dc26"/><path d="m32.375 225.070312h32.152344v32.152344h-32.152344zm0 0" fill="#fff"/><path d="m32.375 289.375h32.152344v32.152344h-32.152344zm0 0" fill="#fff"/><path d="m144.910156 482.289062h-112.535156c-17.765625 0-32.152344-14.386718-32.152344-32.152343v32.152343c0 17.765626 14.386719 32.15625 32.152344 32.15625h112.535156c17.761719 0 32.152344-14.390624 32.152344-32.15625v-32.152343c0 17.765625-14.390625 32.152343-32.152344 32.152343zm0 0" fill="#44a79b"/><path d="m353.902344 514.445312h-112.535156c-17.765626 0-32.152344-14.390624-32.152344-32.15625v-340.527343l53.164062-141.761719h70.527344l53.148438 141.761719v340.527343c0 17.765626-14.386719 32.15625-32.152344 32.15625zm0 0" fill="#35c9fc"/><path d="m209.214844 144.6875h176.839844v257.222656h-176.839844zm0 0" fill="#f9dc26"/><path d="m353.902344 482.289062h-112.535156c-17.765626 0-32.152344-14.386718-32.152344-32.152343v32.152343c0 17.765626 14.386718 32.15625 32.152344 32.15625h112.535156c17.765625 0 32.152344-14.390624 32.152344-32.15625v-32.152343c0 17.765625-14.386719 32.152343-32.152344 32.152343zm0 0" fill="#00adfe"/><g fill="#fff"><path d="m241.367188 225.070312h32.152343v32.152344h-32.152343zm0 0"/><path d="m241.367188 289.375h32.152343v32.152344h-32.152343zm0 0"/></g></svg>