<svg height="512pt" viewBox="0 0 512 512.03438" width="512pt" xmlns="http://www.w3.org/2000/svg"><path d="m64.015625 480.035156h160v32h-160zm0 0" fill="#515570"/><path d="m238.050781 512.035156h-110.882812l103.3125-178.816406 83.074219 48zm0 0" fill="#c7cce1"/><path d="m185.519531 411.058594 59.121094 89.550781 17.886719-30.992187-59.117188-89.550782zm0 0" fill="#9ca3c2"/><path d="m465.136719 182.59375-139.839844 242.242188-138.558594-80 139.679688-241.761719zm0 0" fill="#f85566"/><path d="m288 329.472656c-7.648438-4.414062-10.269531-14.207031-5.855469-21.855468l104-180.125 27.710938 16-104 180.125c-4.414063 7.648437-14.207031 10.273437-21.855469 5.855468zm0 0" fill="#c84f61"/><path d="m461.296875 189.332031-138.574219-80 40-69.296875c10.6875-18.511718 27.933594-31.746094 48.574219-37.28125 20.65625-5.519531 42.207031-2.6874998 60.703125 8 38.210938 22.066406 51.34375 71.089844 29.296875 109.28125zm0 0" fill="#35c9fc"/><path d="m511.28125 71.457031c-5.152344 8.417969-9.121094 15.089844-9.984375 16.578125l-53.855469 93.296875 13.855469 8 40-69.28125c8.816406-15.28125 11.777344-32.257812 9.984375-48.59375zm0 0" fill="#00adfe"/><path d="m410.140625 85.894531 15.996094-27.714843 27.714843 15.996093-15.996093 27.714844zm0 0" fill="#fff"/><path d="m.015625 480.035156h32v32h-32zm0 0" fill="#515570"/></svg>