<svg height="512pt" viewBox="0 0 512 512" width="512pt" xmlns="http://www.w3.org/2000/svg"><path d="m64 512c-35.296875 0-64-28.703125-64-64v-64h128v64c0 35.296875-28.703125 64-64 64zm0 0" fill="#fbc0aa"/><path d="m128 128h-128v-64c0-35.296875 28.703125-64 64-64s64 28.703125 64 64zm0 0" fill="#fbc0aa"/><path d="m448 0h-384c35.296875 0 64 28.703125 64 64v384c0 35.296875-28.703125 64-64 64h384c35.296875 0 64-28.703125 64-64v-384c0-35.296875-28.703125-64-64-64zm0 0" fill="#ffd8c9"/><path d="m368 509.902344-64-42.671875-64 42.671875v-157.902344h128zm0 0" fill="#515570"/><path d="m240 414.6875c18.847656 10.945312 40.671875 17.3125 64 17.3125s45.152344-6.367188 64-17.3125v-62.6875h-128zm0 0" fill="#444863"/><path d="m400 304c0 53.019531-42.980469 96-96 96s-96-42.980469-96-96 42.980469-96 96-96 96 42.980469 96 96zm0 0" fill="#4bc18f"/><g fill="#fff"><path d="m240 64h128v32h-128zm0 0"/><path d="m192 128h224v32h-224zm0 0"/><path d="m320 256h32v32h-32zm0 0"/></g></svg>