<svg height="514.44361pt" viewBox="0 0 514.44361 514.44361" width="514.44361pt" xmlns="http://www.w3.org/2000/svg"><path d="m385.832031 514.445312h-289.375c-17.761719 0-32.152343-14.390624-32.152343-32.15625v-482.289062h385.832031v450.136719c0 35.515625-28.792969 64.308593-64.304688 64.308593zm0 0" fill="#ffd8c9"/><path d="m241.144531 337.605469h80.382813v32.152343h-80.382813zm0 0" fill="#fff"/><path d="m322.667969 305.449219h-113.675781v-113.675781l168.222656-168.222657c31.351562-31.332031 82.359375-31.332031 113.675781 0 15.191406 15.175781 23.554687 35.351563 23.554687 56.832031 0 21.476563-8.363281 41.652344-23.539062 56.828126zm0 0" fill="#fdee93"/><path d="m369.757812 128.609375v32.152344h97.597657l23.550781-23.550781c2.652344-2.652344 4.839844-5.65625 7.074219-8.601563zm0 0" fill="#f9dc26"/><path d="m403.050781 225.070312h-129.753906v32.152344h97.601563zm0 0" fill="#f9dc26"/><path d="m337.605469 64.304688h-1.144531l-31.011719 31.011718v97.601563h32.15625zm0 0" fill="#f9dc26"/><path d="m353.679688 337.605469h32.152343v32.152343h-32.152343zm0 0" fill="#fff"/><g fill="#fbc0aa"><path d="m128.609375 64.304688h128.613281v32.152343h-128.613281zm0 0"/><path d="m128.609375 128.609375h80.382813v32.152344h-80.382813zm0 0"/><path d="m128.609375 192.917969h48.230469v32.152343h-48.230469zm0 0"/><path d="m128.609375 257.222656h48.230469v32.152344h-48.230469zm0 0"/></g><path d="m160.761719 353.679688c-6.269531-6.269532-6.269531-16.460938 0-22.730469l261.933593-261.933594 22.734376 22.730469-261.933594 261.933594c-6.269532 6.269531-16.460938 6.269531-22.734375 0zm0 0" fill="#515570"/><path d="m321.527344 450.136719v-48.226563h-321.527344v48.226563c0 35.464843 28.839844 64.308593 64.304688 64.308593h321.527343c-35.511719 0-64.304687-28.792968-64.304687-64.308593zm0 0" fill="#fbc0aa"/></svg>