<svg height="514.44361pt" viewBox="0 0 514.44361 514.44361" width="514.44361pt" xmlns="http://www.w3.org/2000/svg"><path d="m482.289062 466.214844h-450.136718v-241.144532c0-42.667968 21.640625-64.308593 48.230468-64.308593h353.679688c26.589844 0 48.226562 21.640625 48.226562 64.308593zm0 0" fill="#444863"/><path d="m80.382812 208.992188h353.679688v192.917968h-353.679688zm0 0" fill="#35c9fc"/><path d="m160.761719 257.222656v-257.222656h128.613281c19.179688 0 36.445312 8.441406 48.230469 21.816406 11.78125-13.375 29.046875-21.816406 48.226562-21.816406h128.613281v257.222656zm0 0" fill="#ffd8c9"/><g fill="#fff"><path d="m450.136719 96.457031h-32.152344c-8.875 0-16.074219-7.199219-16.074219-16.074219s7.199219-16.078124 16.074219-16.078124h32.152344c8.875 0 16.078125 7.203124 16.078125 16.078124s-7.203125 16.074219-16.078125 16.074219zm0 0"/><path d="m450.136719 160.761719h-32.152344c-8.875 0-16.074219-7.199219-16.074219-16.074219s7.199219-16.078125 16.074219-16.078125h32.152344c8.875 0 16.078125 7.203125 16.078125 16.078125s-7.203125 16.074219-16.078125 16.074219zm0 0"/><path d="m257.222656 96.457031h-32.152344c-8.875 0-16.078124-7.199219-16.078124-16.074219s7.203124-16.078124 16.078124-16.078124h32.152344c8.875 0 16.074219 7.203124 16.074219 16.078124s-7.199219 16.074219-16.074219 16.074219zm0 0"/><path d="m257.222656 160.761719h-32.152344c-8.875 0-16.078124-7.199219-16.078124-16.074219s7.203124-16.078125 16.078124-16.078125h32.152344c8.875 0 16.074219 7.203125 16.074219 16.078125s-7.199219 16.074219-16.074219 16.074219zm0 0"/></g><path d="m385.832031 208.992188c-12.410156 0-23.597656 4.824218-32.152343 12.523437v-212.480469c-5.980469 3.488282-11.527344 7.621094-16.074219 12.78125-4.550781-5.160156-10.097657-9.292968-16.078125-12.78125v212.480469c-8.550782-7.699219-19.742188-12.523437-32.152344-12.523437h-128.613281v80.382812h128.613281c17.730469 0 32.152344 14.421875 32.152344 32.152344h32.152344c0-17.730469 14.421874-32.152344 32.152343-32.152344h128.613281v-80.382812zm0 0" fill="#fbc0aa"/><path d="m466.390625 514.445312h-418.339844c-26.492187 0-48.050781-21.640624-48.050781-48.230468v-32.152344h514.445312v32.152344c0 26.589844-21.558593 48.230468-48.054687 48.230468zm0 0" fill="#515570"/><path d="m48.230469 450.136719h32.152343v32.152343h-32.152343zm0 0" fill="#fff"/><path d="m112.535156 450.136719h32.152344v32.152343h-32.152344zm0 0" fill="#fff"/></svg>