<svg height="514.44361pt" viewBox="0 0 514.44361 514.44361" width="514.44361pt" xmlns="http://www.w3.org/2000/svg"><path d="m514.445312 96.457031v273.300781h-514.445312v-273.300781c0-17.683593 14.46875-32.152343 32.152344-32.152343h450.136718c17.6875 0 32.15625 14.46875 32.15625 32.152343zm0 0" fill="#35c9fc"/><path d="m466.214844 64.304688v257.222656h-128.609375c-17.765625 0-32.15625 14.386718-32.15625 32.152344h-96.457031c0-17.765626-14.386719-32.152344-32.152344-32.152344h-128.609375v-257.222656zm0 0" fill="#00adfe"/><path d="m192.917969 417.984375h128.609375v80.382813h-128.609375zm0 0" fill="#9ca3c2"/><path d="m80.382812 225.070312v-225.070312h128.609376c19.179687 0 36.445312 8.441406 48.230468 21.816406 11.78125-13.375 29.050782-21.816406 48.226563-21.816406h128.613281v225.070312zm0 0" fill="#fdee93"/><path d="m305.449219 208.992188c-26.636719 0-48.226563 21.589843-48.226563 48.230468 0-26.640625-21.589844-48.230468-48.230468-48.230468h-128.609376v80.382812h128.609376c17.734374 0 32.152343 14.421875 32.152343 32.152344h32.152344c0-17.730469 14.421875-32.152344 32.152344-32.152344h128.613281v-80.382812zm0 0" fill="#f9dc26"/><path d="m257.222656 21.816406c-4.550781-5.160156-10.097656-9.292968-16.078125-12.78125v312.492188h32.152344v-312.492188c-5.980469 3.488282-11.527344 7.621094-16.074219 12.78125zm0 0" fill="#f9dc26"/><path d="m353.679688 514.445312h-192.917969c-8.871094 0-16.074219-7.203124-16.074219-16.078124s7.203125-16.078126 16.074219-16.078126h192.917969c8.875 0 16.078124 7.203126 16.078124 16.078126s-7.203124 16.078124-16.078124 16.078124zm0 0" fill="#c7cce1"/><path d="m482.289062 450.136719h-450.136718c-17.765625 0-32.152344-14.386719-32.152344-32.152344v-64.304687h514.445312v64.304687c0 17.765625-14.390624 32.152344-32.15625 32.152344zm0 0" fill="#c7cce1"/><g fill="#515570"><path d="m369.757812 96.457031h-32.152343c-8.875 0-16.078125-7.199219-16.078125-16.074219s7.203125-16.078124 16.078125-16.078124h32.152343c8.871094 0 16.074219 7.203124 16.074219 16.078124s-7.203125 16.074219-16.074219 16.074219zm0 0"/><path d="m369.757812 160.761719h-32.152343c-8.875 0-16.078125-7.199219-16.078125-16.074219s7.203125-16.078125 16.078125-16.078125h32.152343c8.871094 0 16.074219 7.203125 16.074219 16.078125s-7.203125 16.074219-16.074219 16.074219zm0 0"/><path d="m176.839844 96.457031h-32.152344c-8.875 0-16.078125-7.199219-16.078125-16.074219s7.203125-16.078124 16.078125-16.078124h32.152344c8.875 0 16.078125 7.203124 16.078125 16.078124s-7.203125 16.074219-16.078125 16.074219zm0 0"/><path d="m176.839844 160.761719h-32.152344c-8.875 0-16.078125-7.199219-16.078125-16.074219s7.203125-16.078125 16.078125-16.078125h32.152344c8.875 0 16.078125 7.203125 16.078125 16.078125s-7.203125 16.074219-16.078125 16.074219zm0 0"/></g><path d="m32.152344 385.832031h32.152344v32.152344h-32.152344zm0 0" fill="#fff"/><path d="m96.457031 385.832031h32.152344v32.152344h-32.152344zm0 0" fill="#fff"/></svg>