<svg height="514.44361pt" viewBox="0 0 514.44361 514.44361" width="514.44361pt" xmlns="http://www.w3.org/2000/svg"><path d="m514.445312 353.679688c0 88.789062-71.976562 160.765624-160.765624 160.765624-88.785157 0-160.761719-71.976562-160.761719-160.765624 0-88.785157 71.976562-160.761719 160.761719-160.761719 88.789062 0 160.765624 71.976562 160.765624 160.761719zm0 0" fill="#35c9fc"/><path d="m353.679688 482.289062c-83.210938 0-151.855469-63.5625-159.945313-144.683593-.527344 5.289062-.816406 10.640625-.816406 16.074219 0 88.644531 72.117187 160.765624 160.761719 160.765624 88.644531 0 160.765624-72.121093 160.765624-160.765624 0-5.433594-.292968-10.785157-.820312-16.074219-8.085938 81.121093-76.734375 144.683593-159.945312 144.683593zm0 0" fill="#00adfe"/><path d="m192.917969 353.679688c0 51.042968 23.984375 96.507812 61.183593 125.976562l65.09375-52.074219 15.820313-47.503906 50.816406-33.875v-56.828125c0-17.765625-14.386719-32.152344-32.152343-32.152344h-128.304688c-20.273438 26.910156-32.457031 60.253906-32.457031 96.457032zm0 0" fill="#366cb6"/><path d="m369.757812 411.328125v102.296875c81.121094-8.105469 144.6875-76.734375 144.6875-159.945312h-87.039062zm0 0" fill="#366cb6"/><path d="m192.917969 208.992188c0 53.273437-43.1875 96.457031-96.460938 96.457031-53.269531 0-96.457031-43.183594-96.457031-96.457031 0-53.273438 43.1875-96.457032 96.457031-96.457032 53.273438 0 96.460938 43.183594 96.460938 96.457032zm0 0" fill="#4bc18f"/><path d="m96.457031 273.296875c-47.699219 0-87.308593-34.835937-95.011719-80.378906-.882812 5.238281-1.445312 10.59375-1.445312 16.074219 0 53.195312 43.261719 96.457031 96.457031 96.457031 53.199219 0 96.460938-43.261719 96.460938-96.457031 0-5.480469-.5625-10.835938-1.449219-16.074219-7.699219 45.542969-47.3125 80.378906-95.011719 80.378906zm0 0" fill="#44a79b"/><path d="m193.734375 337.605469c-.527344 5.289062-.816406 10.640625-.816406 16.074219 0 51.027343 23.96875 96.472656 61.167969 125.941406.015624 0 .015624.015625.03125.015625l21.945312-17.554688c-45.046875-24.964843-76.972656-70.816406-82.328125-124.476562zm0 0" fill="#215faa"/><path d="m369.757812 513.625c81.121094-8.105469 144.6875-76.734375 144.6875-159.945312h-3.296874c-13.90625 68.148437-71.011719 120.75-141.390626 127.773437zm0 0" fill="#215faa"/><path d="m417.984375 80.382812c0 44.394532-35.988281 80.378907-80.378906 80.378907-44.394531 0-80.382813-35.984375-80.382813-80.378907 0-44.394531 35.988282-80.382812 80.382813-80.382812 44.390625 0 80.378906 35.988281 80.378906 80.382812zm0 0" fill="#366cb6"/><path d="m337.605469 128.609375c-38.808594 0-71.285157-27.664063-78.761719-64.304687-1.058594 5.195312-1.621094 10.578124-1.621094 16.078124 0 44.320313 36.058594 80.378907 80.382813 80.378907 44.320312 0 80.378906-36.058594 80.378906-80.378907 0-5.5-.5625-10.882812-1.621094-16.078124-7.476562 36.640624-39.953125 64.304687-78.757812 64.304687zm0 0" fill="#215faa"/><path d="m80.382812 225.070312c0-8.875-7.203124-16.078124-16.078124-16.078124h-64.304688c0 11.285156 2.058594 22.074218 5.625 32.152343h58.679688c8.875 0 16.078124-7.203125 16.078124-16.074219zm0 0" fill="#44a79b"/><path d="m128.609375 192.917969c0 8.871093 7.203125 16.074219 16.078125 16.074219h48.230469c0-11.285157-2.058594-22.074219-5.628907-32.152344h-42.601562c-8.875 0-16.078125 7.203125-16.078125 16.078125zm0 0" fill="#44a79b"/><path d="m160.761719 426.023438c0 31.074218-25.191407 56.265624-56.265625 56.265624-31.074219 0-56.265625-25.191406-56.265625-56.265624 0-31.074219 25.191406-56.265626 56.265625-56.265626 31.074218 0 56.265625 25.191407 56.265625 56.265626zm0 0" fill="#d89879"/><path d="m104.496094 450.136719c-25.398438 0-46.667969-17.023438-53.648438-40.191407-1.542968 5.128907-2.617187 10.453126-2.617187 16.078126 0 31.027343 25.238281 56.265624 56.265625 56.265624s56.265625-25.238281 56.265625-56.265624c0-5.625-1.074219-10.949219-2.617188-16.078126-6.976562 23.167969-28.246093 40.191407-53.648437 40.191407zm0 0" fill="#d18161"/><g fill="#f9dc26"><path d="m450.136719 96.457031h32.152343v32.152344h-32.152343zm0 0"/><path d="m160.761719 32.152344h32.15625v32.152344h-32.15625zm0 0"/><path d="m32.152344 0h32.152344v32.152344h-32.152344zm0 0"/><path d="m225.070312 160.761719h32.152344v32.15625h-32.152344zm0 0"/><path d="m176.839844 482.289062h32.152344v32.15625h-32.152344zm0 0"/><path d="m0 320.191406h32.152344v32.152344h-32.152344zm0 0"/></g><path d="m241.144531 289.375h32.152344v32.152344h-32.152344zm0 0" fill="#fff"/><path d="m305.449219 289.535156h32.15625v32.152344h-32.15625zm0 0" fill="#fff"/></svg>