<svg height="514pt" viewBox="-64 0 514 514.44361" width="514pt" xmlns="http://www.w3.org/2000/svg"><path d="m353.902344 514.445312h-321.527344c-17.765625 0-32.152344-14.390624-32.152344-32.15625v-376.410156l105.878906-105.878906h247.800782c17.765625 0 32.152344 14.386719 32.152344 32.152344v450.136718c0 17.765626-14.386719 32.15625-32.152344 32.15625zm0 0" fill="#ffd8c9"/><path d="m96.679688 241.144531h192.917968v144.6875h-192.917968zm0 0" fill="#444863"/><path d="m112.757812 0h-6.65625l-105.878906 105.878906v6.65625h112.535156zm0 0" fill="#fbc0aa"/><path d="m193.136719 306.867188-153.351563-65.722657 153.351563-65.71875 153.355469 65.71875zm0 0" fill="#515570"/><g fill="#fff"><path d="m305.671875 48.230469h32.152344v32.152343h-32.152344zm0 0"/><path d="m305.671875 112.535156h32.152344v32.152344h-32.152344zm0 0"/></g></svg>