<svg height="512pt" viewBox="-32 0 512 512" width="512pt" xmlns="http://www.w3.org/2000/svg"><path d="m80 352c-44.113281 0-80 35.886719-80 80s35.886719 80 80 80h368v-160zm0 0" fill="#fdee93"/><path d="m48 416h400v32h-400zm0 0" fill="#f9dc26"/><path d="m208 0h32v64h-32zm0 0" fill="#4bc18f"/><path d="m281.601562 320c-7.539062 0-15.074218-1.585938-22.402343-4.703125-22.6875-9.679687-47.679688-9.679687-70.367188 0-7.34375 3.117187-14.894531 4.703125-22.433593 4.703125-62.511719 0-102.398438-104.238281-102.398438-176 0-71.183594 37.328125-112 102.398438-112 12.625 0 24.464843 1.632812 35.1875 4.832031 14.652343 4.382813 30.140624 4.382813 44.828124 0 10.707032-3.199219 22.5625-4.832031 35.1875-4.832031 65.070313 0 102.398438 40.816406 102.398438 112 0 71.761719-39.886719 176-102.398438 176zm0 0" fill="#f85566"/><path d="m281.601562 288c-7.539062 0-15.074218-1.585938-22.402343-4.703125-22.6875-9.679687-47.679688-9.679687-70.367188 0-7.34375 3.117187-14.894531 4.703125-22.433593 4.703125-57.902344 0-96.335938-89.390625-101.695313-159.601562-.414063 5.042968-.703125 10.210937-.703125 15.601562 0 71.761719 39.886719 176 102.398438 176 7.539062 0 15.074218-1.585938 22.402343-4.703125 22.6875-9.679687 47.679688-9.679687 70.367188 0 7.34375 3.117187 14.894531 4.703125 22.433593 4.703125 62.511719 0 102.398438-104.238281 102.398438-176 0-5.390625-.289062-10.558594-.703125-15.601562-5.375 70.210937-43.808594 159.601562-101.695313 159.601562zm0 0" fill="#c84f61"/><g fill="#fff"><path d="m208 80h32v32h-32zm0 0"/><path d="m208 144h32v32h-32zm0 0"/></g></svg>