<svg height="514pt" viewBox="0 0 514.57545 514" width="514pt" xmlns="http://www.w3.org/2000/svg"><path d="m429.957031 218.25-25.53125-19.546875c70.914063-92.664063 86.1875-150.972656 74.386719-162.773437l22.730469-22.734376c43.632812 43.648438-35.527344 157.9375-71.585938 205.054688zm0 0" fill="#e9f0f8"/><path d="m48.03125 514.730469c-13.90625 0-26.011719-3.808594-35.113281-12.910157l22.734375-22.730468c10.03125 10 59.015625 1.703125 147.789062-63.179688l18.984375 25.945313c-41.429687 30.289062-107.953125 72.875-154.394531 72.875zm0 0" fill="#e9f0f8"/><path d="m144.695312 479.910156c21.285157-12.363281 41.445313-26.140625 57.714844-38.035156l-18.984375-25.949219c-13.921875 10.175781-26.769531 18.824219-38.746093 26.367188v37.617187zm0 0" fill="#c3d9ed"/><path d="m429.957031 218.25c8.40625-10.980469 19.160157-25.6875 30.140625-42.214844-3.261718-13.410156-7.796875-26.269531-13.503906-38.535156-11.058594 18.277344-24.949219 38.710938-42.167969 61.203125zm0 0" fill="#c3d9ed"/><path d="m84.507812 218.25c-36.058593-47.117188-115.21875-161.40625-71.589843-205.054688l22.734375 22.734376c-11.800782 11.800781 3.472656 70.125 74.382812 162.773437zm0 0" fill="#e9f0f8"/><path d="m466.449219 514.730469c-46.460938 0-112.96875-42.585938-154.398438-72.875l18.988281-25.945313c88.757813 64.898438 137.707032 73.179688 147.789063 63.179688l22.730469 22.730468c-9.097656 9.101563-21.203125 12.910157-35.109375 12.910157zm0 0" fill="#e9f0f8"/><path d="m369.765625 442.292969c-11.976563-7.542969-24.804687-16.191407-38.742187-26.382813l-18.988282 25.945313c16.269532 11.898437 36.445313 25.675781 57.714844 38.054687v-37.617187zm0 0" fill="#c3d9ed"/><path d="m110.035156 198.703125c-17.21875-22.507813-31.105468-42.925781-42.167968-61.203125-5.707032 12.25-10.242188 25.125-13.503907 38.535156 10.980469 16.527344 21.734375 31.234375 30.144531 42.214844zm0 0" fill="#c3d9ed"/><path d="m289.382812 514.730469h-64.304687c-26.589844 0-48.230469-21.636719-48.230469-48.226563v-109.964844h160.765625v109.964844c0 26.589844-21.640625 48.226563-48.230469 48.226563zm0 0" fill="#215faa"/><path d="m176.847656 356.539062h160.765625v93.886719h-160.765625zm0 0" fill="#366cb6"/><path d="m434.070312 225.355469c0 97.667969-79.171874 176.839843-176.839843 176.839843-97.664063 0-176.839844-79.171874-176.839844-176.839843 0-97.664063 79.175781-176.839844 176.839844-176.839844 97.667969 0 176.839843 79.175781 176.839843 176.839844zm0 0" fill="#f9dc26"/><path d="m257.230469 370.042969c-92.085938 0-167.867188-70.765625-176.019531-160.761719-.480469 5.304688-.820313 10.640625-.820313 16.074219 0 97.503906 79.335937 176.839843 176.839844 176.839843 97.503906 0 176.839843-79.335937 176.839843-176.839843 0-5.433594-.335937-10.769531-.820312-16.074219-8.148438 89.996094-83.933594 160.761719-176.019531 160.761719zm0 0" fill="#f2bc0e"/><path d="m48.078125 514.8125c-14.757813 0-26.496094-4.324219-35.160156-12.992188-38.566407-38.582031 18.550781-131.984374 56.027343-184.234374l60.800782-75.910157c17.007812-19.355469 35.03125-38.535156 54.0625-57.585937 39.726562-39.726563 80.222656-75.125 120.367187-105.1875l82.132813-52.746094c56.203125-29.484375 94.5625-33.585938 115.21875-12.960938 19.710937 19.726563 16.863281 55.640626-8.40625 106.765626l-28.828125-14.261719c22.011719-44.515625 19.46875-64.800781 14.503906-69.769531-5.355469-5.355469-27.460937-7.574219-76.363281 18.003906l-79.933594 51.363281c-37.425781 28.085937-77.855469 63.421875-115.957031 101.523437-18.554688 18.550782-36.109375 37.234376-52.183594 55.511719l-59.820313 74.675781c-60.996093 85.074219-68.566406 132.402344-58.90625 142.082032 5.886719 5.882812 30.449219 7.734375 85.175782-22.585938l15.59375 28.117188c-36.269532 20.109375-65.800782 30.191406-88.324219 30.191406zm0 0" fill="#e9f0f8"/><path d="m466.402344 514.730469c-10.851563 0-23.328125-2.332031-37.378906-6.976563l10.09375-30.511718c23.023437 7.621093 35.59375 5.949218 39.695312 1.847656 12.972656-12.972656-5.449219-77.101563-87.039062-179.058594-24.933594-31.140625-53.148438-62.503906-83.855469-93.210938-43.453125-43.4375-88.753907-82.308593-131.050781-112.40625-84.835938-60.640624-131.652344-68.050781-141.214844-58.484374-4.085938 4.097656-5.757813 16.671874 1.863281 39.691406l-30.527344 10.097656c-11-33.199219-9.003906-57.601562 5.914063-72.539062 38.359375-38.292969 130.878906 18.054687 182.628906 55.0625 43.695312 31.09375 90.429688 71.171874 135.121094 115.863281 31.542968 31.542969 60.558594 63.789062 86.234375 95.847656 40.976562 51.203125 131.246093 175.296875 84.671875 221.886719-8.617188 8.582031-20.382813 12.890625-35.15625 12.890625zm0 0" fill="#e9f0f8"/><path d="m417.996094 64.59375c0 35.515625-28.792969 64.304688-64.308594 64.304688-35.511719 0-64.304688-28.789063-64.304688-64.304688s28.792969-64.304688 64.304688-64.304688c35.515625 0 64.308594 28.789063 64.308594 64.304688zm0 0" fill="#35c9fc"/><path d="m353.6875 96.746094c-29.867188 0-54.835938-20.578125-62.019531-48.230469-1.335938 5.179687-2.285157 10.5-2.285157 16.078125 0 35.464844 28.84375 64.304688 64.304688 64.304688 35.464844 0 64.308594-28.839844 64.308594-64.304688 0-5.578125-.933594-10.898438-2.285156-16.078125-7.183594 27.652344-32.152344 48.230469-62.023438 48.230469zm0 0" fill="#00adfe"/><path d="m176.847656 289.664062c0 35.511719-28.789062 64.304688-64.304687 64.304688s-64.304688-28.792969-64.304688-64.304688c0-35.515624 28.789063-64.308593 64.304688-64.308593s64.304687 28.792969 64.304687 64.308593zm0 0" fill="#35c9fc"/><path d="m112.542969 321.816406c-29.867188 0-54.835938-20.578125-62.023438-48.230468-1.332031 5.175781-2.28125 10.496093-2.28125 16.078124 0 35.460938 28.839844 64.304688 64.304688 64.304688 35.464843 0 64.304687-28.84375 64.304687-64.304688 0-5.582031-.929687-10.902343-2.28125-16.078124-7.1875 27.652343-32.152344 48.230468-62.023437 48.230468zm0 0" fill="#00adfe"/><g fill="#fff"><path d="m96.46875 257.507812h32.152344v32.15625h-32.152344zm0 0"/><path d="m337.613281 32.441406h32.152344v32.152344h-32.152344zm0 0"/></g></svg>