<svg height="511pt" viewBox="-33 0 511 511.98998" width="511pt" xmlns="http://www.w3.org/2000/svg"><path d="m38.144531 479.988281h342.878907v32h-342.878907zm0 0" fill="#44a79b"/><path d="m111.390625 511.988281h-110.894531l61.070312-105.757812-1.597656-93.28125 162.222656-280.960938c17.695313-30.527343 56.945313-41.070312 87.441406-23.453125l55.375 32c30.625 17.773438 41.121094 57.007813 23.4375 87.488282l-162.207031 280.925781-81.597656 45.28125zm0 0" fill="#4bc18f"/><path d="m61.566406 406.230469-61.070312 105.757812h110.894531l33.265625-57.757812 4.496094-2.496094-87.664063-50.609375zm0 0" fill="#4bc18f"/><path d="m388.445312 128.023438c17.683594-30.464844 7.1875-69.714844-23.4375-87.488282l-55.375-32c-30.496093-17.617187-69.730468-7.074218-87.441406 23.453125l-16.015625 27.746094 166.269531 96zm0 0" fill="#f9dc26"/><path d="m59.984375 312.964844 1.503906 88.160156 87.664063 50.609375 77.085937-42.785156 2.207031-3.808594-166.269531-96zm0 0" fill="#f9dc26"/><path d="m202.464844 390.148438-57.808594 32.082031-11.632812 20.191406 16.128906 9.3125 77.085937-42.785156 2.207031-3.808594zm0 0" fill="#f2bc0e"/><path d="m394.847656 79.527344c-1.410156 5.648437-3.328125 11.214844-6.402344 16.496094l-29.855468 51.695312 13.855468 8 16-27.695312c6.640626-11.425782 9.296876-24.082032 8.433594-36.386719-.289062-4.09375-.976562-8.144531-2.03125-12.109375zm0 0" fill="#f2bc0e"/><path d="m413.007812 479.988281h32v32h-32zm0 0" fill="#44a79b"/><path d="m247.175781 53.988281 15.828125-27.808593 27.808594 15.824218-15.828125 27.8125zm0 0" fill="#fff"/></svg>