<svg height="514.44361pt" viewBox="0 0 514.44361 514.44361" width="514.44361pt" xmlns="http://www.w3.org/2000/svg"><path d="m385.832031 514.445312h-385.832031v-408.566406l105.878906-105.878906h279.953125zm0 0" fill="#e9f0f8"/><path d="m204.539062 112.535156h229.523438v128.609375h-229.523438zm0 0" fill="#366cb6"/><path d="m112.535156 0h-6.65625l-105.878906 105.878906v6.65625h112.535156zm0 0" fill="#c3d9ed"/><path d="m204.539062 112.535156-107.179687 64.304688 107.179687 64.304687h4.453126v-128.609375zm0 0" fill="#f9dc26"/><path d="m482.289062 112.535156h-64.304687v128.609375h64.304687c17.765626 0 32.15625-14.386719 32.15625-32.152343v-64.304688c0-17.765625-14.390624-32.152344-32.15625-32.152344zm0 0" fill="#f9dc26"/><path d="m289.375 353.679688h-32.152344v-32.152344h-32.152344v32.152344h-32.152343v32.152343h32.152343v32.152344h32.152344v-32.152344h32.152344zm0 0" fill="#4bc18f"/><path d="m112.535156 289.375c-26.589844 0-48.230468 21.636719-48.230468 48.230469v112.53125h32.152343v-32.152344h32.152344v32.152344h32.152344v-112.53125c0-26.59375-21.636719-48.230469-48.226563-48.230469zm-16.078125 96.457031v-48.226562c0-8.875 7.21875-16.078125 16.078125-16.078125s16.074219 7.203125 16.074219 16.078125v48.226562zm0 0" fill="#4bc18f"/><g fill="#fff"><path d="m241.144531 144.6875h32.152344v32.152344h-32.152344zm0 0"/><path d="m305.449219 144.6875h32.15625v32.152344h-32.15625zm0 0"/></g></svg>