<svg height="546pt" viewBox="-16 -16 546.59633 546" width="546pt" xmlns="http://www.w3.org/2000/svg"><path d="m385.832031 514.742188h-385.832031v-408.566407l105.878906-105.878906h279.953125zm0 0" fill="#e9f0f8"/><path d="m204.539062 112.832031h229.523438v128.613281h-229.523438zm0 0" fill="#366cb6"/><path d="m112.535156.296875h-6.65625l-105.878906 105.878906v6.65625h112.535156zm0 0" fill="#c3d9ed"/><path d="m204.539062 112.832031-107.179687 64.304688 107.179687 64.308593h4.453126v-128.613281zm0 0" fill="#f9dc26"/><path d="m482.289062 112.832031h-64.304687v128.613281h64.304687c17.765626 0 32.15625-14.390624 32.15625-32.15625v-64.304687c0-17.761719-14.390624-32.152344-32.15625-32.152344zm0 0" fill="#f9dc26"/><path d="m241.144531 144.984375h32.152344v32.152344h-32.152344zm0 0" fill="#fff"/><path d="m305.449219 144.984375h32.15625v32.152344h-32.15625zm0 0" fill="#fff"/><path d="m176.839844 321.824219v-32.152344h-112.535156v160.765625h32.152343v-64.304688h48.230469v-32.15625h-48.230469v-32.152343zm0 0" fill="#f85566"/></svg>