<svg height="514.44361pt" viewBox="0 0 514.44361 514.44361" width="514.44361pt" xmlns="http://www.w3.org/2000/svg"><path d="m385.832031 514.445312h-385.832031v-408.566406l105.878906-105.878906h279.953125zm0 0" fill="#ffd8c9"/><path d="m289.792969 0c-39.195313 29.339844-64.722657 75.992188-64.722657 128.609375 0 88.648437 72.117188 160.765625 160.761719 160.765625v-289.375zm0 0" fill="#fbc0aa"/><path d="m514.445312 128.609375c0 71.03125-57.582031 128.613281-128.613281 128.613281-71.027343 0-128.609375-57.582031-128.609375-128.613281 0-71.027344 57.582032-128.609375 128.609375-128.609375 71.03125 0 128.613281 57.582031 128.613281 128.609375zm0 0" fill="#f85566"/><path d="m112.535156 0h-6.65625l-105.878906 105.878906v6.65625h112.535156zm0 0" fill="#fbc0aa"/><path d="m434.0625 144.6875h-64.304688v-80.382812h32.152344v48.230468h32.152344zm0 0" fill="#fff"/><path d="m64.304688 160.761719h160.765624v32.15625h-160.765624zm0 0" fill="#fbc0aa"/><path d="m64.304688 225.070312h96.457031v96.457032h-96.457031zm0 0" fill="#d89879"/><path d="m64.304688 353.679688h96.457031v96.457031h-96.457031zm0 0" fill="#d89879"/><g fill="#fbc0aa"><path d="m192.917969 225.070312h64.304687v32.152344h-64.304687zm0 0"/><path d="m192.917969 289.375h96.457031v32.152344h-96.457031zm0 0"/><path d="m192.917969 353.679688h128.609375v32.152343h-128.609375zm0 0"/><path d="m192.917969 417.984375h96.457031v32.152344h-96.457031zm0 0"/></g></svg>