<svg height="514pt" viewBox="0 0 514.44361 514" width="514pt" xmlns="http://www.w3.org/2000/svg"><path d="m112.535156 392.804688v-147.144532l112.535156-45.015625v147.148438zm0 0" fill="#f85566"/><path d="m401.910156 392.804688-112.535156-45.011719v-147.148438l112.535156 45.015625zm0 0" fill="#f85566"/><path d="m273.296875 385.136719h-32.152344c-26.589843 0-48.226562-21.636719-48.226562-48.226563v-229.523437l64.304687-107.164063 64.304688 107.164063v229.523437c0 26.605469-21.640625 48.226563-48.230469 48.226563zm0 0" fill="#ffd8c9"/><path d="m380.253906 481.597656c-11.621094-32.910156-40.433594-57.136718-74.804687-62.957031v-65.65625h-96.457031v65.65625c-34.371094 5.820313-63.164063 30.046875-74.804688 62.957031h-134.1875v32.152344h514.445312v-32.152344zm0 0" fill="#e9f0f8"/><path d="m208.992188 410.492188c9.871093 4.324218 20.707031 6.816406 32.152343 6.816406h32.152344c11.449219 0 22.28125-2.476563 32.152344-6.816406v-57.492188h-96.457031zm0 0" fill="#c3d9ed"/><path d="m192.917969 336.910156c0 26.589844 21.636719 48.226563 48.226562 48.226563h32.152344c26.589844 0 48.230469-21.636719 48.230469-48.226563v-48.230468h-128.609375zm0 0" fill="#f9dc26"/><path d="m273.296875 352.984375h-32.152344c-26.589843 0-48.226562-21.636719-48.226562-48.226563v32.152344c0 26.589844 21.636719 48.226563 48.226562 48.226563h32.152344c26.589844 0 48.230469-21.636719 48.230469-48.226563v-32.152344c0 26.605469-21.640625 48.226563-48.230469 48.226563zm0 0" fill="#f2bc0e"/><path d="m321.527344 107.386719-64.304688-107.164063-64.304687 107.164063v4.453125h128.609375zm0 0" fill="#f85566"/><path d="m208.992188 481.597656h32.152343v32.152344h-32.152343zm0 0" fill="#c3d9ed"/><path d="m273.296875 481.597656h32.152344v32.152344h-32.152344zm0 0" fill="#c3d9ed"/><path d="m417.984375 417.289062h32.152344v32.15625h-32.152344zm0 0" fill="#f9dc26"/><path d="m64.304688 417.289062h32.152343v32.15625h-32.152343zm0 0" fill="#f9dc26"/><g fill="#fff"><path d="m241.144531 143.992188h32.152344v32.152343h-32.152344zm0 0"/><path d="m241.144531 208.296875h32.152344v32.152344h-32.152344zm0 0"/></g></svg>