<svg height="512pt" viewBox="-63 0 512 512.00002" width="512pt" xmlns="http://www.w3.org/2000/svg"><path d="m145.4375 431.453125h32.21875v64.4375h-32.21875zm0 0" fill="#898890"/><path d="m145.4375 431.453125h32.21875v80.546875h-32.21875zm0 0" fill="#9ca3c2"/><path d="m161.464844 447.5625c-19.265625 0-38.835938-2.480469-58.3125-7.714844l-15.5625-4.171875 20.84375-77.808593 31.125 8.34375-12.339844 46.039062c97.847656 17.691406 194.839844-42.511719 221.035156-140.214844 26.175782-97.71875-27.726562-198.367187-121.304687-231.9375l-12.339844 46.039063-31.121094-8.328125 20.84375-77.808594 15.5625 4.171875c120.125 32.1875 191.652344 156.097656 159.464844 276.210937-26.964844 100.632813-118.320313 167.179688-217.894531 167.179688zm0 0" fill="#c7cce1"/><path d="m161.773438 383.175781c-13.984376 0-28.078126-1.835937-41.949219-5.558593-41.5625-11.132813-76.292969-37.792969-97.816407-75.054688-21.503906-37.257812-27.207031-80.671875-16.074218-122.234375 11.128906-41.5625 37.789062-76.292969 75.035156-97.816406 37.246094-21.523438 80.675781-27.242188 122.253906-16.09375 41.5625 11.132812 76.292969 37.792969 97.8125 75.054687 21.507813 37.257813 27.210938 80.671875 16.078125 122.234375-11.128906 41.5625-37.792969 76.3125-75.035156 97.816407-24.824219 14.335937-52.371094 21.652343-80.304687 21.652343zm0 0" fill="#35c9fc"/><g fill="#00adfe"><path d="m317.113281 231.488281c-11.128906 41.5625-37.792969 76.3125-75.035156 97.816407-24.824219 14.335937-52.371094 21.652343-80.289063 21.652343-13.984374 0-28.078124-1.835937-41.949218-5.558593-41.5625-11.132813-76.292969-37.792969-97.816406-75.054688-11.550782-20.007812-18.378907-41.800781-20.652344-64.097656-3.347656 33.3125 3.59375 66.757812 20.652344 96.316406 21.523437 37.261719 56.253906 63.921875 97.816406 75.054688 13.871094 3.722656 27.964844 5.558593 41.949218 5.558593 27.917969 0 55.464844-7.332031 80.289063-21.652343 37.257813-21.503907 63.90625-56.253907 75.035156-97.816407 5.15625-19.25 6.539063-38.886719 4.574219-58.136719-.867188 8.667969-2.269531 17.332032-4.574219 25.917969zm0 0"/><path d="m131.746094 379.195312c-4.027344 0-8.007813-.515624-11.921875-1.578124-44.347657-11.890626-59.878907-87.730469-36.101563-176.445313 10.585938-39.53125 27.5625-75.085937 47.796875-100.101563 23.101563-28.546874 48.519531-40.902343 71.703125-34.652343 44.347656 11.890625 59.878906 87.730469 36.101563 176.445312-10.585938 39.53125-27.566407 75.085938-47.796875 100.101563-19.1875 23.714844-40 36.230468-59.78125 36.230468zm59.683594-282.105468c-9.519532 0-22.472657 8.910156-34.859376 24.230468-17.464843 21.585938-32.285156 52.902344-41.738281 88.179688-20.363281 75.988281-5.703125 131.902344 13.320313 136.992188 9.601562 2.59375 24.339844-6.523438 38.308594-23.792969 17.460937-21.585938 32.28125-52.902344 41.738281-88.179688 20.363281-75.988281 5.703125-131.902343-13.320313-136.996093-1.082031-.289063-2.242187-.433594-3.449218-.433594zm0 0"/><path d="m306.0625 294.074219-305.769531-81.949219c-.707031 11.359375-.113281 22.683594 1.5625 33.863281l285.921875 76.617188c7.058594-8.828125 13.226562-18.351563 18.285156-28.53125zm0 0"/><path d="m17.386719 150.023438 304.945312 81.707031c.710938-11.324219.113281-22.632813-1.5625-33.765625l-285.148437-76.40625c-7.023438 8.8125-13.195313 18.300781-18.234375 28.464844zm0 0"/></g><path d="m258.203125 512h-193.3125c-8.890625 0-16.109375-7.21875-16.109375-16.109375s7.21875-16.109375 16.109375-16.109375h193.3125c8.890625 0 16.109375 7.21875 16.109375 16.109375s-7.21875 16.109375-16.109375 16.109375zm0 0" fill="#515570"/><path d="m81 109.269531h32.21875v32.21875h-32.21875zm0 0" fill="#fff"/><path d="m145.4375 109.269531h32.21875v32.21875h-32.21875zm0 0" fill="#fff"/></svg>