<svg height="514pt" viewBox="0 -72 514.44361 514" width="514pt" xmlns="http://www.w3.org/2000/svg"><path d="m481.726562 209.214844c-8.277343-116.632813-105.8125-208.992188-224.503906-208.992188s-216.226562 92.359375-224.507812 208.992188h-32.714844v160.761718h514.445312v-160.761718zm-111.96875 32.152344h-225.070312v-16.078126c0-62.035156 50.496094-112.53125 112.535156-112.53125 62.039063 0 112.535156 50.496094 112.535156 112.53125zm0 0" fill="#4bc18f"/><g fill="#44a79b"><path d="m401.910156 273.519531h32.152344v96.457031h-32.152344zm0 0"/><path d="m337.605469 305.671875h32.152343v64.304687h-32.152343zm0 0"/><path d="m273.296875 305.671875h32.152344v64.304687h-32.152344zm0 0"/><path d="m208.992188 273.519531h32.152343v96.457031h-32.152343zm0 0"/><path d="m144.6875 305.671875h32.152344v64.304687h-32.152344zm0 0"/><path d="m80.382812 305.671875h32.152344v64.304687h-32.152344zm0 0"/></g><path d="m241.144531 32.375h32.152344v32.152344h-32.152344zm0 0" fill="#fff"/></svg>