<svg height="514pt" viewBox="0 -48 514.44361 514" width="514pt" xmlns="http://www.w3.org/2000/svg"><path d="m466.214844 353.902344h-417.984375c-26.640625 0-48.230469-21.589844-48.230469-48.230469v-257.222656c0-26.636719 21.589844-48.226563 48.230469-48.226563h32.152343c8.875 0 16.074219 7.203125 16.074219 16.074219 0 8.875-7.199219 16.078125-16.074219 16.078125h-32.152343c-8.875 0-16.078125 7.203125-16.078125 16.074219v257.222656c0 8.875 7.203125 16.078125 16.078125 16.078125h417.984375c8.875 0 16.074218-7.203125 16.074218-16.078125v-257.222656c0-8.871094-7.199218-16.074219-16.074218-16.074219h-32.152344c-8.875 0-16.078125-7.203125-16.078125-16.078125 0-8.871094 7.203125-16.074219 16.078125-16.074219h32.152344c26.636718 0 48.230468 21.589844 48.230468 48.226563v257.222656c0 26.640625-21.59375 48.230469-48.230468 48.230469zm0 0" fill="#c7cce1"/><path d="m192.917969 418.207031h-96.460938c-26.589843 0-48.226562-21.636719-48.226562-48.230469v-64.304687c0-26.589844 21.636719-48.226563 48.226562-48.226563h96.460938c26.589843 0 48.226562 21.636719 48.226562 48.226563v64.304687c0 26.59375-21.636719 48.230469-48.226562 48.230469zm0 0" fill="#515570"/><path d="m192.917969 386.054688h-96.460938c-26.589843 0-48.226562-21.640626-48.226562-48.230469v32.152343c0 26.59375 21.636719 48.230469 48.226562 48.230469h96.460938c26.589843 0 48.226562-21.636719 48.226562-48.230469v-32.152343c0 26.589843-21.636719 48.230469-48.226562 48.230469zm0 0" fill="#444863"/><path d="m417.984375 418.207031h-96.457031c-26.589844 0-48.230469-21.636719-48.230469-48.230469v-64.304687c0-26.589844 21.640625-48.226563 48.230469-48.226563h96.457031c26.589844 0 48.230469 21.636719 48.230469 48.226563v64.304687c0 26.59375-21.640625 48.230469-48.230469 48.230469zm0 0" fill="#515570"/><path d="m417.984375 386.054688h-96.457031c-26.589844 0-48.230469-21.640626-48.230469-48.230469v32.152343c0 26.59375 21.640625 48.230469 48.230469 48.230469h96.457031c26.589844 0 48.230469-21.636719 48.230469-48.230469v-32.152343c0 26.589843-21.640625 48.230469-48.230469 48.230469zm0 0" fill="#444863"/><g fill="#fff"><path d="m160.761719 289.597656h32.15625v32.152344h-32.15625zm0 0"/><path d="m401.910156 289.597656h32.152344v32.152344h-32.152344zm0 0"/></g></svg>