<svg height="514pt" viewBox="-48 0 514 514.44361" width="514pt" xmlns="http://www.w3.org/2000/svg"><path d="m305.671875 273.296875v-32.152344c44.324219 0 80.382813-36.058593 80.382813-80.382812v-16.074219c0-44.324219-36.058594-80.382812-80.382813-80.382812h-96.457031v-32.152344h96.457031c62.054687 0 112.535156 50.496094 112.535156 112.535156v16.074219c0 62.039062-50.480469 112.535156-112.535156 112.535156zm0 0" fill="#c7cce1"/><path d="m353.902344 224.652344c-13.472656 10.207031-30.0625 16.492187-48.230469 16.492187v32.152344c17.28125 0 33.585937-4.035156 48.230469-11.011719zm0 0" fill="#9ca3c2"/><path d="m353.902344 514.445312h-353.679688v-111.539062c0-26.894531 18.230469-50.253906 44.320313-56.765625 11.769531-2.957031 19.984375-13.488281 19.984375-25.609375v-47.234375h225.070312v47.234375c0 12.121094 8.214844 22.636719 19.980469 25.59375 26.09375 6.527344 44.324219 29.886719 44.324219 56.78125zm0 0" fill="#c7cce1"/><path d="m260.351562 225.070312h-166.582031l37.523438-225.070312h91.539062zm0 0" fill="#f9dc26"/><path d="m93.769531 225.070312h166.582031l-10.722656-64.308593h-145.136718zm0 0" fill="#f2bc0e"/><path d="m289.597656 320.53125v-47.234375h-225.070312v47.234375c0 6.492188-2.492188 12.410156-6.480469 17.074219h238.042969c-4-4.664063-6.492188-10.582031-6.492188-17.074219zm0 0" fill="#9ca3c2"/><path d="m321.75 305.449219h-289.375v-80.378907c0-17.765624 14.386719-32.152343 32.152344-32.152343h225.070312c17.761719 0 32.152344 14.386719 32.152344 32.152343zm0 0" fill="#366cb6"/><g fill="#215faa"><path d="m160.984375 192.917969h32.152344v112.53125h-32.152344zm0 0"/><path d="m96.679688 192.917969h32.152343v112.53125h-32.152343zm0 0"/><path d="m225.289062 192.917969h32.15625v112.53125h-32.15625zm0 0"/></g><path d="m289.597656 514.445312h-225.070312v-48.230468c0-17.765625 14.386718-32.152344 32.152344-32.152344h160.765624c17.761719 0 32.152344 14.386719 32.152344 32.152344zm0 0" fill="#f9dc26"/><path d="m72.566406 377.792969h32.152344v32.152343h-32.152344zm0 0" fill="#fff"/><path d="m136.871094 377.792969h32.152344v32.152343h-32.152344zm0 0" fill="#fff"/></svg>