<svg height="512pt" viewBox="0 -2 512 512" width="512pt" xmlns="http://www.w3.org/2000/svg"><path d="m446.746094 115.855469h32.628906v293.632812h-32.628906zm0 0" fill="#c7cce1"/><path d="m267.304688 409.488281h-32.625c0-26.980469-21.957032-48.9375-48.941407-48.9375h-97.875v-228.382812h326.257813v228.382812h-97.878906c-26.980469 0-48.9375 21.957031-48.9375 48.9375zm0 0" fill="#515570"/><path d="m87.863281 192.347656 163.128907 75.285156 163.128906-75.285156v-60.179687h-326.257813zm0 0" fill="#444863"/><path d="m250.992188 231.695312-250.992188-115.839843 250.992188-115.855469 250.992187 115.855469zm0 0" fill="#515570"/><path d="m463.0625 323.960938-16.316406 16.3125v69.214843h32.628906v-69.214843zm0 0" fill="#9ca3c2"/><path d="m512 507.367188h-97.878906v-19.101563c0-44.324219 17.601562-86.820313 48.941406-118.15625 31.335938 31.335937 48.9375 73.832031 48.9375 118.15625zm0 0" fill="#f9dc26"/><path d="m234.679688 50.601562h32.625v32.628907h-32.625zm0 0" fill="#fff"/></svg>