<svg height="514pt" viewBox="0 -33 514.44361 514" width="514pt" xmlns="http://www.w3.org/2000/svg"><path d="m292.253906 196.625h-42.476562c-69.527344 17.71875-121.167969 80.671875-121.167969 155.621094v32.152344h128.613281v-32.152344c0-17.730469 14.417969-32.152344 32.152344-32.152344l80.238281-.015625zm0 0" fill="#c7cce1"/><path d="m290.964844 320.09375 78.628906-.015625-77.359375-123.453125h-42.472656c-13.984375 3.570312-27.183594 9.035156-39.449219 15.980469l46.878906 23.890625c-.355468 12.78125 1.476563 25.59375 5.511719 37.972656 5.722656 17.585938 15.449219 33.101562 28.261719 45.625zm0 0" fill="#9ca3c2"/><path d="m369.613281 320.078125c-12.269531 0-24.710937-2.8125-36.367187-8.761719-19.128906-9.726562-33.308594-26.367187-39.949219-46.78125-4.953125-15.210937-5.257813-31.191406-1.042969-46.269531l-259.265625-132.082031 43.792969-85.960938 329.453125 167.867188c39.484375 20.113281 55.253906 68.617187 35.125 108.113281-14.179687 27.828125-42.472656 43.875-71.746094 43.875zm0 0" fill="#35c9fc"/><path d="m514.445312 448.703125h-514.445312v-48.226563c0-26.59375 21.640625-48.230468 48.230469-48.230468h417.984375c26.589844 0 48.230468 21.636718 48.230468 48.230468zm0 0" fill="#35c9fc"/><path d="m0 416.550781h514.445312v32.152344h-514.445312zm0 0" fill="#00adfe"/><path d="m369.757812 207.558594h32.152344v32.152344h-32.152344zm0 0" fill="#fff"/></svg>