<svg height="514.44361pt" viewBox="0 0 514.44361 514.44361" width="514.44361pt" xmlns="http://www.w3.org/2000/svg"><path d="m337.605469 514.445312h-160.765625v-16.078124c0-8.859376-7.21875-16.078126-16.078125-16.078126h-160.761719v-450.136718h514.445312v450.136718h-160.765624c-8.859376 0-16.074219 7.21875-16.074219 16.078126zm0 0" fill="#366cb6"/><path d="m273.296875 450.136719h-32.152344c0-17.730469-14.417969-32.152344-32.152343-32.152344h-144.6875v-417.984375h144.6875c19.179687 0 36.445312 8.441406 48.230468 21.816406 11.78125-13.375 29.050782-21.816406 48.226563-21.816406h144.6875v417.984375h-144.6875c-17.730469 0-32.152344 14.421875-32.152344 32.152344zm0 0" fill="#e9f0f8"/><path d="m305.449219 321.527344c-11.78125 0-22.648438 3.472656-32.152344 9.035156v-321.527344c-5.980469 3.488282-11.527344 7.621094-16.074219 12.78125-4.550781-5.160156-10.097656-9.292968-16.078125-12.78125v321.527344c-9.5-5.5625-20.367187-9.035156-32.152343-9.035156h-144.6875v96.457031h144.6875c17.734374 0 32.152343 14.421875 32.152343 32.152344h32.152344c0-17.730469 14.421875-32.152344 32.152344-32.152344h144.6875v-96.457031zm0 0" fill="#c3d9ed"/><g fill="#366cb6"><path d="m176.839844 80.382812h-48.230469c-8.871094 0-16.074219-7.203124-16.074219-16.078124s7.203125-16.074219 16.074219-16.074219h48.230469c8.875 0 16.078125 7.199219 16.078125 16.074219s-7.203125 16.078124-16.078125 16.078124zm0 0"/><path d="m369.757812 80.382812h-48.230468c-8.875 0-16.078125-7.203124-16.078125-16.078124s7.203125-16.074219 16.078125-16.074219h48.230468c8.871094 0 16.074219 7.199219 16.074219 16.074219s-7.203125 16.078124-16.074219 16.078124zm0 0"/><path d="m369.757812 144.6875h-48.230468c-8.875 0-16.078125-7.203125-16.078125-16.078125 0-8.871094 7.203125-16.074219 16.078125-16.074219h48.230468c8.871094 0 16.074219 7.203125 16.074219 16.074219 0 8.875-7.203125 16.078125-16.074219 16.078125zm0 0"/><path d="m176.839844 144.6875h-48.230469c-8.871094 0-16.074219-7.203125-16.074219-16.078125 0-8.871094 7.203125-16.074219 16.074219-16.074219h48.230469c8.875 0 16.078125 7.203125 16.078125 16.074219 0 8.875-7.203125 16.078125-16.078125 16.078125zm0 0"/><path d="m176.839844 208.992188h-48.230469c-8.871094 0-16.074219-7.203126-16.074219-16.074219 0-8.875 7.203125-16.078125 16.074219-16.078125h48.230469c8.875 0 16.078125 7.203125 16.078125 16.078125 0 8.871093-7.203125 16.074219-16.078125 16.074219zm0 0"/><path d="m176.839844 273.296875h-48.230469c-8.871094 0-16.074219-7.199219-16.074219-16.074219s7.203125-16.078125 16.074219-16.078125h48.230469c8.875 0 16.078125 7.203125 16.078125 16.078125s-7.203125 16.074219-16.078125 16.074219zm0 0"/></g><path d="m385.832031 204.539062h128.613281v229.523438h-128.613281zm0 0" fill="#f85566"/><path d="m514.445312 204.539062-64.308593-107.164062-64.304688 107.164062v4.453126h128.613281zm0 0" fill="#fdee93"/><path d="m417.984375 514.445312h64.304687c17.765626 0 32.15625-14.390624 32.15625-32.15625v-64.304687h-128.613281v64.304687c0 17.765626 14.390625 32.15625 32.152344 32.15625zm0 0" fill="#fdee93"/><path d="m434.0625 353.679688h32.152344v32.152343h-32.152344zm0 0" fill="#fff"/><path d="m434.0625 289.375h32.152344v32.152344h-32.152344zm0 0" fill="#fff"/></svg>