<svg height="514.44361pt" viewBox="0 0 514.44361 514.44361" width="514.44361pt" xmlns="http://www.w3.org/2000/svg"><path d="m434.0625 514.445312h-353.679688c-44.324218 0-80.382812-36.0625-80.382812-80.382812v-215.359375c0-22.78125 15.53125-42.136719 37.761719-47.089844l94.335937-20.976562c7.414063-1.609375 12.589844-8.070313 12.589844-15.660157v-54.59375h225.070312v54.59375c0 7.605469 5.175782 14.050782 12.585938 15.691407l94.335938 20.980469c22.234374 4.917968 37.765624 24.289062 37.765624 47.054687v215.359375c0 44.320312-36.0625 80.382812-80.382812 80.382812zm0 0" fill="#515570"/><path d="m434.0625 482.289062h-353.679688c-44.324218 0-80.382812-36.058593-80.382812-80.378906v32.152344c0 44.320312 36.058594 80.382812 80.382812 80.382812h353.679688c44.320312 0 80.382812-36.0625 80.382812-80.382812v-32.152344c0 44.320313-36.0625 80.378906-80.382812 80.378906zm0 0" fill="#444863"/><g fill="#fff"><path d="m160.761719 257.222656v-32.152344h-96.457031v32.152344h32.152343v96.457032h-32.152343v32.152343h96.457031v-32.152343h-32.152344v-96.457032zm0 0"/><path d="m321.527344 385.832031h-42.089844l-54.367188-108.738281v108.738281h-32.152343v-160.761719h42.085937l54.371094 108.738282v-108.738282h32.152344zm0 0"/><path d="m460.765625 246.789062-21.253906-24.148437-53.679688 47.25v-44.820313h-32.152343v160.761719h32.152343v-44.820312l53.679688 47.25 21.253906-24.148438-66.667969-58.664062zm0 0"/><path d="m96.457031 417.984375h32.152344v32.152344h-32.152344zm0 0"/><path d="m192.917969 417.984375h32.152343v32.152344h-32.152343zm0 0"/><path d="m289.375 417.984375h32.152344v32.152344h-32.152344zm0 0"/><path d="m385.832031 417.984375h32.152344v32.152344h-32.152344zm0 0"/></g><path d="m373.066406 144.6875c-2.054687-2.71875-3.308594-6.0625-3.308594-9.710938v-54.59375h-225.070312v54.59375c0 3.648438-1.253906 6.992188-3.3125 9.710938zm0 0" fill="#444863"/><path d="m401.910156 112.535156h-289.375v-80.382812c0-17.765625 14.386719-32.152344 32.152344-32.152344h225.070312c17.761719 0 32.152344 14.386719 32.152344 32.152344zm0 0" fill="#35c9fc"/><path d="m241.144531 0h32.152344v112.535156h-32.152344zm0 0" fill="#00adfe"/><path d="m305.449219 0h32.15625v112.535156h-32.15625zm0 0" fill="#00adfe"/><path d="m176.839844 0h32.152344v112.535156h-32.152344zm0 0" fill="#00adfe"/></svg>