<svg height="512pt" viewBox="0 0 512 512" width="512pt" xmlns="http://www.w3.org/2000/svg"><path d="m512 512h-106l-36.335938-74.464844-32.046874-32.046875 67.871093-67.871093 32.0625 32.046874 74.449219 36.335938zm0 0" fill="#f9dc26"/><path d="m437.550781 369.664062-32.0625-32.046874-67.871093 67.871093 32.046874 32.046875 9.40625 19.28125 77.746094-77.761718zm0 0" fill="#f2bc0e"/><path d="m350.0625 440.558594-331.308594-331.3125c-12.097656-12.078125-18.753906-28.15625-18.753906-45.246094s6.65625-33.167969 18.753906-45.246094c12.078125-12.082031 28.15625-18.753906 45.246094-18.753906s33.167969 6.671875 45.246094 18.753906l331.3125 331.308594zm0 0" fill="#f85566"/><path d="m74.175781 164.6875-55.421875-55.441406c-12.097656-12.078125-18.753906-28.15625-18.753906-45.246094s6.65625-33.167969 18.753906-45.246094c24.15625-24.195312 66.335938-24.195312 90.492188 0l55.441406 55.421875zm0 0" fill="#c84f61"/><path d="m275.429688 365.941406 90.496093-90.496094 74.625 74.625-90.496093 90.496094zm0 0" fill="#c84f61"/><path d="m41.371094 64 22.628906-22.628906 22.625 22.628906-22.625 22.628906zm0 0" fill="#fff"/></svg>