<svg height="514.44361pt" viewBox="0 0 514.44361 514.44361" width="514.44361pt" xmlns="http://www.w3.org/2000/svg"><path d="m80.382812 456.792969-80.382812-80.382813v-296.027344c0-44.324218 36.058594-80.382812 80.382812-80.382812 44.320313 0 80.378907 36.058594 80.378907 80.382812v296.027344zm0 0" fill="#fdee93"/><path d="m0 344.257812v32.152344l80.382812 80.382813 80.378907-80.382813v-32.152344l-80.378907 80.382813zm0 0" fill="#f9dc26"/><path d="m466.214844 514.445312h-225.070313c-26.589843 0-48.226562-21.640624-48.226562-48.230468v-118.324219c0-22.921875 16.316406-42.808594 38.773437-47.277344l41.605469-8.328125v-51.140625h160.765625v51.140625l41.605469 8.328125c22.457031 4.46875 38.777343 24.355469 38.777343 47.277344v118.324219c0 26.589844-21.640624 48.230468-48.230468 48.230468zm0 0" fill="#515570"/><path d="m466.214844 482.289062h-225.070313c-26.589843 0-48.226562-21.636718-48.226562-48.226562v32.152344c0 26.589844 21.636719 48.230468 48.226562 48.230468h225.070313c26.589844 0 48.230468-21.640624 48.230468-48.230468v-32.152344c0 26.589844-21.640624 48.226562-48.230468 48.226562zm0 0" fill="#444863"/><g fill="#f9dc26"><path d="m91.746094 348.96875 69.015625-69.015625v-45.464844l-91.746094 91.75zm0 0"/><path d="m91.746094 220.359375 69.015625-69.015625v-45.464844l-91.746094 91.746094zm0 0"/><path d="m0 215.648438 69.015625 69.015624 22.730469-22.730468-91.746094-91.75zm0 0"/></g><path d="m488.785156 305.449219c-4.066406-2.167969-8.40625-3.921875-13.101562-4.851563l-41.621094-8.3125v-51.140625h-160.765625v51.140625l-41.605469 8.328125c-4.691406.914063-9.035156 2.667969-13.101562 4.835938zm0 0" fill="#444863"/><path d="m466.214844 273.296875h-225.070313v-80.378906c0-17.765625 14.390625-32.15625 32.152344-32.15625h160.765625c17.765625 0 32.152344 14.390625 32.152344 32.15625zm0 0" fill="#f9dc26"/><path d="m192.917969 401.910156h321.527343v32.152344h-321.527343zm0 0" fill="#f9dc26"/><path d="m225.070312 337.605469h32.152344v32.152343h-32.152344zm0 0" fill="#fff"/><path d="m289.375 337.605469h32.152344v32.152343h-32.152344zm0 0" fill="#fff"/><path d="m96.457031 514.445312h-32.152343v-401.910156c0-8.875 7.203124-16.078125 16.078124-16.078125s16.074219 7.203125 16.074219 16.078125zm0 0" fill="#c7cce1"/></svg>