<svg height="512pt" viewBox="-16 0 512 512" width="512pt" xmlns="http://www.w3.org/2000/svg"><path d="m352 512h-224v-136.464844c-47.632812-39.214844-70.832031-98.605468-62.273438-160.496094 10.785157-77.984374 75.457032-141.007812 153.777344-149.886718 50.144532-5.664063 100.335938 10.175781 137.664063 43.535156 37.390625 33.375 58.832031 81.25 58.832031 131.3125 0 52.976562-23.214844 101.921875-64 135.535156zm0 0" fill="#fdee93"/><g fill="#f9dc26"><path d="m224 0h32v32h-32zm0 0"/><path d="m106.144531 40.144531 27.714844-15.996093 15.996094 27.714843-27.714844 16zm0 0"/><path d="m24.160156 133.855469 16-27.714844 27.714844 15.996094-15.996094 27.714843zm0 0"/><path d="m0 224h32v32h-32zm0 0"/><path d="m448 224h32v32h-32zm0 0"/><path d="m412.136719 122.152344 27.714843-15.996094 15.996094 27.714844-27.714844 15.996094zm0 0"/><path d="m330.132812 51.851562 15.996094-27.714843 27.714844 15.996093-15.996094 27.714844zm0 0"/></g><path d="m224 96h32v32h-32zm0 0" fill="#fff"/><path d="m288 304h-96v-36.847656l48-72 48 72zm0 0" fill="#fbc0aa"/><path d="m192 267.152344h96v164.847656h-96zm0 0" fill="#4bc18f"/><path d="m192 368h96v64h-96zm0 0" fill="#44a79b"/><path d="m128 400h224v112h-224zm0 0" fill="#515570"/></svg>