<svg height="512pt" viewBox="-64 0 512 512" width="512pt" xmlns="http://www.w3.org/2000/svg"><path d="m298.191406 512h-212.382812l-4.144532-2.910156c-51.136718-35.96875-81.664062-94.691406-81.664062-157.089844 0-75.886719 43.617188-143.214844 112-174.433594v-113.566406h160v113.566406c68.382812 31.234375 112 98.546875 112 174.433594 0 62.398438-30.527344 121.121094-81.664062 157.089844zm0 0" fill="#e9f0f8"/><path d="m112 64h160v64h-160zm0 0" fill="#c3d9ed"/><path d="m256 96h-128c-26.464844 0-48-21.535156-48-48s21.535156-48 48-48h128c26.464844 0 48 21.535156 48 48s-21.535156 48-48 48zm0 0" fill="#515570"/><path d="m6.113281 304c-3.9375 15.425781-6.113281 31.488281-6.113281 48 0 62.398438 30.527344 121.121094 81.664062 157.089844l4.144532 2.910156h212.367187l4.144531-2.910156c51.152344-35.96875 81.679688-94.691406 81.679688-157.089844 0-16.511719-2.175781-32.574219-6.113281-48zm0 0" fill="#4bc18f"/><path d="m225.648438 477.089844h-67.296876c-79.9375 0-149.582031-59.328125-157.199218-138.914063-.046875-.558593-.113282-1.121093-.160156-1.679687-.417969 5.152344-.992188 10.257812-.992188 15.503906 0 62.398438 30.527344 121.121094 81.664062 157.089844l4.144532 2.910156h212.367187l4.144531-2.910156c51.152344-35.96875 81.679688-94.691406 81.679688-157.089844 0-5.246094-.574219-10.351562-1.007812-15.503906-.046876.558594-.097657 1.121094-.160157 1.679687-7.601562 79.585938-77.246093 138.914063-157.183593 138.914063zm0 0" fill="#44a79b"/><g fill="#fff"><path d="m80 352h32v32h-32zm0 0"/><path d="m112 416h32v32h-32zm0 0"/><path d="m176 368h32v32h-32zm0 0"/><path d="m272 352h32v32h-32zm0 0"/><path d="m240 416h32v32h-32zm0 0"/></g><path d="m256 48h-128c-17.679688 0-32.992188-9.726562-41.328125-24-4.128906 7.089844-6.671875 15.214844-6.671875 24 0 26.464844 21.535156 48 48 48h128c26.464844 0 48-21.535156 48-48 0-8.785156-2.542969-16.910156-6.671875-24-8.335937 14.273438-23.648437 24-41.328125 24zm0 0" fill="#444863"/></svg>