<svg height="514pt" viewBox="-1 0 514 514.44361" width="514pt" xmlns="http://www.w3.org/2000/svg"><path d="m463.863281 514.445312h-270.53125c-16.191406 0-31.1875-8.054687-40.160156-21.542968-8.96875-13.503906-10.5625-30.480469-4.292969-45.402344l108.566406-257.832031v-173.589844h128.609376v173.222656l121.425781 256.191407c7.121093 15.046874 6.074219 32.425781-2.816407 46.492187-8.90625 14.066406-24.160156 22.460937-40.800781 22.460937zm0 0" fill="#4bc18f"/><path d="m402.132812 32.152344h-160.765624c-8.875 0-16.078126-7.203125-16.078126-16.074219 0-8.875 7.203126-16.078125 16.078126-16.078125h160.765624c8.871094 0 16.074219 7.203125 16.074219 16.078125 0 8.871094-7.203125 16.074219-16.074219 16.074219zm0 0" fill="#44a79b"/><path d="m509.085938 450.394531c-1.171876 3.230469-2.523438 6.449219-4.421876 9.4375-8.90625 14.066407-24.160156 22.457031-40.800781 22.457031h-65.832031c-43.421875 0-76.492188-36.105468-76.28125-79.527343 0-.289063 0-.5625 0-.851563 0-64.035156-34.96875-122.003906-89.226562-153.0625l-82.808594 196.660156c-4.855469 11.542969-6.140625 24.628907-1.992188 36.460938 6.785156 19.339844 24.050782 31.269531 43.277344 32.203125.546875.175781 1.300781.273437 2.332031.273437h269.535157c11.109374 0 22.21875-3.265624 30.851562-10.257812 17.199219-13.90625 21.910156-35.0625 15.367188-53.792969zm0 0" fill="#44a79b"/><path d="m235.851562 514.445312h-181.886718l-4.550782-4.003906c-31.265624-27.523437-49.191406-67.085937-49.191406-108.53125 0-61.703125 39.082032-116.074218 96.457032-136.3125v-185.214844h96.457031v185.214844c57.378906 20.238282 96.460937 74.609375 96.460937 136.3125 0 41.445313-17.925781 81.007813-49.195312 108.53125zm0 0" fill="#e9f0f8"/><path d="m181.949219 478.289062h-74.082031c-53.113282 0-100.121094-38.441406-106.550782-91.171874-.050781-.351563-.082031-.707032-.128906-1.058594-.5625 5.222656-.964844 10.496094-.964844 15.851562 0 41.445313 17.925782 81.007813 49.191406 108.53125l4.550782 4.003906h181.886718l4.550782-4.003906c31.269531-27.523437 49.195312-67.085937 49.195312-108.53125 0-5.355468-.402344-10.628906-.964844-15.851562-.050781.351562-.082031.707031-.128906 1.058594-6.429687 52.730468-53.4375 91.171874-106.554687 91.171874zm0 0" fill="#c3d9ed"/><path d="m201.175781 96.457031h-112.535156c-8.871094 0-16.074219-7.199219-16.074219-16.074219s7.203125-16.078124 16.074219-16.078124h112.535156c8.875 0 16.078125 7.203124 16.078125 16.078124s-7.203125 16.074219-16.078125 16.074219zm0 0" fill="#c3d9ed"/><g fill="#fff"><path d="m128.832031 305.449219h32.152344v32.15625h-32.152344zm0 0"/><path d="m128.832031 369.757812h32.152344v32.152344h-32.152344zm0 0"/></g></svg>