<svg height="512pt" viewBox="-80 0 512 512" width="512pt" xmlns="http://www.w3.org/2000/svg"><path d="m96 160h96v128h-96zm0 0" fill="#444863"/><path d="m256 384h-192v-32h192c35.296875 0 64-28.703125 64-64v-80c0-35.296875-28.703125-64-64-64h-48v-32h48c52.945312 0 96 43.054688 96 96v80c0 52.945312-43.054688 96-96 96zm0 0" fill="#c7cce1"/><path d="m96 16h96v80h-96zm0 0" fill="#515570"/><path d="m288 512h-288v-48c0-26.464844 21.535156-48 48-48h192c26.464844 0 48 21.535156 48 48zm0 0" fill="#366cb6"/><path d="m0 480h288v32h-288zm0 0" fill="#215faa"/><path d="m208 112h48v32h-48zm0 0" fill="#9ca3c2"/><path d="m64 64h160v128h-160zm0 0" fill="#c7cce1"/><path d="m64 0h160v32h-160zm0 0" fill="#366cb6"/><path d="m128 128h32v32h-32zm0 0" fill="#fff"/></svg>