<svg height="514pt" viewBox="-64 0 514 514.44361" width="514pt" xmlns="http://www.w3.org/2000/svg"><path d="m.222656 112.535156v369.753906c0 17.765626 14.386719 32.15625 32.152344 32.15625h321.527344c17.765625 0 32.152344-14.390624 32.152344-32.15625v-369.753906zm0 0" fill="#c7cce1"/><path d="m.222656 113.289062v78.871094h289.375c35.511719 0 64.304688 28.792969 64.304688 64.304688v225.824218c0 17.765626-14.390625 32.15625-32.152344 32.15625h32.152344c17.765625 0 32.152344-14.390624 32.152344-32.15625v-369.753906zm0 0" fill="#b1b6cf"/><path d="m305.671875 385.832031c0 44.394531-35.988281 80.382813-80.382813 80.382813-44.390624 0-80.378906-35.988282-80.378906-80.382813s35.988282-80.382812 80.378906-80.382812c44.394532 0 80.382813 35.988281 80.382813 80.382812zm0 0" fill="#d89879"/><path d="m232.523438 358.179688c-13.339844 26.046874-40.351563 43.730468-71.539063 43.730468-44.371094 0-80.378906-36.011718-80.378906-80.382812 0-31.1875 17.683593-58.195313 43.726562-71.539063zm0 0" fill="#4bc18f"/><path d="m225.289062 305.449219c-38.566406 0-70.816406 27.332031-78.5625 63.617187l101.28125 93.484375c33.210938-9.871093 57.664063-40.335937 57.664063-76.71875 0-44.320312-36.058594-80.382812-80.382813-80.382812zm0 0" fill="#d18161"/><path d="m386.054688 160.761719v-128.609375c0-17.765625-14.386719-32.152344-32.152344-32.152344h-192.917969v160.761719zm0 0" fill="#f2bc0e"/><path d="m193.136719 0h-160.761719c-17.765625 0-32.152344 14.386719-32.152344 32.152344v128.609375h192.914063zm0 0" fill="#f9dc26"/><path d="m160.984375 241.144531c-40.09375 0-73.128906 29.597657-79.125 68.019531l97.839844 90.316407c35.285156-8.472657 61.667969-40.109375 61.667969-77.953125 0-44.324219-36.058594-80.382813-80.382813-80.382813zm0 0" fill="#44a79b"/><path d="m321.75 486.855469-266.191406-245.710938h234.039062c17.761719 0 32.152344 14.390625 32.152344 32.152344zm0 0" fill="#fdee93"/><path d="m55.558594 241.144531 266.191406 245.710938c0-20.496094-8.570312-40.0625-23.632812-53.96875l-186.632813-172.273438c-13.550781-12.507812-31.347656-19.46875-49.800781-19.46875zm0 0" fill="#f9dc26"/><g fill="#fff"><path d="m257.445312 273.296875h32.152344v32.152344h-32.152344zm0 0"/><path d="m257.445312 337.605469h32.152344v32.152343h-32.152344zm0 0"/></g></svg>