<svg height="505.93921pt" viewBox="0 0 505.93921 505.93921" width="505.93921pt" xmlns="http://www.w3.org/2000/svg"><path d="m252.960938 505.9375-56.75-41.203125-69.738282 7.316406-28.535156-64.046875-64.066406-28.539062 7.332031-69.738282-41.203125-56.765624 41.203125-56.75-7.332031-69.738282 64.066406-28.535156 28.535156-64.066406 69.738282 7.332031 56.75-41.203125 56.765624 41.203125 69.738282-7.332031 28.539062 64.066406 64.046875 28.535156-7.316406 69.738282 41.203125 56.75-41.203125 56.765624 7.316406 69.738282-64.046875 28.539062-28.539062 64.046875-69.738282-7.316406zm0 0" fill="#ffd8c9"/><path d="m413.726562 252.960938c0 88.789062-71.976562 160.765624-160.765624 160.765624-88.785157 0-160.761719-71.976562-160.761719-160.765624 0-88.785157 71.976562-160.761719 160.761719-160.761719 88.789062 0 160.765624 71.976562 160.765624 160.761719zm0 0" fill="#f85566"/><g fill="#fff"><path d="m328.632812 200.023438-22.730468-22.734376-52.941406 52.941407-52.9375-52.941407-22.734376 22.734376 52.941407 52.9375-52.941407 52.941406 22.734376 22.730468 52.9375-52.9375 52.941406 52.9375 22.730468-22.730468-52.9375-52.941406zm0 0"/><path d="m236.886719 124.351562h32.152343v32.152344h-32.152343zm0 0"/></g></svg>