<svg height="512pt" viewBox="0 -3 512.36976 512" width="512pt" xmlns="http://www.w3.org/2000/svg"><path d="m144.6875 458.441406c-90.605469 0-144.6875-66.105468-144.6875-176.839844 0-117.292968 127.261719-261.804687 132.679688-267.894531l12.007812-13.523437 12.007812 13.523437c5.417969 6.089844 132.679688 150.601563 132.679688 267.894531 0 110.734376-54.082031 176.839844-144.6875 176.839844zm0 0" fill="#4bc18f"/><path d="m144.6875 426.289062c-84.691406 0-137.453125-57.792968-143.980469-155.765624-.242187 3.683593-.707031 7.429687-.707031 11.078124 0 110.734376 54.082031 176.839844 144.6875 176.839844s144.6875-66.105468 144.6875-176.839844c0-3.648437-.464844-7.378906-.707031-11.078124-6.527344 97.972656-59.289063 155.765624-143.980469 155.765624zm0 0" fill="#44a79b"/><path d="m482.289062 332.660156-48.226562-28.132812v-29.773438l48.226562-28.132812v-50.59375l30.082032-12.023438-11.929688-29.855468-28.824218 11.527343-37.554688-21.914062v-39h-32.152344v39l-32.152344 18.761719-32.152343-18.761719v-39h-32.15625v39l-48.226563 28.136719v74.722656l48.226563 28.132812v29.773438l-48.226563 28.132812v74.722656l48.226563 28.132813v39.003906h32.15625v-39.003906l32.152343-18.761719 32.152344 18.761719v39.003906h32.152344v-39.003906l37.554688-21.894531 28.824218 11.527344 11.929688-29.855469-30.082032-12.039063zm-112.53125-9.386718-32.152343-18.761719v-29.773438l32.152343-18.761719 32.152344 18.761719v29.773438zm80.378907-95.109376-32.152344 18.761719-32.152344-18.761719v-37.8125l32.152344-18.761718 32.152344 18.761718zm-160.761719-37.8125 32.152344-18.761718 32.152344 18.761718v37.8125l-32.152344 18.761719-32.152344-18.761719zm0 160.765626 32.152344-18.761719 32.152344 18.761719v37.808593l-32.152344 18.761719-32.152344-18.761719zm160.761719 37.808593-32.152344 18.761719-32.152344-18.761719v-37.808593l32.152344-18.761719 32.152344 18.761719zm0 0" fill="#366cb6"/><path d="m199.347656 300.894531-38.585937 28.9375v-72.34375l57.875-43.40625-19.273438-25.722656-38.582031 28.9375v-198.898437c-2.042969-2.363282-3.636719-4.179688-4.085938-4.691407l-12.007812-13.523437-12.007812 13.523437c-.453126.511719-2.042969 2.328125-4.070313 4.691407v198.898437l-38.582031-28.9375-19.273438 25.722656 57.875 43.40625v72.34375l-38.585937-28.9375-19.273438 25.722657 57.875 43.40625v136.648437h32.152344v-136.648437l57.875-43.40625zm0 0" fill="#44a79b"/></svg>