<svg height="514pt" viewBox="0 -10 514.44361 514" width="514pt" xmlns="http://www.w3.org/2000/svg"><path d="m482.289062 493.640625h-450.136718c-17.765625 0-32.152344-14.386719-32.152344-32.152344v-369.753906c0-17.765625 14.386719-32.152344 32.152344-32.152344h450.136718c17.765626 0 32.15625 14.386719 32.15625 32.152344v369.753906c0 17.75-14.390624 32.152344-32.15625 32.152344zm0 0" fill="#35c9fc"/><path d="m32.152344 59.582031v342.28125l225.070312 61.394531 225.066406-61.394531v-342.28125zm0 0" fill="#00adfe"/><path d="m257.222656 429.914062-169.21875-46.152343c-13.988281-3.8125-23.699218-16.511719-23.699218-31.011719v-320.355469c0-21.203125 20.160156-36.589843 40.609374-31.027343l152.308594 41.542968 152.304688-41.542968c20.449218-5.5625 40.609375 9.824218 40.609375 31.027343v320.355469c0 14.5-9.707031 27.199219-23.695313 31.027344zm0 0" fill="#fdee93"/><g fill="#515570"><path d="m173.175781 154.15625-49.355469-13.453125c-8.570312-2.332031-13.617187-11.175781-11.285156-19.742187 2.332032-8.570313 11.171875-13.617188 19.742188-11.285157l49.351562 13.453125c8.570313 2.347656 13.617188 11.191406 11.289063 19.757813-2.332031 8.554687-11.175781 13.601562-19.742188 11.269531zm0 0"/><path d="m173.175781 234.539062-49.355469-13.457031c-8.570312-2.328125-13.617187-11.171875-11.285156-19.742187 2.332032-8.566406 11.171875-13.613282 19.742188-11.285156l49.351562 13.457031c8.570313 2.332031 13.617188 11.171875 11.289063 19.742187-2.332031 8.570313-11.175781 13.617188-19.742188 11.285156zm0 0"/><path d="m173.175781 314.921875-49.355469-13.457031c-8.570312-2.332032-13.617187-11.171875-11.285156-19.742188 2.332032-8.566406 11.171875-13.617187 19.742188-11.285156l49.351562 13.457031c8.570313 2.332031 13.617188 11.171875 11.289063 19.742188-2.332031 8.566406-11.175781 13.617187-19.742188 11.285156zm0 0"/><path d="m321.527344 142.886719c-2.332032-8.566407 2.71875-17.410157 11.285156-19.742188l49.355469-13.453125c8.566406-2.347656 17.410156 2.699219 19.742187 11.269532 2.328125 8.566406-2.71875 17.410156-11.285156 19.742187l-49.355469 13.453125c-8.570312 2.332031-17.410156-2.714844-19.742187-11.269531zm0 0"/><path d="m321.527344 223.269531c-2.332032-8.570312 2.71875-17.410156 11.285156-19.742187l49.355469-13.457032c8.566406-2.328124 17.410156 2.71875 19.742187 11.289063 2.328125 8.566406-2.71875 17.410156-11.285156 19.738281l-49.355469 13.457032c-8.570312 2.316406-17.410156-2.730469-19.742187-11.285157zm0 0"/><path d="m321.527344 303.652344c-2.332032-8.570313 2.71875-17.410156 11.285156-19.742188l49.355469-13.457031c8.566406-2.332031 17.410156 2.71875 19.742187 11.285156 2.328125 8.570313-2.71875 17.410157-11.285156 19.742188l-49.355469 13.457031c-8.570312 2.316406-17.410156-2.734375-19.742187-11.285156zm0 0"/></g><path d="m241.144531 425.542969 16.078125 4.371093 16.074219-4.371093v-387.023438l-16.074219 4.390625-16.078125-4.390625zm0 0" fill="#f9dc26"/><path d="m32.152344 429.335938h32.152344v32.152343h-32.152344zm0 0" fill="#fff"/><path d="m96.457031 429.335938h32.152344v32.152343h-32.152344zm0 0" fill="#fff"/></svg>