<svg height="514.44361pt" viewBox="0 0 514.44361 514.44361" width="514.44361pt" xmlns="http://www.w3.org/2000/svg"><path d="m450.136719 514.445312h-385.832031v-514.445312h385.832031c35.515625 0 64.308593 28.792969 64.308593 64.304688v385.832031c0 35.515625-28.792968 64.308593-64.308593 64.308593zm0 0" fill="#366cb6"/><path d="m385.832031 514.445312h-321.527343c-35.464844 0-64.304688-28.84375-64.304688-64.308593v-385.832031c0-35.464844 28.839844-64.304688 64.304688-64.304688h321.527343c35.464844 0 64.304688 28.839844 64.304688 64.304688v385.832031c0 35.464843-28.839844 64.308593-64.304688 64.308593zm0 0" fill="#f85566"/><path d="m112.535156 514.445312h-48.230468c-35.464844 0-64.304688-28.84375-64.304688-64.308593v-385.832031c0-35.464844 28.839844-64.304688 64.304688-64.304688h48.230468zm0 0" fill="#c84f61"/><path d="m353.679688 225.070312h-176.839844c-17.765625 0-32.152344-14.390624-32.152344-32.152343v-96.460938c0-17.761719 14.386719-32.152343 32.152344-32.152343h176.839844c17.765624 0 32.152343 14.390624 32.152343 32.152343v96.460938c0 17.761719-14.386719 32.152343-32.152343 32.152343zm0 0" fill="#ffd8c9"/><g fill="#fff"><path d="m305.449219 160.761719h-80.378907c-8.875 0-16.078124-7.199219-16.078124-16.074219s7.203124-16.078125 16.078124-16.078125h80.378907c8.875 0 16.078125 7.203125 16.078125 16.078125s-7.203125 16.074219-16.078125 16.074219zm0 0"/><path d="m257.222656 353.679688h128.609375v32.152343h-128.609375zm0 0"/><path d="m257.222656 417.984375h64.304688v32.152344h-64.304688zm0 0"/><path d="m353.679688 417.984375h32.152343v32.152344h-32.152343zm0 0"/></g></svg>