<svg height="514.44361pt" viewBox="0 0 514.44361 514.44361" width="514.44361pt" xmlns="http://www.w3.org/2000/svg"><path d="m514.445312 64.304688c0-35.511719-28.792968-64.304688-64.308593-64.304688h-112.53125v482.289062h144.683593c17.765626 0 32.15625-14.386718 32.15625-32.152343zm0 0" fill="#44a79b"/><path d="m64.304688 126.34375v355.945312c0 17.765626 14.390624 32.15625 32.152343 32.15625h305.453125c17.761719 0 32.152344-14.390624 32.152344-32.15625v-355.945312zm0 0" fill="#fdee93"/><g fill="#f9dc26"><path d="m160.761719 208.992188h225.070312v32.152343h-225.070312zm0 0"/><path d="m112.535156 273.296875h273.296875v32.152344h-273.296875zm0 0"/><path d="m112.535156 337.605469h273.296875v32.152343h-273.296875zm0 0"/><path d="m112.535156 401.910156h144.6875v32.152344h-144.6875zm0 0"/></g><path d="m434.0625 126.34375c-27.683594-7.1875-48.230469-32.105469-48.230469-62.039062 0-29.933594 20.546875-54.867188 48.230469-62.039063v-2.265625h-369.757812c-35.511719 0-64.304688 28.792969-64.304688 64.304688 0 35.511718 28.792969 64.304687 64.304688 64.304687h369.757812zm0 0" fill="#4bc18f"/><path d="m48.230469 48.230469h32.152343v32.152343h-32.152343zm0 0" fill="#fff"/><path d="m112.535156 48.230469h32.152344v32.152343h-32.152344zm0 0" fill="#fff"/></svg>