<svg height="512pt" viewBox="0 -2 512 512" width="512pt" xmlns="http://www.w3.org/2000/svg"><path d="m87.863281 132.167969h326.257813v228.382812h-326.257813zm0 0" fill="#515570"/><path d="m446.746094 115.855469h32.628906v293.632812h-32.628906zm0 0" fill="#c7cce1"/><path d="m414.121094 132.167969h-326.257813v60.179687l95.757813 44.191406c-36.835938 14.0625-63.132813 49.671876-63.132813 91.386719v32.625h261.007813v-32.625c0-41.730469-26.28125-77.324219-63.132813-91.386719l95.757813-44.191406zm0 0" fill="#444863"/><path d="m250.992188 231.695312-250.992188-115.839843 250.992188-115.855469 250.992187 115.855469zm0 0" fill="#515570"/><path d="m463.0625 323.960938-16.316406 16.3125v69.214843h32.628906v-69.214843zm0 0" fill="#9ca3c2"/><path d="m512 507.367188h-97.878906v-19.117188c0-44.324219 17.601562-86.820312 48.941406-118.15625 31.335938 31.335938 48.9375 73.832031 48.9375 118.15625zm0 0" fill="#f9dc26"/><path d="m234.679688 50.601562h32.625v32.628907h-32.625zm0 0" fill="#fff"/><path d="m283.617188 507.367188h-65.25c-35.988282 0-65.253907-29.265626-65.253907-65.253907v-114.1875c0-35.988281 29.265625-65.253906 65.253907-65.253906h65.25c35.988281 0 65.253906 29.265625 65.253906 65.253906v114.1875c0 35.972657-29.265625 65.253907-65.253906 65.253907zm0 0" fill="#4bc18f"/><g fill="#44a79b"><path d="m234.679688 262.671875h-16.3125c-36.035157 0-65.253907 29.214844-65.253907 65.253906v48.9375h48.941407c18.023437 0 32.625-14.601562 32.625-32.625zm0 0"/><path d="m283.617188 262.671875h-16.3125v81.566406c0 18.023438 14.601562 32.625 32.625 32.625h48.941406v-48.9375c0-36.054687-29.21875-65.253906-65.253906-65.253906zm0 0"/></g></svg>