<svg height="491pt" viewBox="-26 0 491 491.61517" width="491pt" xmlns="http://www.w3.org/2000/svg"><path d="m90.996094 105.78125h257.21875v192.917969h-257.21875zm0 0" fill="#444863"/><path d="m380.367188 89.707031h32.15625v128.609375h-32.15625zm0 0" fill="#f9dc26"/><path d="m219.605469 179.414062-219.296875-89.707031 219.296875-89.707031 219.28125 89.707031zm0 0" fill="#515570"/><path d="m380.367188 250.46875h32.15625v32.152344h-32.15625zm0 0" fill="#f2bc0e"/><path d="m203.527344 73.628906h32.152344v32.152344h-32.152344zm0 0" fill="#fff"/><path d="m364.292969 346.929688c0 79.90625-64.777344 144.683593-144.6875 144.683593-79.910157 0-144.6875-64.777343-144.6875-144.683593 0-79.910157 64.777343-144.6875 144.6875-144.6875 79.910156 0 144.6875 64.777343 144.6875 144.6875zm0 0" fill="#35c9fc"/><path d="m363.34375 330.851562c-1.238281 11.171876-3.890625 21.894532-7.539062 32.152344h-65.496094c.257812-5.371094.484375-10.738281.484375-16.074218 0-5.339844-.226563-10.707032-.484375-16.078126h73.035156c-1.238281-11.171874-3.859375-21.894531-7.492188-32.152343h-68.644531c-5.339843-37.136719-16.527343-71.316407-32.605469-92.003907-11.234374-2.816406-22.90625-4.453124-34.996093-4.453124-12.089844 0-23.777344 1.65625-35 4.453124-16.074219 20.6875-27.265625 54.867188-32.601563 92.003907h-68.644531c-3.652344 10.257812-6.253906 20.980469-7.492187 32.152343h73.035156c-.257813 5.371094-.484375 10.738282-.484375 16.078126 0 5.335937.226562 10.703124.484375 16.074218h-65.511719c-3.648437-10.257812-6.300781-20.980468-7.539063-32.152344-.597656 5.289063-.949218 10.640626-.949218 16.078126 0 5.433593.351562 10.785156.949218 16.074218 1.238282 11.15625 3.855469 21.894532 7.492188 32.152344 19.917969 56.105469 73.386719 96.457031 136.246094 96.457031 74.351562 0 135.699218-56.363281 143.738281-128.609375.59375-5.289062.949219-10.640625.949219-16.074218 0-5.4375-.355469-10.789063-.933594-16.078126zm-143.738281-112.535156c7.363281 0 27.023437 28.859375 35.269531 80.382813h-70.558594c8.265625-51.523438 27.925782-80.382813 35.289063-80.382813zm-120.089844 176.839844h52.472656c2.75 19.082031 7.042969 37.28125 12.78125 53.375-26.65625-11.011719-49.355469-29.695312-65.253906-53.375zm135.378906 63.339844c-5.03125.53125-10.113281.984375-15.289062.984375s-10.257813-.4375-15.289063-.984375c-7.507812-13.566406-15.449218-34.996094-19.984375-63.324219h70.5625c-4.550781 28.3125-12.492187 49.757813-20 63.324219zm23.34375-95.492188h-77.265625c-.257812-5.207031-.417968-10.546875-.417968-16.074218 0-5.53125.160156-10.871094.417968-16.078126h77.265625c.253907 5.207032.417969 10.546876.417969 16.078126 0 5.527343-.164062 10.867187-.417969 16.074218zm16.1875 85.527344c5.738281-16.078125 10.03125-34.277344 12.78125-53.375h52.472657c-15.882813 23.679688-38.597657 42.363281-65.253907 53.375zm0 0" fill="#00adfe"/></svg>