<svg height="512pt" viewBox="-48 0 512 512" width="512pt" xmlns="http://www.w3.org/2000/svg"><path d="m368 512h-320c-26.464844 0-48-21.535156-48-48v-416c0-26.464844 21.535156-48 48-48h320c26.464844 0 48 21.535156 48 48v416c0 26.464844-21.535156 48-48 48zm0 0" fill="#e9f0f8"/><path d="m0 48h416v336h-416zm0 0" fill="#366cb6"/><path d="m192 432h32v32h-32zm0 0" fill="#515570"/><path d="m320 64v256c0 35.359375-28.640625 64-64 64h-256v-336h317.921875c1.4375 5.121094 2.078125 10.398438 2.078125 16zm0 0" fill="#4bc18f"/><g fill="#fff"><path d="m112 80h64v32h-64zm0 0"/><path d="m64 144h112v32h-112zm0 0"/><path d="m64 208h112v32h-112zm0 0"/><path d="m64 272h112v32h-112zm0 0"/></g><path d="m317.921875 48c-7.042969-27.679688-32.160156-48-61.921875-48h-48v256h48c29.761719 0 54.878906 20.320312 61.921875 48 1.4375 5.121094 2.078125 10.398438 2.078125 16v-256c0-5.601562-.640625-10.878906-2.078125-16zm0 0" fill="#44a79b"/></svg>