<svg height="512pt" viewBox="0 -7 512 511" width="512pt" xmlns="http://www.w3.org/2000/svg"><path d="m512 337.589844h-512v-240c0-26.515625 21.488281-48 48-48h416c26.511719 0 48 21.484375 48 48zm0 0" fill="#35c9fc"/><path d="m176 385.589844h160v96h-160zm0 0" fill="#c3d9ed"/><path d="m160 65.589844h192v144h-192zm0 0" fill="#515570"/><path d="m368 497.589844h-224c-8.832031 0-16-7.167969-16-16 0-8.832032 7.167969-16 16-16h224c8.832031 0 16 7.167968 16 16 0 8.832031-7.167969 16-16 16zm0 0" fill="#e9f0f8"/><path d="m0 321.589844v48c0 26.460937 21.535156 48 48 48h416c26.464844 0 48-21.539063 48-48v-48zm0 0" fill="#e9f0f8"/><path d="m160 128.851562 96 36 96-36v-63.261718h-192zm0 0" fill="#444863"/><path d="m256 130.675781-173.566406-65.085937 173.566406-65.089844 173.566406 65.089844zm0 0" fill="#515570"/><g fill="#fff"><path d="m208 257.589844h32v32h-32zm0 0"/><path d="m272 257.589844h32v32h-32zm0 0"/></g></svg>