<svg height="512pt" viewBox="-16 0 512 512" width="512pt" xmlns="http://www.w3.org/2000/svg"><path d="m176 512h-144v-448c0-35.34375 28.65625-64 64-64h288c35.34375 0 64 28.65625 64 64v176c0 150.222656-121.777344 272-272 272zm0 0" fill="#d89879"/><path d="m240 324.496094-37.503906-30c-6.894532-5.535156-8.015625-15.601563-2.496094-22.496094s15.585938-8.015625 22.480469-2.496094l17.519531 14 17.519531-14c6.894531-5.519531 16.960938-4.398437 22.480469 2.496094s4.398438 16.960938-2.496094 22.480469zm0 0" fill="#515570"/><path d="m48 512h-16v-208h64c44.175781 0 80 35.824219 80 80 0 70.6875-57.3125 128-128 128zm0 0" fill="#d18161"/><path d="m256 64h-32c0-17.648438-14.351562-32-32-32h-176c-8.832031 0-16-7.167969-16-16s7.167969-16 16-16h176c19.089844 0 36.273438 8.398438 48 21.710938 11.726562-13.3125 28.910156-21.710938 48-21.710938h176c8.832031 0 16 7.167969 16 16s-7.167969 16-16 16h-176c-17.648438 0-32 14.351562-32 32zm0 0" fill="#515570"/><g fill="#d18161"><path d="m288 400h32v32h-32zm0 0"/><path d="m336 336h32v32h-32zm0 0"/><path d="m224 432h32v32h-32zm0 0"/><path d="m224 368h32v32h-32zm0 0"/></g><path d="m304 80c-26.257812 0-49.40625 12.894531-64 32.496094-14.59375-19.601563-37.742188-32.496094-64-32.496094-44.113281 0-80 35.886719-80 80s35.886719 80 80 80c26.257812 0 49.40625-12.894531 64-32.496094 14.59375 19.601563 37.742188 32.496094 64 32.496094 44.113281 0 80-35.886719 80-80s-35.886719-80-80-80zm0 0" fill="#515570"/><path d="m288 144h32v32h-32zm0 0" fill="#fff"/><path d="m160 144h32v32h-32zm0 0" fill="#fff"/></svg>