<svg height="514pt" viewBox="0 -2 514.44361 514" width="514pt" xmlns="http://www.w3.org/2000/svg"><path d="m80.382812 386.054688h225.066407v32.152343h-225.066407zm0 0" fill="#d18161"/><path d="m305.886719 510.371094-45.257813-188.621094h-135.425781l-45.253906 188.621094-31.285157-7.488282 51.203126-213.285156h186.097656l51.203125 213.285156zm0 0" fill="#d89879"/><path d="m32.152344 16.296875h321.527344v289.375h-321.527344zm0 0" fill="#e9f0f8"/><path d="m353.679688 16.296875h-321.527344v48.230469h155.683594s-8.003907 118.867187 80.898437 192.917968h-236.582031v48.226563h321.527344zm0 0" fill="#c3d9ed"/><path d="m369.757812 32.375h-353.679687c-8.875 0-16.078125-7.203125-16.078125-16.078125 0-8.871094 7.203125-16.074219 16.078125-16.074219h353.679687c8.871094 0 16.074219 7.203125 16.074219 16.074219 0 8.875-7.203125 16.078125-16.074219 16.078125zm0 0" fill="#d89879"/><path d="m285.964844 289.597656h-186.097656l-15.433594 64.304688h33.050781l7.71875-32.152344h135.425781l7.71875 32.152344h33.050782zm0 0" fill="#d18161"/><path d="m369.757812 321.75h-353.679687c-8.875 0-16.078125-7.203125-16.078125-16.078125s7.203125-16.074219 16.078125-16.074219h353.679687c8.871094 0 16.074219 7.199219 16.074219 16.074219s-7.203125 16.078125-16.074219 16.078125zm0 0" fill="#d89879"/><path d="m192.917969 241.367188c-44.324219 0-80.382813-36.058594-80.382813-80.382813 0-44.320313 36.058594-80.378906 80.382813-80.378906 44.320312 0 80.378906 36.058593 80.378906 80.378906 0 44.324219-36.058594 80.382813-80.378906 80.382813zm0-128.609376c-26.59375 0-48.230469 21.636719-48.230469 48.226563s21.636719 48.230469 48.230469 48.230469c26.589843 0 48.226562-21.640625 48.226562-48.230469s-21.636719-48.226563-48.226562-48.226563zm0 0" fill="#35c9fc"/><path d="m514.445312 418.207031-208.996093-209.152343 47.585937-47.765626 161.410156 161.410157zm0 0" fill="#4bc18f"/><path d="m305.449219 209.054688 208.996093 209.152343v-32.152343l-192.949218-193.09375zm0 0" fill="#44a79b"/><path d="m320.722656 240.515625c-16.460937 0-32.941406-6.269531-45.480468-18.792969-37.457032-37.457031-49.515626-119.304687-50.011719-122.777344l-3.023438-21.21875 21.222657 3.023438c3.472656.496094 85.316406 12.554688 122.773437 50.011719 25.0625 25.078125 25.0625 65.882812 0 90.945312-12.554687 12.554688-29.015625 18.808594-45.480469 18.808594zm0 0" fill="#515570"/><path d="m366.1875 189.570312c-12.539062 12.523438-29.019531 18.792969-45.464844 18.792969-16.460937 0-32.941406-6.269531-45.480468-18.792969-29.5625-29.566406-43.261719-86.605468-47.988282-111.121093l-5.0625-.722657 3.023438 21.21875c.496094 3.472657 12.554687 85.320313 50.011718 122.777344 12.539063 12.523438 29.019532 18.792969 45.480469 18.792969 16.445313 0 32.925781-6.269531 45.464844-18.792969 16.65625-16.671875 21.976563-40.222656 16.492187-61.558594-2.746093 10.773438-8.070312 20.996094-16.476562 29.40625zm0 0" fill="#444863"/><path d="m266.636719 144.910156 22.734375-22.734375 22.734375 22.734375-22.734375 22.734375zm0 0" fill="#fff"/></svg>