<svg height="514.44361pt" viewBox="0 0 514.44361 514.44361" width="514.44361pt" xmlns="http://www.w3.org/2000/svg"><path d="m464.203125 450.136719h-413.964844l-31.589843-236.898438c-2.570313-19.277343 12.425781-36.398437 31.863281-36.398437h413.402343c19.453126 0 34.4375 17.121094 31.863282 36.398437zm0 0" fill="#515570"/><path d="m390.351562 450.136719h-266.257812l62.488281-250.066407c-26.429687-21.15625-41.894531-53.085937-41.894531-87.535156 0-62.039062 50.480469-112.535156 112.535156-112.535156 62.054688 0 112.535156 50.496094 112.535156 112.535156 0 34.449219-15.46875 66.378906-41.894531 87.535156zm-225.070312-32.152344h183.882812l-57.941406-231.867187 9.710938-6.238282c22.957031-14.757812 36.671875-39.933594 36.671875-67.34375 0-44.324218-36.0625-80.382812-80.382813-80.382812-44.324218 0-80.382812 36.058594-80.382812 80.382812 0 27.410156 13.714844 52.585938 36.671875 67.34375l9.707031 6.238282zm0 0" fill="#c7cce1"/><path d="m349.164062 417.984375h-183.882812l8.023438-32.152344h-33.136719l-16.074219 64.304688h266.257812l-16.078124-64.304688h-33.132813zm0 0" fill="#9ca3c2"/><path d="m514.445312 514.445312h-514.445312v-64.308593c0-17.761719 14.386719-32.152344 32.152344-32.152344h450.136718c17.765626 0 32.15625 14.390625 32.15625 32.152344zm0 0" fill="#c7cce1"/><g fill="#fff"><path d="m32.152344 450.136719h32.152344v32.152343h-32.152344zm0 0"/><path d="m96.457031 450.136719h32.152344v32.152343h-32.152344zm0 0"/></g></svg>