<svg height="514pt" viewBox="0 0 514.44481 514" width="514pt" xmlns="http://www.w3.org/2000/svg"><path d="m198.878906 116.695312c-27.84375-21.945312-54.144531-40.253906-78.160156-54.402343l16.332031-27.699219c25.238281 14.871094 52.746094 33.984375 81.734375 56.847656zm0 0" fill="#c7cce1"/><path d="m442.953125 378.613281c-12.539063-19.726562-27.683594-40.851562-45-62.828125l25.257813-19.902344c17.972656 22.828126 33.742187 44.851563 46.863281 65.464844zm0 0" fill="#c7cce1"/><path d="m435.074219 366.636719c6.398437-10.386719 11.945312-21.320313 16.460937-32.78125-8.710937-12.347657-18.117187-25-28.324218-37.972657l-25.257813 19.902344c13.875 17.605469 26.269531 34.628906 37.121094 50.851563zm0 0" fill="#9ca3c2"/><path d="m198.878906 116.695312 19.90625-25.238281c-13.007812-10.257812-25.644531-19.628906-37.992187-28.328125-11.476563 4.519532-22.410157 10.082032-32.808594 16.480469 16.25 10.867187 33.210937 23.148437 50.894531 37.085937zm0 0" fill="#9ca3c2"/><path d="m434.0625 257.445312c0 97.664063-79.175781 176.839844-176.839844 176.839844-97.667968 0-176.839844-79.175781-176.839844-176.839844 0-97.667968 79.171876-176.839843 176.839844-176.839843 97.664063 0 176.839844 79.171875 176.839844 176.839843zm0 0" fill="#366cb6"/><path d="m257.222656 402.132812c-92.085937 0-167.871094-70.769531-176.019531-160.765624-.484375 5.304687-.820313 10.644531-.820313 16.078124 0 97.503907 79.335938 176.839844 176.839844 176.839844s176.839844-79.335937 176.839844-176.839844c0-5.433593-.339844-10.773437-.820312-16.078124-8.152344 89.996093-83.933594 160.765624-176.019532 160.765624zm0 0" fill="#215faa"/><path d="m514.445312 64.527344c0 35.515625-28.792968 64.304687-64.308593 64.304687-35.511719 0-64.304688-28.789062-64.304688-64.304687s28.792969-64.304688 64.304688-64.304688c35.515625 0 64.308593 28.789063 64.308593 64.304688zm0 0" fill="#f9dc26"/><path d="m450.136719 96.679688c-29.867188 0-54.835938-20.5625-62.019531-48.226563-1.351563 5.175781-2.285157 10.496094-2.285157 16.074219 0 35.464844 28.839844 64.304687 64.304688 64.304687 35.464843 0 64.308593-28.839843 64.308593-64.304687 0-5.578125-.933593-10.898438-2.285156-16.074219-7.183594 27.664063-32.152344 48.226563-62.023437 48.226563zm0 0" fill="#f2bc0e"/><path d="m369.757812 281.558594c0 31.074218-25.191406 56.265625-56.269531 56.265625-31.074219 0-56.265625-25.191407-56.265625-56.265625 0-31.074219 25.191406-56.265625 56.265625-56.265625 31.078125 0 56.269531 25.191406 56.269531 56.265625zm0 0" fill="#215faa"/><g fill="#f9dc26"><path d="m192.917969 482.511719h32.152343v32.152343h-32.152343zm0 0"/><path d="m64.304688 434.285156h32.152343v32.152344h-32.152343zm0 0"/><path d="m32.152344 337.824219h32.152344v32.15625h-32.152344zm0 0"/><path d="m0 225.292969h32.152344v32.152343h-32.152344zm0 0"/><path d="m257.222656.222656h32.152344v32.152344h-32.152344zm0 0"/><path d="m466.214844 194.152344h32.152344v32.152344h-32.152344zm0 0"/></g><path d="m145.523438 120.488281c-.289063 2.78125-.835938 5.484375-.835938 8.34375 0 44.324219 36.058594 80.382813 80.382812 80.382813 44.320313 0 80.378907-36.058594 80.378907-80.382813 0-16.574219-5.046875-31.976562-13.679688-44.789062-11.1875-2.21875-22.714843-3.4375-34.546875-3.4375-42.328125 0-81.21875 14.980469-111.699218 39.882812zm0 0" fill="#215faa"/><path d="m470.265625 514.601562c-23.839844 0-56.300781-12.28125-97.070313-36.796874-56.25-33.828126-122.128906-87.394532-185.550781-150.796876-63.421875-63.40625-116.957031-129.304687-150.796875-185.554687-38.4375-63.886719-46.816406-107.390625-24.917968-129.285156 23.359374-23.328125 70.929687-12.429688 141.390624 32.410156l-17.265624 27.121094c-69.257813-44.050781-96.636719-41.476563-101.378907-36.800781-15.898437 15.898437 31.71875 125.378906 175.714844 269.375 143.980469 143.980468 253.460937 191.664062 269.375 175.714843 4.710937-4.710937 7.285156-32.101562-36.8125-101.375l27.136719-17.265625c44.851562 70.476563 55.75 118.046875 32.410156 141.375-7.925781 7.925782-18.699219 11.878906-32.234375 11.878906zm0 0" fill="#c7cce1"/></svg>