<svg height="514.44361pt" viewBox="0 0 514.44361 514.44361" width="514.44361pt" xmlns="http://www.w3.org/2000/svg"><path d="m64.304688 305.449219h450.140624v208.996093h-450.140624zm0 0" fill="#d89879"/><path d="m64.304688 448.867188c5.175781.757812 10.5 1.269531 16.078124 1.269531h353.679688c31.476562 0 59.933594-13.019531 80.382812-33.9375v-110.75h-450.140624zm0 0" fill="#d18161"/><path d="m514.445312 32.152344v305.453125c0 44.367187-36.011718 80.378906-80.382812 80.378906h-353.679688c-5.46875 0-10.933593-.480469-16.078124-1.605469v-384.226562zm0 0" fill="#fdee93"/><path d="m64.304688 0h450.140624v128.609375h-450.140624zm0 0" fill="#ff8475"/><path d="m434.0625 417.984375h-353.679688c-5.46875 0-10.933593-.480469-16.078124-1.605469-36.652344-7.394531-64.304688-39.871094-64.304688-78.773437v-48.230469h369.757812v64.304688c0 42.410156 37.777344 64.304687 64.304688 64.304687zm0 0" fill="#f9dc26"/><g fill="#fff"><path d="m96.457031 32.152344h32.152344v32.152344h-32.152344zm0 0"/><path d="m160.761719 32.152344h32.15625v32.152344h-32.15625zm0 0"/></g></svg>