<svg height="503pt" viewBox="-41 0 503 503.06958" width="503pt" xmlns="http://www.w3.org/2000/svg"><path d="m353.714844 503.070312h-215.648438l-138.0312498-121.957031v-263.875h353.6796878zm0 0" fill="#35c9fc"/><path d="m225.105469 243.710938c0 26.636718-21.59375 48.226562-48.230469 48.226562s-48.230469-21.589844-48.230469-48.226562c0-26.636719 21.59375-48.230469 48.230469-48.230469s48.230469 21.59375 48.230469 48.230469zm0 0" fill="#00adfe"/><path d="m176.875 243.421875c-6.269531-6.269531-6.269531-16.464844 0-22.734375l56.847656-56.84375 22.730469 22.730469-56.847656 56.847656c-6.269531 6.285156-16.460938 6.285156-22.730469 0zm0 0" fill="#c7cce1"/><path d="m336.03125 152.445312 34.082031 34.082032-68.164062 68.324218-136.488281-136.488281 68.324218-68.164062 34.082032 34.082031 58.355468-58.359375 68.164063 68.164063zm0 0" fill="#366cb6"/><path d="m.0351562 381.113281 138.0312498 121.957031v-121.957031zm0 0" fill="#00adfe"/><path d="m290.53125 61.613281 35.695312-35.691406 68.160157 68.160156-35.695313 35.691407zm0 0" fill="#215faa"/><path d="m392.859375 118.378906-90.941406-90.945312c-6.269531-6.269532-6.269531-16.460938 0-22.730469s16.460937-6.269531 22.730469 0l90.945312 90.941406c6.269531 6.273438 6.269531 16.464844 0 22.734375-6.269531 6.285156-16.445312 6.285156-22.734375 0zm0 0" fill="#c7cce1"/><g fill="#fff"><path d="m32.1875 149.390625h32.152344v32.152344h-32.152344zm0 0"/><path d="m32.1875 213.695312h32.152344v32.152344h-32.152344zm0 0"/></g></svg>