<svg height="514.44361pt" viewBox="0 0 514.44361 514.44361" width="514.44361pt" xmlns="http://www.w3.org/2000/svg"><path d="m257.222656 514.445312c-141.828125 0-257.222656-115.398437-257.222656-257.222656 0-141.828125 115.394531-257.222656 257.222656-257.222656 141.824219 0 257.222656 115.394531 257.222656 257.222656 0 141.824219-115.398437 257.222656-257.222656 257.222656zm0-482.292968c-124.109375 0-225.070312 100.960937-225.070312 225.070312s100.960937 225.066406 225.070312 225.066406 225.066406-100.957031 225.066406-225.066406-100.957031-225.070312-225.066406-225.070312zm0 0" fill="#e9f0f8"/><path d="m257.222656 401.910156c-79.789062 0-144.6875-64.902344-144.6875-144.6875 0-79.789062 64.898438-144.6875 144.6875-144.6875 79.785156 0 144.6875 64.898438 144.6875 144.6875 0 79.785156-64.902344 144.6875-144.6875 144.6875zm0-257.222656c-62.039062 0-112.535156 50.496094-112.535156 112.535156 0 62.039063 50.496094 112.535156 112.535156 112.535156 62.039063 0 112.535156-50.496093 112.535156-112.535156 0-62.039062-50.496093-112.535156-112.535156-112.535156zm0 0" fill="#c7cce1"/><path d="m321.527344 257.222656c0 35.515625-28.789063 64.304688-64.304688 64.304688s-64.304687-28.789063-64.304687-64.304688 28.789062-64.304687 64.304687-64.304687 64.304688 28.789062 64.304688 64.304687zm0 0" fill="#4bc18f"/><path d="m257.222656 289.375c-29.886718 0-54.835937-20.5625-62.023437-48.230469-1.351563 5.175781-2.28125 10.5-2.28125 16.078125 0 35.464844 28.839843 64.304688 64.304687 64.304688s64.304688-28.839844 64.304688-64.304688c0-5.578125-.933594-10.902344-2.28125-16.078125-7.1875 27.667969-32.136719 48.230469-62.023438 48.230469zm0 0" fill="#44a79b"/><path d="m346.1875 16.1875c-7.296875 8.152344-13.261719 17.507812-17.472656 27.796875 59.835937 20.113281 108.433594 64.644531 133.980468 121.796875 9.789063-5.144531 18.550782-11.945312 25.992188-20-28.839844-59.644531-79.898438-106.410156-142.5-129.59375zm0 0" fill="#c3d9ed"/><path d="m482.289062 80.382812c0 35.515626-28.789062 64.304688-64.304687 64.304688s-64.304687-28.789062-64.304687-64.304688c0-35.515624 28.789062-64.304687 64.304687-64.304687s64.304687 28.789063 64.304687 64.304687zm0 0" fill="#35c9fc"/><path d="m417.984375 112.535156c-29.886719 0-54.835937-20.5625-62.023437-48.230468-1.347657 5.175781-2.28125 10.5-2.28125 16.078124 0 35.464844 28.839843 64.304688 64.304687 64.304688s64.304687-28.839844 64.304687-64.304688c0-5.578124-.929687-10.902343-2.28125-16.078124-7.1875 27.667968-32.136718 48.230468-62.023437 48.230468zm0 0" fill="#00adfe"/><path d="m43.984375 328.714844c-10.289063 4.210937-19.644531 10.175781-27.796875 17.472656 23.183594 62.601562 69.949219 113.660156 129.59375 142.5 8.054688-7.457031 14.855469-16.203125 20-25.992188-57.136719-25.546874-101.667969-74.144531-121.796875-133.980468zm0 0" fill="#c3d9ed"/><path d="m144.6875 417.984375c0 35.515625-28.789062 64.304687-64.304688 64.304687-35.515624 0-64.304687-28.789062-64.304687-64.304687s28.789063-64.304687 64.304687-64.304687c35.515626 0 64.304688 28.789062 64.304688 64.304687zm0 0" fill="#f9dc26"/><path d="m80.382812 450.136719c-29.886718 0-54.835937-20.558594-62.023437-48.226563-1.351563 5.175782-2.28125 10.496094-2.28125 16.074219 0 35.464844 28.839844 64.304687 64.304687 64.304687 35.464844 0 64.304688-28.839843 64.304688-64.304687 0-5.578125-.933594-10.898437-2.28125-16.074219-7.1875 27.667969-32.136719 48.226563-62.023438 48.226563zm0 0" fill="#f2bc0e"/><g fill="#fff"><path d="m241.144531 225.070312h32.152344v32.152344h-32.152344zm0 0"/><path d="m401.910156 48.230469h32.152344v32.152343h-32.152344zm0 0"/><path d="m64.304688 385.832031h32.152343v32.152344h-32.152343zm0 0"/></g></svg>