<svg height="514pt" viewBox="-32 0 514 514.44361" width="514pt" xmlns="http://www.w3.org/2000/svg"><path d="m305.671875 96.457031h-32.152344v-48.226562c0-8.859375-7.203125-16.078125-16.074219-16.078125h-64.308593c-8.871094 0-16.074219 7.21875-16.074219 16.078125v48.226562h-32.152344v-48.226562c0-26.589844 21.636719-48.230469 48.226563-48.230469h64.308593c26.589844 0 48.226563 21.640625 48.226563 48.230469zm0 0" fill="#515570"/><path d="m177.0625 48.230469c0-8.859375 7.203125-16.078125 16.074219-16.078125h-45.269531c-1.800782 5.046875-2.957032 10.417968-2.957032 16.078125v48.226562h32.152344zm0 0" fill="#444863"/><path d="m273.519531 48.230469v48.226562h32.152344v-48.226562c0-5.660157-1.15625-11.03125-2.957031-16.078125h-45.269532c8.871094 0 16.074219 7.21875 16.074219 16.078125zm0 0" fill="#444863"/><path d="m386.054688 514.445312h-321.527344c-26.589844 0-48.230469-21.640624-48.230469-48.230468v-241.144532h417.988281v241.144532c0 26.589844-21.640625 48.230468-48.230468 48.230468zm0 0" fill="#515570"/><path d="m16.296875 225.070312h417.988281v62.679688h-417.988281zm0 0" fill="#444863"/><path d="m450.359375 257.222656h-450.136719v-144.6875c0-26.640625 21.589844-48.230468 48.226563-48.230468h353.683593c26.636719 0 48.226563 21.589843 48.226563 48.230468zm0 0" fill="#f9dc26"/><path d="m144.910156 311.945312c-8.875 0-16.078125-7.203124-16.078125-16.074218v-102.953125h32.152344v102.953125c0 8.886718-7.199219 16.074218-16.074219 16.074218zm0 0" fill="#35c9fc"/><path d="m305.671875 311.945312c-8.875 0-16.074219-7.203124-16.074219-16.074218v-102.953125h32.152344v102.953125c0 8.886718-7.203125 16.074218-16.078125 16.074218zm0 0" fill="#35c9fc"/><path d="m289.597656 482.289062h-128.613281c-26.589844 0-48.226563-21.636718-48.226563-48.226562v-32.152344c0-26.589844 21.636719-48.230468 48.226563-48.230468h128.613281c26.589844 0 48.226563 21.640624 48.226563 48.230468v32.152344c0 26.589844-21.636719 48.226562-48.226563 48.226562zm0 0" fill="#f9dc26"/><path d="m289.597656 450.136719h-128.613281c-26.589844 0-48.226563-21.636719-48.226563-48.226563v32.152344c0 26.589844 21.636719 48.226562 48.226563 48.226562h128.613281c26.589844 0 48.226563-21.636718 48.226563-48.226562v-32.152344c0 26.589844-21.636719 48.226563-48.226563 48.226563zm0 0" fill="#f2bc0e"/><path d="m289.597656 128.609375h32.152344v32.152344h-32.152344zm0 0" fill="#fff"/><path d="m128.832031 128.609375h32.152344v32.152344h-32.152344zm0 0" fill="#fff"/><path d="m257.445312 257.222656h-64.308593v-32.152344c0-17.765624 14.390625-32.152343 32.152343-32.152343 17.765626 0 32.15625 14.386719 32.15625 32.152343zm0 0" fill="#f2bc0e"/></svg>