<svg height="514.44361pt" viewBox="0 0 514.44361 514.44361" width="514.44361pt" xmlns="http://www.w3.org/2000/svg"><path d="m321.527344 96.457031h-32.152344v-48.226562c0-8.859375-7.21875-16.078125-16.078125-16.078125h-32.152344c-8.855469 0-16.074219 7.21875-16.074219 16.078125v48.226562h-32.152343v-48.226562c0-26.589844 21.636719-48.230469 48.226562-48.230469h32.152344c26.589844 0 48.230469 21.640625 48.230469 48.230469zm0 0" fill="#515570"/><path d="m112.535156 514.445312h-64.304687c-26.589844 0-48.230469-21.640624-48.230469-48.230468v-48.230469c0-53.195313 43.261719-96.457031 96.457031-96.457031h16.078125zm0 0" fill="#35c9fc"/><path d="m466.214844 514.445312h-64.304688v-192.917968h16.074219c53.199219 0 96.460937 43.261718 96.460937 96.457031v48.230469c0 26.589844-21.640624 48.230468-48.230468 48.230468zm0 0" fill="#35c9fc"/><path d="m417.984375 321.527344h-16.074219v192.917968h64.304688v-179.863281c-14.210938-8.246093-30.65625-13.054687-48.230469-13.054687zm0 0" fill="#00adfe"/><path d="m112.535156 321.527344h-16.078125c-17.570312 0-34.015625 4.808594-48.226562 13.054687v179.863281h64.304687zm0 0" fill="#00adfe"/><path d="m225.070312 48.230469c0-6.882813 4.402344-12.667969 10.496094-14.953125-14.515625 1.496094-28.550781 4.550781-42.039062 8.875-.257813 2.007812-.609375 4.003906-.609375 6.078125v48.226562h32.152343zm0 0" fill="#444863"/><path d="m289.375 48.230469v48.226562h32.152344v-48.226562c0-2.074219-.355469-4.070313-.609375-6.078125-13.488281-4.324219-27.523438-7.378906-42.042969-8.875 6.09375 2.285156 10.5 8.070312 10.5 14.953125zm0 0" fill="#444863"/><path d="m434.0625 514.445312h-353.679688v-273.300781c0-97.503906 79.335938-176.839843 176.839844-176.839843s176.839844 79.335937 176.839844 176.839843zm0 0" fill="#f85566"/><path d="m80.382812 482.289062h353.679688v32.15625h-353.679688zm0 0" fill="#c84f61"/><path d="m352.265625 241.144531c-7.941406 0-14.46875-5.851562-15.820313-13.679687-6.527343-37.828125-39.5625-66.703125-79.222656-66.703125-24.742187 0-47.765625 11.191406-63.164062 30.722656l-25.242188-19.902344c21.527344-27.3125 53.746094-42.972656 88.40625-42.972656 55.832032 0 102.292969 40.867187 111.054688 94.257813 1.574218 9.613281-6.269532 18.277343-16.011719 18.277343zm-175.425781 0h-32.152344c0-12.601562 2.074219-24.980469 6.1875-36.828125l30.386719 10.527344c-2.941407 8.457031-4.421875 17.300781-4.421875 26.300781zm0 0" fill="#515570"/><path d="m321.527344 450.136719h-128.609375c-26.59375 0-48.230469-21.636719-48.230469-48.226563v-32.152344c0-26.589843 21.636719-48.230468 48.230469-48.230468h128.609375c26.589844 0 48.230468 21.640625 48.230468 48.230468v32.152344c0 26.589844-21.640624 48.226563-48.230468 48.226563zm0 0" fill="#35c9fc"/><path d="m321.527344 417.984375h-128.609375c-26.59375 0-48.230469-21.636719-48.230469-48.226563v32.152344c0 26.589844 21.636719 48.226563 48.230469 48.226563h128.609375c26.589844 0 48.230468-21.636719 48.230468-48.226563v-32.152344c0 26.589844-21.640624 48.226563-48.230468 48.226563zm0 0" fill="#00adfe"/><path d="m273.296875 289.375h-32.152344c-8.875 0-16.074219-7.203125-16.074219-16.078125 0-8.871094 7.199219-16.074219 16.074219-16.074219h32.152344c8.875 0 16.078125 7.203125 16.078125 16.074219 0 8.875-7.203125 16.078125-16.078125 16.078125zm0 0" fill="#fff"/></svg>