<svg height="512pt" viewBox="0 0 512.02411 512" width="512pt" xmlns="http://www.w3.org/2000/svg"><path d="m186.316406 254.558594-172.210937-172.210938c-18.808594-18.808594-18.808594-49.417968 0-68.230468 18.8125-18.808594 49.421875-18.808594 68.230469 0l172.191406 172.195312zm0 0" fill="#d89879"/><path d="m482.265625 385.820312c0 53.273438-43.183594 96.457032-96.457031 96.457032-53.273438 0-96.457032-43.183594-96.457032-96.457032 0-53.273437 43.183594-96.457031 96.457032-96.457031 53.273437 0 96.457031 43.183594 96.457031 96.457031zm0 0" fill="#33bdfe"/><path d="m211.011719 142.777344c-14.648438 7.011718-28.214844 16.367187-40.03125 28.183594-.066407.0625-.128907.128906-.175781.175781-9.726563 9.757812-25.160157 10.5625-34.902344.820312l-121.796875-121.761719c-5.253907-5.257812-8.890625-11.464843-11.203125-18.039062-5.980469 16.976562-2.363282 36.636719 11.1875 50.191406l172.226562 172.210938 68.210938-68.261719zm0 0" fill="#d18161"/><path d="m284.640625 512.003906-36.347656-36.347656c-16.640625-16.640625-23.8125-40.351562-19.195313-63.421875 2.492188-12.507813-1.398437-25.386719-10.402344-34.402344l-24.984374-24.984375c-21.25-21.253906-32.972657-49.515625-32.972657-79.578125s11.722657-58.308593 32.972657-79.578125c21.253906-21.269531 49.5-32.957031 79.5625-32.957031s58.308593 11.703125 79.5625 32.957031l24.984374 24.984375c9.050782 9.035157 21.910157 12.925781 34.402344 10.417969 23.101563-4.648438 46.78125 2.554688 63.4375 19.195312l36.332032 36.347657zm0 0" fill="#f9dc26"/><path d="m229.097656 380.082031c2.492188-12.507812-1.398437-25.386719-10.402344-34.402343l-24.984374-24.984376c-17.410157-17.410156-28.292969-39.546874-31.703126-63.5-.753906 5.289063-1.269531 10.640626-1.269531 16.074219 0 30.0625 11.722657 58.308594 32.972657 79.578125l24.984374 24.984375c4.292969 4.308594 7.347657 9.515625 9.179688 15.109375.046875-4.273437.351562-8.582031 1.222656-12.859375zm0 0" fill="#f2bc0e"/><path d="m320.988281 443.503906c-20.078125 20.078125-52.617187 20.078125-72.679687 0-9.742188-9.742187-16.140625-21.960937-18.921875-35-.097657 1.046875-.050781 2.105469-.179688 3.152344-2.859375 22.988281 1.351563 46.25 17.734375 62.632812l37.730469 37.730469 227.351563-227.351562-16.074219-16.074219zm0 0" fill="#f2bc0e"/><g fill="#fff"><path d="m273.273438 192.902344h32.152343v32.15625h-32.152343zm0 0"/><path d="m321.503906 241.132812h32.152344v32.152344h-32.152344zm0 0"/></g></svg>