<svg height="512pt" viewBox="-16 0 512 512" width="512pt" xmlns="http://www.w3.org/2000/svg"><path d="m16 192c-8.832031 0-16-7.167969-16-16v-80h80v32h-48v48c0 8.832031-7.167969 16-16 16zm0 0" fill="#515570"/><path d="m464 192h-16v-64h-48v-32h80v80c0 8.832031-7.167969 16-16 16zm0 0" fill="#515570"/><path d="m416 288h-352v-252.496094l80-19.503906 195.871094.480469 76.128906 19.023437zm0 0" fill="#35c9fc"/><path d="m224 32h32v240h-32zm0 0" fill="#00adfe"/><path d="m368 512h-32c-26.464844 0-48-21.535156-48-48v-48h128v48c0 26.464844-21.535156 48-48 48zm0 0" fill="#515570"/><path d="m144 512h-32c-26.464844 0-48-21.535156-48-48v-48h128v48c0 26.464844-21.535156 48-48 48zm0 0" fill="#515570"/><path d="m304 96h-128c-26.511719 0-48-21.488281-48-48s21.488281-48 48-48h128c26.511719 0 48 21.488281 48 48s-21.488281 48-48 48zm0 0" fill="#f9dc26"/><path d="m189.054688 480c1.792968-5.023438 2.945312-10.367188 2.945312-16v-48h-128v48c0 5.136719 1.023438 10 2.527344 14.640625 4.402344.75 8.863281 1.359375 13.472656 1.359375zm0 0" fill="#444863"/><path d="m288 464c0 5.632812 1.152344 10.976562 2.945312 16h109.054688c4.609375 0 9.070312-.609375 13.472656-1.359375 1.503906-4.640625 2.527344-9.503906 2.527344-14.640625v-48h-128zm0 0" fill="#444863"/><path d="m400 448h-320c-26.464844 0-48-21.535156-48-48v-96c0-26.464844 21.535156-48 48-48h48v-32h224v32h48c26.464844 0 48 21.535156 48 48v96c0 26.464844-21.535156 48-48 48zm0 0" fill="#f9dc26"/><path d="m400 416h-320c-26.464844 0-48-21.535156-48-48v32c0 26.464844 21.535156 48 48 48h320c26.464844 0 48-21.535156 48-48v-32c0 26.464844-21.535156 48-48 48zm0 0" fill="#f2bc0e"/><path d="m96 336h32v32h-32zm0 0" fill="#fff"/><path d="m352 336h32v32h-32zm0 0" fill="#fff"/><g fill="#515570"><path d="m288 384h-96c-8.832031 0-16-7.167969-16-16s7.167969-16 16-16h96c8.832031 0 16 7.167969 16 16s-7.167969 16-16 16zm0 0"/><path d="m272 320h-64c-8.832031 0-16-7.167969-16-16s7.167969-16 16-16h64c8.832031 0 16 7.167969 16 16s-7.167969 16-16 16zm0 0"/></g></svg>