<svg height="514pt" viewBox="-32 0 514 514.44361" width="514pt" xmlns="http://www.w3.org/2000/svg"><path d="m144.910156 369.757812h257.222656v32.152344h-257.222656zm0 0" fill="#9ca3c2"/><path d="m418.207031 514.445312h-32.152343v-176.839843h-225.070313v176.839843h-32.152344v-208.996093h289.375zm0 0" fill="#c7cce1"/><path d="m312.714844 466.214844h-78.40625c-22.167969 0-41.410156-15.03125-46.796875-36.507813l-14.96875-59.949219h201.953125l-14.984375 59.929688c-5.386719 21.496094-24.628907 36.527344-46.796875 36.527344zm0 0" fill="#ffd8c9"/><path d="m359.511719 397.535156c-5.386719 21.496094-24.628907 36.527344-46.796875 36.527344h-78.40625c-22.167969 0-41.410156-15.03125-46.796875-36.511719l-6.929688-27.792969h-8.039062l14.984375 59.949219c5.386718 21.476563 24.628906 36.507813 46.796875 36.507813h78.40625c22.167969 0 41.414062-15.03125 46.796875-36.527344l14.96875-59.929688h-8.039063zm0 0" fill="#fbc0aa"/><path d="m112.757812 305.449219c-44.324218 0-80.382812-36.058594-80.382812-80.378907v-80.382812h32.152344v80.382812c0 26.589844 21.640625 48.226563 48.230468 48.226563zm0 0" fill="#c7cce1"/><path d="m419.316406 273.296875h-291.59375l14.226563-213.269531c2.238281-33.644532 30.417969-60.027344 64.164062-60.027344h134.832031c33.742188 0 61.925782 26.382812 64.160157 60.027344zm0 0" fill="#ffd8c9"/><path d="m144.910156 208.992188c-4.4375 0-8.730468.613281-12.976562 1.320312l-4.210938 62.984375h291.59375l-4.195312-62.984375c-4.261719-.707031-8.554688-1.320312-12.988282-1.320312zm0 0" fill="#fbc0aa"/><path d="m128.832031 368.132812c5.191407 1.0625 10.578125 1.625 16.078125 1.625h16.074219v-32.152343h225.070313v32.152343h16.078124c5.496094 0 10.882813-.5625 16.074219-1.625v-62.683593h-289.375zm0 0" fill="#9ca3c2"/><path d="m402.132812 337.605469h-257.222656c-26.589844 0-48.230468-21.640625-48.230468-48.230469s21.640624-48.230469 48.230468-48.230469h257.222656c26.589844 0 48.226563 21.640625 48.226563 48.230469s-21.636719 48.230469-48.226563 48.230469zm0 0" fill="#d89879"/><path d="m402.132812 305.449219h-257.222656c-20.933594 0-38.617187-13.488281-45.273437-32.152344-1.800781 5.050781-2.957031 10.417969-2.957031 16.078125 0 26.589844 21.640624 48.230469 48.230468 48.230469h257.222656c26.589844 0 48.226563-21.640625 48.226563-48.230469 0-5.660156-1.15625-11.027344-2.957031-16.078125-6.65625 18.664063-24.339844 32.152344-45.269532 32.152344zm0 0" fill="#d18161"/><path d="m32.375 144.6875h32.152344v48.230469h-32.152344zm0 0" fill="#9ca3c2"/><path d="m.222656 128.609375h321.527344v32.152344h-321.527344zm0 0" fill="#d89879"/><g fill="#fff"><path d="m337.824219 96.457031h32.152343v32.152344h-32.152343zm0 0"/><path d="m337.824219 32.152344h32.152343v32.152344h-32.152343zm0 0"/></g></svg>