<svg height="514.44361pt" viewBox="0 0 514.44361 514.44361" width="514.44361pt" xmlns="http://www.w3.org/2000/svg"><path d="m450.136719 225.070312h32.152343v289.375h-32.152343zm0 0" fill="#d18161"/><path d="m32.152344 225.070312h32.152344v289.375h-32.152344zm0 0" fill="#d18161"/><path d="m401.910156 144.6875h-289.375v-112.535156c0-17.765625 14.386719-32.152344 32.152344-32.152344h225.070312c17.761719 0 32.152344 14.386719 32.152344 32.152344zm0 0" fill="#c7cce1"/><path d="m144.6875 337.605469h32.152344v176.839843h-32.152344zm0 0" fill="#515570"/><path d="m337.605469 337.605469h32.152343v176.839843h-32.152343zm0 0" fill="#515570"/><path d="m144.6875 225.070312h32.152344v80.378907h-32.152344zm0 0" fill="#444863"/><path d="m337.605469 225.070312h32.152343v80.378907h-32.152343zm0 0" fill="#444863"/><path d="m32.152344 128.609375h450.136718v112.535156h-450.136718zm0 0" fill="#d89879"/><path d="m112.535156 80.382812h289.375v64.304688h-289.375zm0 0" fill="#9ca3c2"/><path d="m96.457031 289.375h321.527344v64.304688h-321.527344zm0 0" fill="#c7cce1"/><path d="m96.457031 321.527344h321.527344v32.152344h-321.527344zm0 0" fill="#9ca3c2"/><path d="m0 112.535156h514.445312v32.152344h-514.445312zm0 0" fill="#d18161"/><g fill="#fff"><path d="m144.6875 32.152344h32.152344v32.152344h-32.152344zm0 0"/><path d="m208.992188 32.152344h32.152343v32.152344h-32.152343zm0 0"/></g></svg>