<svg height="514pt" viewBox="0 -96 514.44361 514" width="514pt" xmlns="http://www.w3.org/2000/svg"><path d="m482.289062 321.75h-450.136718c-17.765625 0-32.152344-14.390625-32.152344-32.152344v-257.222656c0-17.765625 14.386719-32.152344 32.152344-32.152344h450.136718c17.765626 0 32.15625 14.386719 32.15625 32.152344v257.222656c0 17.761719-14.390624 32.152344-32.15625 32.152344zm0 0" fill="#4bc18f"/><path d="m337.605469 160.984375c0-38.808594-27.667969-71.28125-64.308594-78.757813v-82.003906h-32.152344v82.003906c-36.636719 7.476563-64.304687 39.949219-64.304687 78.757813s27.667968 71.285156 64.304687 78.757813v82.007812h32.152344v-82.007812c36.640625-7.472657 64.308594-39.949219 64.308594-78.757813zm-80.382813 48.230469c-26.589844 0-48.230468-21.640625-48.230468-48.230469s21.640624-48.226563 48.230468-48.226563 48.226563 21.636719 48.226563 48.226563-21.636719 48.230469-48.226563 48.230469zm0 0" fill="#e9f0f8"/><path d="m96.457031 225.289062h-96.457031v-32.152343h64.304688v-64.304688h-64.304688v-32.152343h96.457031zm0 0" fill="#e9f0f8"/><path d="m514.445312 225.289062h-96.460937v-128.609374h96.460937v32.152343h-64.308593v64.304688h64.308593zm0 0" fill="#e9f0f8"/><g fill="#fff"><path d="m32.152344 257.445312h32.152344v32.152344h-32.152344zm0 0"/><path d="m450.136719 257.445312h32.152343v32.152344h-32.152343zm0 0"/><path d="m32.152344 32.375h32.152344v32.152344h-32.152344zm0 0"/><path d="m450.136719 32.375h32.152343v32.152344h-32.152343zm0 0"/></g></svg>