<svg height="512pt" viewBox="0 0 512 512" width="512pt" xmlns="http://www.w3.org/2000/svg"><path d="m0 288h512v224h-512zm0 0" fill="#366cb6"/><path d="m112 288h288v224h-288zm0 0" fill="#215faa"/><path d="m368 192-112-64-112 64v320h224zm0 0" fill="#f85566"/><path d="m256 0h112v96h-112zm0 0" fill="#4bc18f"/><g fill="#fff"><path d="m304 320h-64v-80h32v48h32zm0 0"/><path d="m48 368h32v32h-32zm0 0"/><path d="m432 368h32v32h-32zm0 0"/></g><path d="m240 0h32v128h-32zm0 0" fill="#515570"/><path d="m304 512h-96v-96c0-26.511719 21.488281-48 48-48s48 21.488281 48 48zm0 0" fill="#515570"/><path d="m256 128-112 64v59.183594l112-67.199219 112 67.199219v-59.183594zm0 0" fill="#c84f61"/><path d="m407.761719 237.710938-151.761719-91.054688-151.761719 91.054688-16.476562-27.421876 168.238281-100.945312 168.238281 100.945312zm0 0" fill="#366cb6"/></svg>