<svg height="512pt" viewBox="0 0 512.01672 512" width="512pt" xmlns="http://www.w3.org/2000/svg"><path d="m480 256.070312c0 123.714844-100.289062 224-224 224s-224-100.285156-224-224c0-123.710937 100.289062-224 224-224s224 100.289063 224 224zm0 0" fill="#e9f0f8"/><path d="m256 448.070312c-118.113281 0-214.929688-91.949218-223.183594-208-.382812 5.296876-.816406 10.59375-.816406 16 0 123.523438 100.480469 224 224 224s224-100.476562 224-224c0-5.40625-.433594-10.6875-.816406-16-8.253906 116.050782-105.070313 208-223.183594 208zm0 0" fill="#c3d9ed"/><path d="m501.777344 410.535156-.210938.082032c-7.855468-21.519532-20.398437-45.984376-37.292968-72.863282-4.65625 11.855469-10.175782 23.261719-16.707032 34.046875 16.066406 27.855469 25.648438 50.800781 29.824219 68.160157 4.050781 16.960937 3.328125 29.613281-2.351563 35.261718-11.773437 11.824219-56.496093 3.746094-127.039062-42.015625-47.070312-30.253906-98.046875-72.335937-147.40625-121.695312-35.1875-35.183594-67.632812-72.351563-93.234375-106.640625l-50.992187-79.007813c-27.726563-52.335937-27.839844-80.558593-19.40625-88.925781 6.414062-6.464844 22.175781-6.386719 43.039062-.113281v.046875c16.160156 4.863281 36.433594 13.839844 60.304688 27.601562 10.765624-6.527344 22.175781-12.03125 34.03125-16.703125-26.847657-16.914062-51.34375-29.519531-72.832032-37.378906l.03125-.09375c-7.40625-2.738281-14.304687-4.738281-20.976562-6.367187-.175782-.050782-.382813-.144532-.558594-.175782v.03125c-29.390625-7.121094-51.535156-3.7148435-65.664062 10.511719-22.863282 22.671875-18.097657 66.429687 14.464843 127.726563l52.304688 81.039062c27.503906 36.914062 60.09375 74.273438 96.878906 111.027344 50.960937 50.957031 103.777344 94.527344 152.671875 125.949218 52.929688 34.335938 96.75 51.839844 128.335938 51.839844 16.304687 0 29.328124-4.671875 38.671874-14.0625 17.648438-17.503906 19.023438-46.863281 4.113282-87.28125zm0 0" fill="#35c9fc"/><path d="m281.601562 425.382812c8.238282-6.878906 16.496094-14.015624 24.765626-21.375-24.429688-18.351562-49.421876-39.3125-74.320313-62.351562-8.304687 7.167969-16.574219 13.984375-24.816406 20.609375 24.847656 23.152344 49.824219 44.351563 74.371093 63.117187zm0 0" fill="#00adfe"/><path d="m497.761719 14.390625c-19.953125-20.078125-55.042969-19.132813-104.273438 2.832031l.03125.066406c-17.136719 7.582032-35.871093 17.824219-55.871093 30.429688 11.855468 4.65625 23.183593 10.289062 33.953124 16.816406 17.390626-10.03125 32.925782-17.582031 46.320313-22.71875l-.019531-.046875c32.5625-12.640625 50.851562-11.152343 57.21875-4.738281 11.839844 11.761719 3.742187 56.496094-42 127.007812-16.898438 26.144532-36.898438 53.007813-58.960938 79.265626l-64.496094 69.917968c-48.671874 48.511719-99.039062 90-145.726562 120-70.464844 45.714844-115.25 53.839844-127.058594 41.90625-4.765625-4.722656-5.214844-13.570312-4.542968-21.296875 1.457031-18 11.3125-45.984375 32.160156-82.128906-6.527344-10.765625-12.160156-22.09375-16.832032-33.949219-27.089843 43.007813-42.703124 79.679688-46.449218 108.269532l-.304688-.03125c-.222656 1.726562-.109375 3.214843-.253906 4.894531-.082031.976562-.289062 2.035156-.335938 2.976562h.175782c-1.007813 18.703125 3.375 33.617188 13.742187 43.921875 9.394531 9.453125 22.464844 14.128906 38.816407 14.128906 31.601562 0 75.394531-17.507812 128.226562-51.777343 48.511719-31.167969 100.71875-74.113281 151.421875-124.6875l65.441406-70.960938c23.40625-27.839843 44.222657-55.777343 61.824219-83.023437 52.0625-80.257813 65.4375-139.601563 37.792969-167.074219zm0 0" fill="#35c9fc"/><path d="m416 288.070312c0 35.347657-28.652344 64-64 64s-64-28.652343-64-64c0-35.34375 28.652344-64 64-64s64 28.65625 64 64zm0 0" fill="#366cb6"/><path d="m352 320.070312c-29.726562 0-54.574219-20.476562-61.726562-48-1.34375 5.152344-2.273438 10.449219-2.273438 16 0 35.296876 28.703125 64 64 64s64-28.703124 64-64c0-5.550781-.929688-10.847656-2.273438-16-7.152343 27.523438-32 48-61.726562 48zm0 0" fill="#215faa"/><path d="m128 176.070312c0 35.347657-28.652344 64-64 64s-64-28.652343-64-64c0-35.34375 28.652344-64 64-64s64 28.65625 64 64zm0 0" fill="#366cb6"/><path d="m64 208.070312c-29.726562 0-54.574219-20.476562-61.726562-48-1.34375 5.136719-2.273438 10.433594-2.273438 16 0 35.296876 28.703125 64 64 64s64-28.703124 64-64c0-5.550781-.929688-10.847656-2.273438-16-7.152343 27.523438-32 48-61.726562 48zm0 0" fill="#215faa"/><g fill="#fff"><path d="m49.441406 139.304688h32v32h-32zm0 0"/><path d="m336 256.070312h32v32h-32zm0 0"/></g></svg>