<svg height="514.44361pt" viewBox="0 0 514.44361 514.44361" width="514.44361pt" xmlns="http://www.w3.org/2000/svg"><path d="m466.214844 514.445312h-257.222656v-450.140624h305.453124v401.910156c0 26.589844-21.640624 48.230468-48.230468 48.230468zm0 0" fill="#4bc18f"/><path d="m417.984375 466.214844v-32.152344h-273.296875v32.152344c0 26.589844 21.636719 48.230468 48.230469 48.230468h273.296875c-26.640625 0-48.230469-21.59375-48.230469-48.230468zm0 0" fill="#44a79b"/><g fill="#fff"><path d="m257.222656 208.992188h208.992188v32.152343h-208.992188zm0 0"/><path d="m289.375 144.6875h176.839844v32.152344h-176.839844zm0 0"/><path d="m257.222656 273.296875h208.992188v32.152344h-208.992188zm0 0"/><path d="m434.0625 369.757812h-32.152344v-32.152343h32.152344zm-64.304688 0h-112.535156v-32.152343h112.535156zm0 0"/></g><path d="m80.382812 456.792969-80.382812-80.382813v-296.027344c0-44.324218 36.058594-80.382812 80.382812-80.382812 44.320313 0 80.378907 36.058594 80.378907 80.382812v296.027344zm0 0" fill="#fdee93"/><path d="m0 344.257812v32.152344l80.382812 80.382813 80.378907-80.382813v-32.152344l-80.378907 80.382813zm0 0" fill="#f9dc26"/><path d="m91.746094 348.96875 69.015625-69.015625v-45.464844l-91.746094 91.75zm0 0" fill="#f9dc26"/><path d="m91.746094 220.359375 69.015625-69.015625v-45.464844l-91.746094 91.746094zm0 0" fill="#f9dc26"/><path d="m0 215.648438 69.015625 69.015624 22.730469-22.730468-91.746094-91.75zm0 0" fill="#f9dc26"/><path d="m96.457031 514.445312h-32.152343v-401.910156c0-8.875 7.203124-16.078125 16.078124-16.078125s16.074219 7.203125 16.074219 16.078125zm0 0" fill="#c7cce1"/></svg>