<svg height="514pt" viewBox="-48 0 514 514.44361" width="514pt" xmlns="http://www.w3.org/2000/svg"><path d="m418.207031 514.445312h-417.984375v-160.765624h16.074219c22.8125 0 48.230469-39.613282 48.230469-96.457032 0-56.847656-25.417969-96.460937-48.230469-96.460937h-16.074219v-160.761719h417.984375v160.761719h-16.074219c-22.8125 0-48.230468 39.613281-48.230468 96.460937 0 56.84375 25.417968 96.457032 48.230468 96.457032h16.074219zm0 0" fill="#f85566"/><path d="m353.902344 225.070312c0 5.546876.304687 10.882813.769531 16.074219 4.230469-48.066406 26.882813-80.382812 47.460937-80.382812h16.074219v-32.152344h-16.074219c-22.8125 0-48.230468 39.613281-48.230468 96.460937zm0 0" fill="#c84f61"/><path d="m63.753906 241.144531c.46875-5.191406.773438-10.527343.773438-16.074219 0-56.847656-25.417969-96.460937-48.230469-96.460937h-16.074219v32.152344h16.074219c20.578125 0 43.230469 32.316406 47.457031 80.382812zm0 0" fill="#c84f61"/><path d="m321.75 385.832031v-208.992187c0-62.152344-50.382812-112.535156-112.535156-112.535156h-112.535156v321.527343c0 53.277344-43.179688 96.457031-96.457032 96.457031v32.15625h417.984375v-32.15625c-53.277343 0-96.457031-43.179687-96.457031-96.457031zm0 0" fill="#c84f61"/><path d="m289.597656 514.445312h-160.765625v-417.988281h80.382813c44.320312 0 80.382812 36.058594 80.382812 80.382813zm0 0" fill="#e9f0f8"/><g fill="#c3d9ed"><path d="m193.136719 353.679688h32.152343v160.765624h-32.152343zm0 0"/><path d="m193.136719 289.375h32.152343v32.152344h-32.152343zm0 0"/><path d="m193.136719 225.070312h32.152343v32.152344h-32.152343zm0 0"/><path d="m225.289062 192.917969v-94.835938c-5.191406-1.0625-10.578124-1.625-16.074218-1.625h-16.078125v96.460938zm0 0"/></g></svg>