<svg height="497pt" viewBox="0 -26 497.8802 497" width="497pt" xmlns="http://www.w3.org/2000/svg"><path d="m82.015625 302.140625-49.949219-186.855469 403.871094-107.632812 49.933594 186.246094-99.464844-39.871094-196.789062 52.652344 16.71875 62.230468zm0 0" fill="#c7cce1"/><path d="m17.742188 186.246094-16.636719-62.101563c-4.597657-17.15625 5.578125-34.789062 22.730469-39.371093l310.5625-83.230469c17.15625-4.597657 34.773437 5.582031 39.371093 22.734375l16.65625 62.117187zm0 0" fill="#4bc18f"/><path d="m485.871094 193.898438-.867188-3.230469-2.507812 1.878906zm0 0" fill="#9ca3c2"/><path d="m82.015625 302.140625 124.320313-33.214844-16.71875-62.230469s-20.449219-20.433593-54.710938-16.011718c-35.382812 4.582031-61.683594 23.695312-71.425781 42.167968zm0 0" fill="#9ca3c2"/><path d="m497.878906 414.128906h-417.984375v-128.613281c0-35.460937 28.839844-64.304687 64.304688-64.304687 35.464843 0 64.304687 28.84375 64.304687 64.304687h203.640625l85.734375-64.304687zm0 0" fill="#c7cce1"/><path d="m401.421875 446.28125h-321.527344c-17.765625 0-32.152343-14.386719-32.152343-32.152344v-64.304687h385.832031v64.304687c0 17.746094-14.386719 32.152344-32.152344 32.152344zm0 0" fill="#4bc18f"/><g fill="#fff"><path d="m253.214844 48.929688 31.121094-8.082032 8.082031 31.121094-31.121094 8.082031zm0 0"/><path d="m317.523438 32.855469 31.117187-8.085938 8.085937 31.121094-31.121093 8.082031zm0 0"/></g></svg>