<svg height="514pt" viewBox="0 -80 514.44361 514" width="514pt" xmlns="http://www.w3.org/2000/svg"><path d="m482.289062 108.253906v117.035156h-450.136718v-4.5l110.605468-27.652343zm0 0" fill="#c7cce1"/><path d="m514.445312 289.597656v64.304688h-482.292968v-160.765625h128.609375v48.230469c0 8.84375 7.234375 16.078124 16.078125 16.078124h305.449218c17.6875 0 32.15625 14.46875 32.15625 32.152344zm0 0" fill="#c7cce1"/><path d="m160.761719 241.367188v-48.230469h-128.609375v60.160156h134.171875c-3.34375-2.941406-5.5625-7.121094-5.5625-11.929687zm0 0" fill="#9ca3c2"/><path d="m146.839844 225.289062h-146.839844v-124.945312l434.0625-100.121094h80.382812v124.816406zm0 0" fill="#f85566"/><path d="m0 193.136719v32.152343h146.839844l367.605468-100.25v-32.152343l-367.605468 100.25zm0 0" fill="#c84f61"/><g fill="#fff"><path d="m32.152344 128.832031h32.152344v32.152344h-32.152344zm0 0"/><path d="m96.457031 128.832031h32.152344v32.152344h-32.152344zm0 0"/></g></svg>