<svg height="512pt" viewBox="-48 0 512 512" width="512pt" xmlns="http://www.w3.org/2000/svg"><path d="m336 464h-32v-32h32c26.464844 0 48-21.535156 48-48v-64c0-26.464844-21.535156-48-48-48h-32v-32h32c44.113281 0 80 35.886719 80 80v64c0 44.113281-35.886719 80-80 80zm0 0" fill="#515570"/><path d="m192 0h128v224h-128zm0 0" fill="#35c9fc"/><path d="m64 48h96v176h-96zm0 0" fill="#4bc18f"/><path d="m96 0h32v48h-32zm0 0" fill="#898890"/><path d="m256 48h32v32h-32zm0 0" fill="#515570"/><path d="m256 112h32v32h-32zm0 0" fill="#515570"/><path d="m64 160h96v64h-96zm0 0" fill="#44a79b"/><path d="m192 160h128v64h-128zm0 0" fill="#00adfe"/><path d="m288 512h-224c-17.679688 0-32-14.320312-32-32v-288h288v288c0 17.679688-14.320312 32-32 32zm0 0" fill="#f85566"/><path d="m32 160h-32v-80c0-26.464844 21.535156-48 48-48h112v32h-112c-8.816406 0-16 7.183594-16 16zm0 0" fill="#515570"/><path d="m64 224h32v32h-32zm0 0" fill="#fff"/><path d="m64 288h32v32h-32zm0 0" fill="#fff"/><path d="m288 480h-224c-17.679688 0-32-14.320312-32-32v32c0 17.679688 14.320312 32 32 32h224c17.679688 0 32-14.320312 32-32v-32c0 17.679688-14.320312 32-32 32zm0 0" fill="#c84f61"/></svg>