<svg height="512pt" viewBox="0 -2 512 512" width="512pt" xmlns="http://www.w3.org/2000/svg"><path d="m352 128h160v176h-160zm0 0" fill="#ff8475"/><path d="m352 256.496094h160v47.167968h-160zm0 0" fill="#f85566"/><path d="m7.519531 400-7.519531-11.199219v-308.800781h160v308.800781l-7.519531 11.199219zm0 0" fill="#4bc18f"/><path d="m208 437.246094v-389.246094c0-26.464844 21.535156-48 48-48s48 21.535156 48 48v389.265625h-96zm0 0" fill="#35c9fc"/><path d="m352 288v16c0 44.113281 35.886719 80 80 80s80-35.886719 80-80v-16zm0 0" fill="#fdee93"/><path d="m432 352c-38.625 0-70.945312-27.535156-78.382812-64h-1.617188v16c0 44.113281 35.886719 80 80 80s80-35.886719 80-80v-16h-1.617188c-7.4375 36.464844-39.757812 64-78.382812 64zm0 0" fill="#f9dc26"/><path d="m96 384h-32v-128h32zm0-160h-32v-32h32zm0-64h-32v-64h32zm0 0" fill="#44a79b"/><path d="m208 320h96v62.414062h-96zm0 0" fill="#515570"/><path d="m304.320312 352h-96.640624l-17.039063 85.246094 65.359375 65.378906 65.359375-65.378906zm0 0" fill="#f9dc26"/><path d="m240 400h32v32h-32zm0 0" fill="#fff"/><path d="m416 176h32v32h-32zm0 0" fill="#fff"/><path d="m128 0h-96c-17.679688 0-32 14.320312-32 32v64h160v-64c0-17.679688-14.320312-32-32-32zm0 0" fill="#f9dc26"/><path d="m0 64h160v32h-160zm0 0" fill="#f2bc0e"/><path d="m0 388.832031 80 120 80-120v-4.832031h-160zm0 0" fill="#ffd8c9"/></svg>