<svg height="514pt" viewBox="-32 0 514 514.44361" width="514pt" xmlns="http://www.w3.org/2000/svg"><path d="m369.976562 0h32.15625v160.761719h-32.15625zm0 0" fill="#f9dc26"/><path d="m273.519531 353.679688h-96.457031v-55.703126l-46.527344-23.265624c-10.898437-5.449219-17.777344-16.574219-17.777344-28.757813v-149.496094h225.066407v149.496094c0 12.183594-6.878907 23.308594-17.777344 28.757813l-46.527344 23.265624zm0 0" fill="#ffd8c9"/><path d="m112.757812 174.089844 112.53125 37.523437 112.535157-37.523437v-77.632813h-225.066407zm0 0" fill="#fbc0aa"/><path d="m225.289062 177.707031-112.53125-37.503906v-140.203125h225.066407v140.203125zm0 0" fill="#515570"/><path d="m112.757812 0h225.066407v64.304688h-225.066407zm0 0" fill="#444863"/><path d="m369.976562 192.917969h32.15625v32.152343h-32.15625zm0 0" fill="#f2bc0e"/><path d="m64.527344 0h337.605468v32.152344h-337.605468zm0 0" fill="#515570"/><path d="m450.359375 398.804688v115.640624h-450.136719v-115.445312c0-14.050781 9.128906-26.480469 22.523438-30.675781l154.316406-48.40625 48.226562 32.316406 52.894532-32.316406 149.878906 48.277343c13.292969 4.277344 22.296875 16.65625 22.296875 30.609376zm0 0" fill="#515570"/><path d="m112.757812 514.445312h-32.152343v-48.230468c0-8.875 7.199219-16.078125 16.074219-16.078125s16.078124 7.203125 16.078124 16.078125zm0 0" fill="#444863"/><path d="m369.976562 514.445312h-32.152343v-48.230468c0-8.875 7.203125-16.078125 16.078125-16.078125s16.074218 7.203125 16.074218 16.078125zm0 0" fill="#444863"/><path d="m359.527344 346.125-66.554688 94.046875-67.683594-48.390625-67.679687 48.390625-66.234375-93.40625 85.6875-26.847656 48.226562 32.316406 52.894532-32.316406zm0 0" fill="#33bdfe"/></svg>