<svg height="514pt" viewBox="0 -4 514.44361 514" width="514pt" xmlns="http://www.w3.org/2000/svg"><path d="m369.757812 257.445312h-225.070312v-144.6875c0-62.054687 50.496094-112.535156 112.535156-112.535156 62.039063 0 112.535156 50.480469 112.535156 112.535156zm0 0" fill="#ffd8c9"/><path d="m257.222656.222656c-62.039062 0-112.535156 50.480469-112.535156 112.535156v60.894532l141.714844-42.519532 83.355468 41.683594v-60.058594c0-62.054687-50.496093-112.535156-112.535156-112.535156zm0 0" fill="#fbc0aa"/><path d="m369.757812 136.871094v-24.113282c0-62.054687-50.496093-112.535156-112.535156-112.535156-62.039062 0-112.535156 50.480469-112.535156 112.535156v27.328126l144.6875-43.40625zm0 0" fill="#515570"/><path d="m257.222656 506.933594-225.070312-43.292969v-290.710937l225.070312 51.941406 225.066406-51.941406v290.710937zm0 0" fill="#f85566"/><path d="m257.222656 224.871094v282.0625l225.066406-43.292969v-290.710937zm0 0" fill="#c84f61"/><path d="m56.265625 402.132812c-31.027344 0-56.265625-25.242187-56.265625-56.269531v-32.152343c0-31.027344 25.238281-56.265626 56.265625-56.265626s56.269531 25.238282 56.269531 56.265626v32.152343c0 31.027344-25.242187 56.269531-56.269531 56.269531zm0 0" fill="#ffd8c9"/><path d="m56.265625 369.976562c-31.027344 0-56.265625-25.238281-56.265625-56.265624v32.152343c0 31.027344 25.238281 56.269531 56.265625 56.269531s56.269531-25.242187 56.269531-56.269531v-32.152343c0 31.027343-25.242187 56.265624-56.269531 56.265624zm0 0" fill="#fbc0aa"/><path d="m458.175781 402.132812c-31.027343 0-56.265625-25.242187-56.265625-56.269531v-32.152343c0-31.027344 25.238282-56.265626 56.265625-56.265626 31.027344 0 56.269531 25.238282 56.269531 56.265626v32.152343c0 31.027344-25.242187 56.269531-56.269531 56.269531zm0 0" fill="#ffd8c9"/><path d="m458.175781 369.976562c-31.027343 0-56.265625-25.238281-56.265625-56.265624v32.152343c0 31.027344 25.238282 56.269531 56.265625 56.269531 31.027344 0 56.269531-25.242187 56.269531-56.269531v-32.152343c0 31.027343-25.242187 56.265624-56.269531 56.265624zm0 0" fill="#fbc0aa"/><g fill="#fff"><path d="m289.375 402.132812h32.152344v32.152344h-32.152344zm0 0"/><path d="m289.375 337.824219h32.152344v32.152343h-32.152344zm0 0"/></g></svg>