<svg height="514pt" viewBox="-4 0 514 514.44361" width="514pt" xmlns="http://www.w3.org/2000/svg"><path d="m124.878906 319.695312v-131.730468l-23.425781 58.582031-101.230469-44.996094 47.375-132.664062 137.792969-68.886719h136.199219l137.789062 68.886719 47.375 132.664062-101.230468 44.996094-23.421876-58.582031v131.730468zm0 0" fill="#e9f0f8"/><g fill="#c3d9ed"><path d="m383.371094 30.882812-81.652344 81.652344-48.230469-32.152344-48.230469 32.152344-81.648437-81.652344-45.464844 22.746094 120.972657 120.960938 54.371093-36.253906 54.371094 36.253906 120.972656-120.960938zm0 0"/><path d="m124.878906 187.964844v-32.152344c-12.796875 31.992188-49.597656 46.941406-81.074218 32.957031l-33.679688-14.96875-9.902344 27.75 101.230469 44.996094zm0 0"/><path d="m463.171875 188.769531c-31.476563 13.984375-68.273437-.964843-81.070313-32.957031v32.152344l23.421876 58.582031 101.230468-44.996094-9.902344-27.75zm0 0"/><path d="m124.878906 257.222656h257.222656v62.472656h-257.222656zm0 0"/></g><path d="m237.414062 80.382812h32.152344v225.066407h-32.152344zm0 0" fill="#35c9fc"/><path d="m398.496094 38.421875-94.6875 94.851563-50.320313-33.601563-50.320312 33.601563-94.6875-94.851563 76.84375-38.421875h10.449219l57.714843 57.714844 57.714844-57.714844h10.449219zm0 0" fill="#366cb6"/><path d="m124.460938 289.375-51.945313 225.070312h361.945313l-51.941407-225.070312zm0 0" fill="#366cb6"/><path d="m318.984375 514.445312h32.25l-17.316406-225.070312h-32.25zm0 0" fill="#215faa"/><path d="m155.746094 514.445312h32.246094l17.316406-225.070312h-32.25zm0 0" fill="#215faa"/><path d="m237.414062 289.375h32.152344v225.070312h-32.152344zm0 0" fill="#215faa"/></svg>