<svg height="514pt" viewBox="0 -64 514.44361 514" width="514pt" xmlns="http://www.w3.org/2000/svg"><path d="m482.289062 144.910156c0 79.90625-64.777343 144.6875-144.683593 144.6875-79.910157 0-144.6875-64.78125-144.6875-144.6875 0-79.910156 64.777343-144.6875 144.6875-144.6875 79.90625 0 144.683593 64.777344 144.683593 144.6875zm0 0" fill="#e9f0f8"/><path d="m282.960938 125.632812-80.367188 60.269532c-.996094.742187-2.089844 1.351562-3.152344 1.980468 18.328125 58.871094 73.34375 101.714844 138.164063 101.714844 79.785156 0 144.683593-64.902344 144.683593-144.6875 0-16.929687-3.070312-33.117187-8.4375-48.230468h-104.09375c-31.140624 0-61.960937 10.289062-86.796874 28.953124zm0 0" fill="#c3d9ed"/><path d="m417.984375 144.910156c0 44.390625-35.988281 80.378906-80.378906 80.378906-44.394531 0-80.382813-35.988281-80.382813-80.378906 0-44.394531 35.988282-80.382812 80.382813-80.382812 44.390625 0 80.378906 35.988281 80.378906 80.382812zm0 0" fill="#366cb6"/><path d="m337.605469 96.679688c38.804687 0 71.28125 27.667968 78.757812 64.304687 1.058594-5.191406 1.621094-10.578125 1.621094-16.074219 0-44.324218-36.058594-80.382812-80.378906-80.382812-44.324219 0-80.382813 36.058594-80.382813 80.382812 0 5.496094.5625 10.882813 1.621094 16.074219 7.476562-36.636719 39.953125-64.304687 78.761719-64.304687zm0 0" fill="#215faa"/><path d="m434.0625 386.054688h-353.679688c-44.324218 0-80.382812-36.058594-80.382812-80.382813v-176.839844h112.535156v28.132813c0 37.683594 30.640625 68.324218 68.324219 68.324218 14.695313 0 29.242187-4.851562 41.011719-13.664062l80.378906-60.285156c19.324219-14.515625 43.296875-22.507813 67.507812-22.507813h144.6875v176.839844c0 44.324219-36.0625 80.382813-80.382812 80.382813zm0 0" fill="#f85566"/><path d="m434.0625 353.902344h-353.679688c-44.324218 0-80.382812-36.058594-80.382812-80.382813v32.152344c0 44.324219 36.058594 80.382813 80.382812 80.382813h353.679688c44.320312 0 80.382812-36.058594 80.382812-80.382813v-32.152344c0 44.324219-36.0625 80.382813-80.382812 80.382813zm0 0" fill="#c84f61"/><path d="m450.136719 321.75h-32.152344v-32.152344h32.152344zm-64.304688 0h-64.304687v-32.152344h64.304687zm0 0" fill="#fff"/></svg>