<svg height="514pt" viewBox="0 -32 514.44361 514" width="514pt" xmlns="http://www.w3.org/2000/svg"><path d="m417.984375 450.359375h-192.914063v-32.152344h192.914063c35.464844 0 64.304687-28.839843 64.304687-64.304687h32.15625c0 53.195312-43.261718 96.457031-96.460937 96.457031zm0 0" fill="#c3d9ed"/><path d="m450.136719 225.289062c0 124.304688-100.765625 225.070313-225.066407 225.070313-124.304687 0-225.070312-100.765625-225.070312-225.070313 0-124.300781 100.765625-225.066406 225.070312-225.066406 124.300782 0 225.066407 100.765625 225.066407 225.066406zm0 0" fill="#e9f0f8"/><path d="m385.832031 225.289062c0 88.789063-71.976562 160.765626-160.761719 160.765626-88.789062 0-160.765624-71.976563-160.765624-160.765626 0-88.785156 71.976562-160.761718 160.765624-160.761718 88.785157 0 160.761719 71.976562 160.761719 160.761718zm0 0" fill="#c3d9ed"/><path d="m353.679688 225.289062c0 71.03125-57.582032 128.613282-128.609376 128.613282-71.03125 0-128.613281-57.582032-128.613281-128.613282 0-71.027343 57.582031-128.609374 128.613281-128.609374 71.027344 0 128.609376 57.582031 128.609376 128.609374zm0 0" fill="#35c9fc"/><g fill="#00adfe"><path d="m208.992188 193.136719h32.152343v-95.347657c-5.273437-.660156-10.625-1.109374-16.074219-1.109374-5.449218 0-10.804687.449218-16.078124 1.109374zm0 0"/><path d="m208.992188 352.792969c5.273437.660156 10.628906 1.109375 16.078124 1.109375 5.449219 0 10.800782-.449219 16.074219-1.109375v-103.386719h-32.152343zm0 0"/><path d="m123.59375 146.550781 73.453125 73.449219 22.734375-22.730469-73.453125-73.453125c-8.488281 6.609375-16.125 14.242188-22.734375 22.734375zm0 0"/><path d="m326.542969 304.03125-73.453125-73.453125-22.730469 22.734375 73.453125 73.453125c8.488281-6.609375 16.125-14.246094 22.730469-22.734375zm0 0"/><path d="m96.457031 225.289062c0 5.453126.453125 10.804688 1.109375 16.078126h103.386719v-32.152344h-103.386719c-.65625 5.273437-1.109375 10.625-1.109375 16.074218zm0 0"/><path d="m249.183594 241.367188h103.386718c.660157-5.273438 1.109376-10.625 1.109376-16.078126 0-5.449218-.449219-10.800781-1.109376-16.074218h-103.386718zm0 0"/><path d="m123.59375 304.03125c6.609375 8.507812 14.246094 16.125 22.734375 22.734375l73.453125-73.453125-22.734375-22.734375zm0 0"/><path d="m303.8125 123.816406-73.453125 73.453125 22.730469 22.730469 73.453125-73.449219c-6.605469-8.492187-14.242188-16.125-22.730469-22.734375zm0 0"/></g><path d="m289.375 225.289062c0 35.515626-28.789062 64.308594-64.304688 64.308594-35.515624 0-64.308593-28.792968-64.308593-64.308594 0-35.511718 28.792969-64.304687 64.308593-64.304687 35.515626 0 64.304688 28.792969 64.304688 64.304687zm0 0" fill="#515570"/><path d="m225.070312 193.136719c29.882813 0 54.835938 20.5625 62.019532 48.230469 1.351562-5.175782 2.285156-10.496094 2.285156-16.078126 0-35.460937-28.839844-64.304687-64.304688-64.304687-35.464843 0-64.308593 28.84375-64.308593 64.304687 0 5.582032.933593 10.902344 2.285156 16.078126 7.1875-27.667969 32.136719-48.230469 62.023437-48.230469zm0 0" fill="#444863"/><path d="m176.839844 32.375h32.152344v32.152344h-32.152344zm0 0" fill="#fff"/><path d="m241.144531 32.375h32.152344v32.152344h-32.152344zm0 0" fill="#fff"/></svg>