<svg height="514.44361pt" viewBox="0 0 514.44361 514.44361" width="514.44361pt" xmlns="http://www.w3.org/2000/svg"><path d="m482.289062 482.289062h-450.136718c-17.765625 0-32.152344-14.386718-32.152344-32.152343v-417.984375c0-17.765625 14.386719-32.152344 32.152344-32.152344h450.136718c17.765626 0 32.15625 14.386719 32.15625 32.152344v417.984375c0 17.765625-14.390624 32.152343-32.15625 32.152343zm0 0" fill="#e9f0f8"/><path d="m514.445312 514.445312h-225.070312v-64.308593c0-17.761719-14.390625-32.152344-32.152344-32.152344h-128.613281c-17.761719 0-32.152344-14.386719-32.152344-32.152344s14.390625-32.152343 32.152344-32.152343h305.453125c44.386719 0 80.382812 35.996093 80.382812 80.382812zm0 0" fill="#4bc18f"/><path d="m466.214844 514.445312h-32.152344v-48.230468c0-8.875 7.203125-16.078125 16.074219-16.078125 8.875 0 16.078125 7.203125 16.078125 16.078125zm0 0" fill="#44a79b"/><path d="m467.402344 361.140625c-10.175782-4.679687-21.410156-7.460937-33.339844-7.460937h-165.828125c18.101563 37.957031 56.75 64.304687 101.523437 64.304687 41.78125 0 78.242188-22.941406 97.644532-56.84375zm0 0" fill="#44a79b"/><path d="m450.136719 305.449219c0 44.394531-35.988281 80.382812-80.378907 80.382812-44.394531 0-80.382812-35.988281-80.382812-80.382812 0-44.390625 35.988281-80.378907 80.382812-80.378907 44.390626 0 80.378907 35.988282 80.378907 80.378907zm0 0" fill="#ffd8c9"/><path d="m369.757812 353.679688c-38.808593 0-71.285156-27.667969-78.757812-64.304688-1.0625 5.191406-1.625 10.578125-1.625 16.074219 0 44.324219 36.058594 80.382812 80.382812 80.382812 44.320313 0 80.378907-36.058593 80.378907-80.382812 0-5.496094-.5625-10.882813-1.621094-16.074219-7.476563 36.636719-39.949219 64.304688-78.757813 64.304688zm0 0" fill="#fbc0aa"/><g fill="#c7cce1"><path d="m64.304688 128.609375h385.832031v32.152344h-385.832031zm0 0"/><path d="m64.304688 192.917969h225.070312v32.152343h-225.070312zm0 0"/><path d="m64.304688 257.222656h160.765624v32.152344h-160.765624zm0 0"/></g><path d="m64.304688 48.230469h32.152343v32.152343h-32.152343zm0 0" fill="#fff"/><path d="m128.609375 48.230469h32.152344v32.152343h-32.152344zm0 0" fill="#fff"/></svg>