<svg height="514pt" viewBox="-80 0 514 514.44361" width="514pt" xmlns="http://www.w3.org/2000/svg"><path d="m290.578125 179.414062h-259.183594l36.042969-179.414062h187.097656zm0 0" fill="#366cb6"/><path d="m254.535156 514.445312h-187.097656l-36.042969-179.414062h259.183594zm0 0" fill="#366cb6"/><path d="m305.671875 241.144531h48.230469v32.152344h-48.230469zm0 0" fill="#515570"/><path d="m46.957031 412.472656c31.992188 23.566406 71.34375 37.664063 114.027344 37.664063s82.039063-14.097657 114.03125-37.664063l15.546875-77.441406h-259.167969zm0 0" fill="#215faa"/><path d="m46.957031 101.972656-15.5625 77.441406h259.167969l-15.546875-77.441406c-31.992187-23.566406-71.347656-37.667968-114.03125-37.667968s-82.035156 14.101562-114.027344 37.667968zm0 0" fill="#215faa"/><path d="m321.75 257.222656c0 88.785156-71.976562 160.761719-160.765625 160.761719-88.785156 0-160.761719-71.976563-160.761719-160.761719 0-88.789062 71.976563-160.765625 160.761719-160.765625 88.789063 0 160.765625 71.976563 160.765625 160.765625zm0 0" fill="#f9dc26"/><path d="m160.984375 128.609375c83.226563 0 151.859375 63.566406 159.945313 144.6875.53125-5.289063.820312-10.640625.820312-16.074219 0-88.644531-72.121094-160.765625-160.765625-160.765625s-160.761719 72.121094-160.761719 160.765625c0 5.433594.289063 10.785156.820313 16.074219 8.085937-81.121094 76.714843-144.6875 159.941406-144.6875zm0 0" fill="#f2bc0e"/><path d="m225.289062 273.296875h-80.378906v-112.535156h32.152344v80.382812h48.226562zm0 0" fill="#515570"/><path d="m144.910156 321.527344h32.152344v32.152344h-32.152344zm0 0" fill="#fff"/></svg>