<svg height="503pt" viewBox="-91 0 503 503.06958" width="503pt" xmlns="http://www.w3.org/2000/svg"><path d="m32.1875 133.3125h257.222656v353.679688h-257.222656zm0 0" fill="#d89879"/><path d="m257.257812 133.3125h-32.152343v-73.726562l-32.15625-32.152344c-6.269531-6.269532-6.269531-16.460938 0-22.730469 6.273437-6.269531 16.464843-6.269531 22.734375 0l41.574218 41.574219zm0 0" fill="#c7cce1"/><path d="m225.105469 278h-128.613281c-8.875 0-16.074219-7.203125-16.074219-16.074219v-64.308593c0-8.871094 7.199219-16.074219 16.074219-16.074219h128.613281c8.871093 0 16.074219 7.203125 16.074219 16.074219v64.308593c0 8.871094-7.203126 16.074219-16.074219 16.074219zm0 0" fill="#fdee93"/><path d="m305.484375 149.390625h-289.375c-8.871094 0-16.0742188-7.203125-16.0742188-16.078125s7.2031248-16.074219 16.0742188-16.074219h289.375c8.875 0 16.078125 7.199219 16.078125 16.074219s-7.203125 16.078125-16.078125 16.078125zm0 0" fill="#d18161"/><path d="m305.484375 503.070312h-289.375c-8.871094 0-16.0742188-7.203124-16.0742188-16.078124s7.2031248-16.074219 16.0742188-16.074219h289.375c8.875 0 16.078125 7.199219 16.078125 16.074219s-7.203125 16.078124-16.078125 16.078124zm0 0" fill="#d18161"/><g fill="#fff"><path d="m64.339844 342.304688h32.152344v32.152343h-32.152344zm0 0"/><path d="m64.339844 406.613281h32.152344v32.152344h-32.152344zm0 0"/></g></svg>