<svg height="514pt" viewBox="-64 0 514 514.44361" width="514pt" xmlns="http://www.w3.org/2000/svg"><path d="m353.902344 401.910156v-337.605468c0-17.730469-14.421875-32.152344-32.152344-32.152344v369.757812h-32.152344v-401.910156h32.152344c35.464844 0 64.304688 28.839844 64.304688 64.304688v337.605468zm0 0" fill="#d89879"/><path d="m289.597656 32.152344h32.152344v353.679687h-32.152344zm0 0" fill="#c7cce1"/><path d="m353.902344 337.605469h32.152344v64.304687h-32.152344zm0 0" fill="#d18161"/><path d="m289.597656 337.605469h32.152344v64.304687h-32.152344zm0 0" fill="#9ca3c2"/><path d="m144.910156 514.445312h-32.152344c-62.054687 0-112.535156-50.496093-112.535156-112.535156v-48.230468h32.152344c8.859375 0 16.074219-7.203126 16.074219-16.074219v-32.15625c0-8.871094-7.214844-16.074219-16.074219-16.074219h-16.078125v-64.304688c0-35.464843 28.84375-64.308593 64.308594-64.308593h96.457031c35.464844 0 64.304688 28.84375 64.304688 64.308593v64.304688h-16.078126c-8.855468 0-16.074218 7.203125-16.074218 16.074219v32.15625c0 8.871093 7.21875 16.074219 16.074218 16.074219h32.15625v48.230468c0 62.039063-50.480468 112.535156-112.535156 112.535156zm0 0" fill="#d89879"/><path d="m128.832031 241.144531c-8.875 0-16.074219-7.203125-16.074219-16.074219v-128.613281h32.152344v128.613281c0 8.871094-7.203125 16.074219-16.078125 16.074219zm0 0" fill="#515570"/><g fill="#d18161"><path d="m144.910156 482.289062h-32.152344c-62.054687 0-112.535156-50.492187-112.535156-112.53125v32.152344c0 62.039063 50.480469 112.535156 112.535156 112.535156h32.152344c62.054688 0 112.535156-50.496093 112.535156-112.535156v-32.152344c0 62.039063-50.480468 112.53125-112.535156 112.53125zm0 0"/><path d="m48.449219 305.449219v-32.152344c0-8.871094-7.214844-16.074219-16.074219-16.074219h-16.078125v32.152344h16.078125c8.859375 0 16.074219 7.203125 16.074219 16.074219zm0 0"/><path d="m241.367188 289.375v-32.152344h-16.078126c-8.855468 0-16.074218 7.203125-16.074218 16.074219v32.152344c0-8.871094 7.21875-16.074219 16.074218-16.074219zm0 0"/></g><path d="m160.984375 112.535156h-64.304687v-80.382812c0-17.765625 14.386718-32.152344 32.152343-32.152344s32.152344 14.386719 32.152344 32.152344zm0 0" fill="#d89879"/><path d="m96.679688 80.382812h64.304687v32.152344h-64.304687zm0 0" fill="#d18161"/><path d="m112.757812 337.605469h32.152344v32.152343h-32.152344zm0 0" fill="#fff"/><path d="m112.757812 273.296875h32.152344v32.152344h-32.152344zm0 0" fill="#fff"/><path d="m337.824219 514.445312c-26.636719 0-48.226563-21.59375-48.226563-48.230468v-96.457032h96.457032v96.457032c0 26.636718-21.589844 48.230468-48.230469 48.230468zm0 0" fill="#515570"/><path d="m112.757812 417.984375h32.152344v96.460937h-32.152344zm0 0" fill="#c7cce1"/><path d="m160.984375 434.0625h-64.304687c-8.875 0-16.074219-7.203125-16.074219-16.078125s7.199219-16.074219 16.074219-16.074219h64.304687c8.875 0 16.078125 7.199219 16.078125 16.074219s-7.203125 16.078125-16.078125 16.078125zm0 0" fill="#515570"/><path d="m112.757812 482.289062h32.152344v32.15625h-32.152344zm0 0" fill="#9ca3c2"/><path d="m337.824219 482.289062c-26.636719 0-48.226563-21.589843-48.226563-48.226562v32.152344c0 26.636718 21.589844 48.230468 48.226563 48.230468 26.640625 0 48.230469-21.59375 48.230469-48.230468v-32.152344c0 26.636719-21.589844 48.226562-48.230469 48.226562zm0 0" fill="#444863"/></svg>