<svg height="514pt" viewBox="-128 0 514 514.44361" width="514pt" xmlns="http://www.w3.org/2000/svg"><path d="m177.0625 257.222656h-96.457031v-48.230468c-26.59375 0-48.230469-21.636719-48.230469-48.230469v-112.53125c0-26.589844 21.636719-48.230469 48.230469-48.230469h96.457031c26.589844 0 48.226562 21.640625 48.226562 48.230469v112.53125c0 26.59375-21.636718 48.230469-48.226562 48.230469zm0 0" fill="#e9f0f8"/><path d="m32.375 80.382812v80.378907c0 26.59375 21.636719 48.230469 48.230469 48.230469v48.230468h96.457031v-48.230468c26.589844 0 48.226562-21.636719 48.226562-48.230469v-80.378907zm0 0" fill="#35c9fc"/><path d="m177.0625 176.839844h-96.457031c-26.59375 0-48.230469-21.636719-48.230469-48.230469v32.152344c0 26.59375 21.636719 48.230469 48.230469 48.230469v48.230468h96.457031v-48.230468c26.589844 0 48.226562-21.636719 48.226562-48.230469v-32.152344c0 26.59375-21.636718 48.230469-48.226562 48.230469zm0 0" fill="#00adfe"/><path d="m257.445312 514.445312h-257.222656v-257.222656c0-17.765625 14.386719-32.152344 32.152344-32.152344h192.914062c17.765626 0 32.15625 14.386719 32.15625 32.152344zm0 0" fill="#c7cce1"/><path d="m177.0625 450.136719h-96.457031c-8.875 0-16.078125-7.199219-16.078125-16.074219v-80.382812h128.609375v80.382812c0 8.875-7.199219 16.074219-16.074219 16.074219zm0 0" fill="#515570"/><path d="m64.527344 353.679688h128.609375v32.152343h-128.609375zm0 0" fill="#444863"/><g fill="#fff"><path d="m80.605469 289.375h32.152343v32.152344h-32.152343zm0 0"/><path d="m144.910156 289.375h32.152344v32.152344h-32.152344zm0 0"/></g></svg>